<?xml version="1.0" encoding="utf-8"?>
<!-- Generator: Adobe Illustrator 19.1.0, SVG Export Plug-In . SVG Version: 6.00 Build 0)  -->
<svg version="1.1" id="Layer_1" xmlns="http://www.w3.org/2000/svg" xmlns:xlink="http://www.w3.org/1999/xlink" x="0px" y="0px"
	 viewBox="0 0 339.7 34.4" style="enable-background:new 0 0 339.7 34.4;" xml:space="preserve">
<style type="text/css">
	.st0{opacity:0.75;}
	.st1{clip-path:url(#SVGID_2_);fill:#343535;}
	.st2{opacity:0.7;}
	.st3{clip-path:url(#SVGID_4_);fill:#070707;}
</style>
<g class="st0">
	<defs>
		<rect id="SVGID_1_" y="0.4" class="st0" width="26.9" height="34"/>
	</defs>
	<clipPath id="SVGID_2_">
		<use xlink:href="#SVGID_1_"  style="overflow:visible;"/>
	</clipPath>
	<path class="st1" d="M24.2,12.9l-1.4-1.6L16,3.4l-2.6-3l-2.6,3L3.5,12L3,12.5c-1.9,2.3-3,5.2-3,8.4c0,0.3,0,0.6,0.1,0.9
		c0.4,7,6.3,12.5,13.4,12.5c4.1,0,7.8-1.9,10.3-4.8l-0.1-0.1c0,0,0,0,0,0c-0.2-0.6-0.4-1.3-0.7-1.9c-2.6-5.6-8.7-8.9-14.9-7.9
		c-0.2,0-0.4,0.1-0.6,0.1c0,0.1,0.1,0.2,0.1,0.4c1.6,4.8,5.5,8.2,10.2,9.2c-1.3,0.7-2.8,1.1-4.4,1.1c-5.3,0-9.6-4.3-9.6-9.6
		c0-2.3,0.8-4.3,2.1-6c0.2-0.3,0.5-0.6,0.7-0.8l5.7-6.6l1-1.2l1,1.2l5.6,6.5c0.4,0.4,0.8,0.9,1.1,1.3C22.4,17,23,18.9,23,21
		c0,1.2-0.2,2.3-0.6,3.3c1.4,1.7,2.1,2.9,2.4,3.6L25,28c1.1-1.8,1.8-3.8,1.9-6.1c0-0.3,0.1-0.6,0.1-1C26.9,17.9,25.9,15.2,24.2,12.9
		"/>
</g>
<g class="st2">
	<defs>
		<rect id="SVGID_3_" x="38.1" y="7.9" class="st2" width="301.6" height="20.9"/>
	</defs>
	<clipPath id="SVGID_4_">
		<use xlink:href="#SVGID_3_"  style="overflow:visible;"/>
	</clipPath>
	<path class="st3" d="M53.4,8.2c0.3,0,0.5,0.2,0.5,0.5c0,0.3-0.2,0.5-0.5,0.5h-7c-4,0-7.4,3.5-7.4,7.7V18h13.1
		c0.2,0,0.5,0.2,0.5,0.5c0,0.3-0.2,0.5-0.5,0.5H39.1v1.1c0,4.2,3.3,7.7,7.4,7.7h7c0.3,0,0.5,0.2,0.5,0.5c0,0.3-0.2,0.5-0.5,0.5h-7
		c-4.5,0-8.3-3.9-8.3-8.7v-3.3c0-4.7,3.8-8.7,8.3-8.7H53.4z"/>
	<path class="st3" d="M72.4,28.3c0,0.3-0.2,0.5-0.5,0.5c-0.2,0-0.5-0.2-0.5-0.5v-8.7c0-3-2.4-5.4-5.2-5.4h-2.7
		c-2.8,0-5.1,2.4-5.2,5.3v8.8c0,0.3-0.2,0.5-0.5,0.5c-0.3,0-0.5-0.2-0.5-0.5v-8.8c0.1-3.4,2.8-6.3,6.1-6.3h2.7
		c3.3,0,6.1,2.9,6.1,6.3v0V28.3z"/>
	<path class="st3" d="M75.2,13.9c0,0,0-0.1,0-0.2c0-0.2,0.2-0.4,0.5-0.4c0.1,0,0.3,0.1,0.4,0.3l5.3,13.2c0.3,0.8,1,1.3,1.8,1.3
		c0.8,0,1.5-0.5,1.8-1.3l5.3-13.2c0-0.1,0.2-0.3,0.4-0.3c0.2,0,0.5,0.2,0.5,0.4c0,0.1,0,0.1,0,0.2L85.7,27c-0.5,1.2-1.5,1.8-2.6,1.8
		c-1.2,0-2.2-0.7-2.7-1.8L75.2,13.9z"/>
	<path class="st3" d="M95.6,9.7c0,0.4-0.3,0.7-0.6,0.7s-0.6-0.3-0.6-0.7c0-0.4,0.3-0.7,0.6-0.7S95.6,9.4,95.6,9.7 M94.5,13.9
		c0-0.3,0.2-0.5,0.5-0.5c0.2,0,0.5,0.2,0.5,0.5v14.4c0,0.3-0.2,0.5-0.5,0.5c-0.3,0-0.5-0.2-0.5-0.5V13.9z"/>
	<path class="st3" d="M100.1,19.5c0.1-3.4,2.8-6.3,6.1-6.3h1.9c1.6,0,3.2,0.7,4.3,1.9c0.1,0.1,0.1,0.2,0.1,0.3
		c0,0.3-0.2,0.5-0.5,0.5c-0.1,0-0.2,0-0.4-0.1c-1-1-2.3-1.6-3.7-1.6h-1.9c-2.7,0-5.1,2.4-5.2,5.3v8.8c0,0.3-0.2,0.5-0.5,0.5
		c-0.3,0-0.5-0.2-0.5-0.5V19.5L100.1,19.5z"/>
	<path class="st3" d="M123.6,13.2c3.3,0,6.1,2.9,6.1,6.4v2.8c0,3.5-2.8,6.4-6.1,6.4h-2.7c-3.3,0-6.1-2.9-6.1-6.4v-2.8
		c0-3.5,2.8-6.4,6.1-6.4H123.6z M120.9,14.2c-2.7,0-5.2,2.4-5.2,5.4v2.8c0,2.9,2.4,5.4,5.2,5.4h2.7c2.8,0,5.2-2.5,5.2-5.4v-2.8
		c0-3-2.4-5.4-5.2-5.4H120.9z"/>
	<path class="st3" d="M148.5,28.3c0,0.3-0.2,0.5-0.5,0.5c-0.2,0-0.5-0.2-0.5-0.5v-8.7c0-3-2.4-5.4-5.2-5.4h-2.7
		c-2.8,0-5.1,2.4-5.2,5.3v8.8c0,0.3-0.2,0.5-0.5,0.5c-0.3,0-0.5-0.2-0.5-0.5v-8.8c0.1-3.4,2.8-6.3,6.1-6.3h2.7
		c3.3,0,6.1,2.9,6.1,6.3v0V28.3z"/>
	<path class="st3" d="M178.5,28.3c0,0.3-0.2,0.5-0.5,0.5c-0.2,0-0.5-0.2-0.5-0.5v-8.7c0-3-2.4-5.4-5.2-5.4h-1.3
		c-2.8,0-5.1,2.5-5.2,5.3v8.8c0,0.3-0.2,0.5-0.5,0.5c-0.2,0-0.5-0.2-0.5-0.5v-8.7c0-3-2.4-5.4-5.2-5.4h-1.3c-2.7,0-5.1,2.4-5.2,5.3
		v8.8c0,0.3-0.2,0.5-0.5,0.5c-0.3,0-0.5-0.2-0.5-0.5v-8.8c0.1-3.4,2.8-6.3,6.1-6.3h1.3c2.1,0,4.2,1.1,5.3,3.1l0.4,0.7l0.4-0.7
		c1.2-2,3.1-3.1,5.3-3.1h1.3c3.3,0,6.1,2.8,6.1,6.3v0V28.3z"/>
	<path class="st3" d="M183,24.6c0.8,2,2.7,3.2,4.7,3.2h6.6c0.2,0,0.5,0.2,0.5,0.5c0,0.3-0.2,0.5-0.5,0.5h-6.6
		c-3.6,0-6.1-3.1-6.1-6.7v-2.5c0-3.5,2.8-6.4,6.1-6.4h2.7c3.3,0,6.1,2.9,6.1,6.4v2.6c0,0.5-0.4,0.9-0.9,0.9h-13.4L183,24.6z
		 M195.7,19.6c0-2.9-2.4-5.4-5.2-5.4h-2.7c-2.8,0-5.2,2.4-5.2,5.4v2.5h13.1V19.6z"/>
	<path class="st3" d="M215.3,28.3c0,0.3-0.2,0.5-0.5,0.5c-0.2,0-0.5-0.2-0.5-0.5v-8.7c0-3-2.4-5.4-5.2-5.4h-2.7
		c-2.8,0-5.1,2.4-5.2,5.3v8.8c0,0.3-0.2,0.5-0.5,0.5c-0.3,0-0.5-0.2-0.5-0.5v-8.8c0.1-3.4,2.8-6.3,6.1-6.3h2.7
		c3.3,0,6.1,2.9,6.1,6.3v0V28.3z"/>
	<path class="st3" d="M220.1,22.5c0,2.9,2.3,5.3,5.1,5.3h1.3c0.2,0,0.5,0.2,0.5,0.5c0,0.3-0.2,0.5-0.5,0.5h-1.3
		c-3.3,0-6.1-2.8-6.1-6.3V8.7c0-0.3,0.2-0.5,0.5-0.5c0.3,0,0.5,0.2,0.5,0.5v4.5h6.1c0.3,0,0.5,0.2,0.5,0.5c0,0.3-0.2,0.5-0.5,0.5
		h-6.1v6.5V22.5z"/>
	<path class="st3" d="M239,13.2c3.3,0,6.2,2.8,6.2,6.4v2.8c0,3.5-2.9,6.4-6.2,6.4h-3.9c-2.7,0-4.8-2.2-4.8-5c0-2.7,2.1-4.9,4.8-4.9
		h9.1l-0.1-0.6c-0.6-2.4-2.7-4.1-5-4.1h-6.3c-0.2,0-0.5-0.2-0.5-0.5c0-0.3,0.2-0.5,0.5-0.5h0.5H239z M239,27.9
		c2.9,0,5.2-2.5,5.2-5.4v-2.5h-9.1c-2.1,0-3.8,1.8-3.8,4c0,2.2,1.7,4,3.8,4h2.1H239z"/>
	<path class="st3" d="M248.9,8.7c0-0.3,0.2-0.5,0.5-0.5c0.3,0,0.5,0.2,0.5,0.5v19.7c0,0.3-0.2,0.5-0.5,0.5c-0.2,0-0.5-0.2-0.5-0.5
		V8.7z"/>
	<path class="st3" d="M262.4,16.8c0.1-4.7,3.9-8.6,8.3-8.6h3.5c0.2,0,0.5,0.2,0.5,0.5c0,0.3-0.2,0.5-0.5,0.5h-3.5
		c-4,0-7.4,3.5-7.4,7.7v5.4h10.9c0.2,0,0.5,0.2,0.5,0.5c0,0.3-0.2,0.5-0.5,0.5h-10.9v5.1c0,0.3-0.2,0.5-0.5,0.5
		c-0.2,0-0.5-0.2-0.5-0.5v-0.5V16.8z"/>
	<path class="st3" d="M278.9,8.7c0-0.3,0.2-0.5,0.5-0.5c0.3,0,0.5,0.2,0.5,0.5v19.7c0,0.3-0.2,0.5-0.5,0.5c-0.2,0-0.5-0.2-0.5-0.5
		V8.7z"/>
	<path class="st3" d="M284.6,13.7c0-0.3,0.2-0.5,0.5-0.5c0.2,0,0.5,0.2,0.5,0.5v8.8c0.1,3,2.5,5.3,5.2,5.3h1.3
		c2.8,0,5.2-2.5,5.2-5.4v-8.7c0-0.3,0.2-0.5,0.5-0.5c0.3,0,0.5,0.2,0.5,0.5v8.8c-0.1,3.4-2.8,6.3-6.1,6.3h-1.3
		c-3.3,0-6.1-2.9-6.1-6.3v0V13.7z"/>
	<path class="st3" d="M302.5,9.7c0,0.4-0.3,0.7-0.6,0.7c-0.4,0-0.6-0.3-0.6-0.7c0-0.4,0.3-0.7,0.6-0.7
		C302.3,9.1,302.5,9.4,302.5,9.7 M301.4,13.9c0-0.3,0.2-0.5,0.5-0.5c0.2,0,0.5,0.2,0.5,0.5v14.4c0,0.3-0.2,0.5-0.5,0.5
		c-0.3,0-0.5-0.2-0.5-0.5V13.9z"/>
	<path class="st3" d="M321.8,22.5c0,3.5-2.7,6.3-6.1,6.3h-2.7c-3.3,0-6.1-2.8-6.1-6.3v-3.1c0-3.4,2.7-6.3,6.1-6.3h2.7
		c1.6,0,3.2,0.7,4.3,1.8l0.8,0.9V8.4c0-0.3,0.2-0.5,0.5-0.5c0.2,0,0.5,0.2,0.5,0.5V22.5z M320.9,19.4c0-2.8-2.4-5.2-5.1-5.2h-2.7
		c-2.8,0-5.1,2.4-5.1,5.3v3.1c0,2.9,2.3,5.3,5.1,5.3h2.7c2.8,0,5.1-2.4,5.1-5.3v-2.1V19.4z"/>
	<path class="st3" d="M338.7,17.6c-0.2,0-0.5-0.2-0.5-0.5v-0.3c0-0.5-0.3-1.1-0.6-1.5l-0.1-0.1c-0.5-0.5-1.2-0.8-1.9-0.8h-5.8
		c-1.5,0-2.7,1.3-2.7,2.8c0,5.6,12.5,1.3,12.5,8c0,2-1.6,3.8-3.7,3.8h-6.3c-1.8,0-3.6-1.6-3.6-3.4c0-0.4,0-1,0.5-1
		c0.3,0,0.5,0.2,0.5,0.5v0.4c0,1.3,1.4,2.4,2.6,2.4h6.3c1.5,0,2.7-1.3,2.7-2.8c0-2.1-1.9-2.8-3.3-3.1c-3.1-0.6-9.1-0.4-9.1-4.9
		c0-2.1,1.7-3.8,3.7-3.8h5.8c1,0,1.9,0.4,2.6,1.1l0.1,0.1c0.5,0.6,1,1.5,1,2.3c0,0.1,0,0.2,0,0.4C339.2,17.3,339,17.6,338.7,17.6"/>
</g>
</svg>
