<?xml version="1.0" encoding="utf-8"?>
<!-- Generator: Adobe Illustrator 19.1.0, SVG Export Plug-In . SVG Version: 6.00 Build 0)  -->
<svg version="1.1" xmlns="http://www.w3.org/2000/svg" xmlns:xlink="http://www.w3.org/1999/xlink" x="0px" y="0px"
	 viewBox="0 0 22.1 27.8" style="enable-background:new 0 0 22.1 27.8;" xml:space="preserve">
<style type="text/css">
	.st0{display:none;}
	.st1{display:inline;fill:#6D6D6D;}
	.st2{fill:none;stroke:#6D6D6D;stroke-width:5;stroke-miterlimit:10;}
	.st3{display:inline;fill:none;stroke:#6D6D6D;stroke-width:5;stroke-miterlimit:10;}
</style>
<g id="Layer_1" class="st0">
	<path class="st1" d="M9.3-6.8c-11.6,0-21.2,9.5-21.2,21.2v0c0,11.6,9.5,21.2,21.2,21.2h0c11.6,0,21.2-9.5,21.2-21.2V-6.8H9.3z
		 M12.9,0.2l3.5,3.5l-8.8,8.8l2.4,2.4l-3.5,3.5l-5.9-5.9L12.9,0.2z M9.4,27.6l-3.5-3.5l8.8-8.8l-2.4-2.4l3.5-3.5l5.9,5.9L9.4,27.6z"
		/>
</g>
<g id="Layer_3">
	<polyline class="st2" points="14.6,1.9 4,12.6 8.2,16.7 	"/>
	<polyline class="st2" points="7.6,25.9 18.3,15.2 14.1,11.1 	"/>
</g>
<g id="Layer_2" class="st0">
	<path class="st3" d="M9.3,35.5L9.3,35.5c-11.6,0-21.2-9.5-21.2-21.2v0c0-11.6,9.5-21.2,21.2-21.2h21.2v21.2
		C30.5,26,21,35.5,9.3,35.5z"/>
</g>
</svg>
