<?xml version="1.0" encoding="utf-8"?>
<!-- Generator: Adobe Illustrator 19.1.0, SVG Export Plug-In . SVG Version: 6.00 Build 0)  -->
<svg version="1.1" id="Layer_1" xmlns="http://www.w3.org/2000/svg" xmlns:xlink="http://www.w3.org/1999/xlink" x="0px" y="0px"
	 viewBox="0 0 87.5 92" style="enable-background:new 0 0 87.5 92;" xml:space="preserve">
<style type="text/css">
	.st0{fill:none;stroke:#989898;stroke-miterlimit:10;}
</style>
<g>
	<path class="st0" d="M81.6,33.1c-1.5-6.9-2.1-9.8-8.2-14.2l-22-12.7c-5.1-2.9-11.3-2.9-16.4,0l-22,12.7c-5.1,2.9-8.2,8.4-8.2,14.2
		v25.4c0,5.9,3.1,11.3,8.2,14.2l22,12.7c5.1,2.9,11.3,2.9,16.4,0l22-12.7c5.1-2.9,8.2-8.4,8.2-14.2v-8"/>
	<path id="XMLID_1_" class="st0" d="M81.6,52.2c0-1.4,0-2.7-0.2-4.1c-1.1-11.6-7.3-21.5-16.2-27.6c0,0-0.2,0.1-0.2,0.1
		c-1.8,0.7-3.4,1.6-5,2.5C45,32,37.3,49.8,41.9,67c0.1,0.5,0.3,1,0.4,1.5c0.3-0.1,0.6-0.3,1-0.4c12.9-5.6,26.6-24,22.6-43.3"/>
</g>
</svg>
