<?xml version="1.0" encoding="utf-8"?>
<!-- Generator: Adobe Illustrator 19.1.0, SVG Export Plug-In . SVG Version: 6.00 Build 0)  -->
<svg version="1.1" id="Layer_1" xmlns="http://www.w3.org/2000/svg" xmlns:xlink="http://www.w3.org/1999/xlink" x="0px" y="0px"
	 viewBox="0 0 559.6 636.9" style="enable-background:new 0 0 559.6 636.9;" xml:space="preserve">
<style type="text/css">
	.st0{opacity:0.74;clip-path:url(#SVGID_2_);fill:#0D0D0D;}
</style>
<g>
	<defs>
		<rect id="SVGID_1_" width="559.6" height="636.9"/>
	</defs>
	<clipPath id="SVGID_2_">
		<use xlink:href="#SVGID_1_"  style="overflow:visible;"/>
	</clipPath>
	<path class="st0" d="M280.1,303.7l271.2-150.2c-1.9-2-4.1-3.7-6.6-5.1L294.7,4c-9.2-5.3-20.6-5.3-29.8,0L18.3,146.4L280.1,303.7z"
		/>
	<path class="st0" d="M279.5,333.7L1.1,166.3c-0.7,2.5-1.1,5.2-1.1,7.8v288.6c0,10.7,5.7,20.5,14.9,25.9l250,144.3
		c9.2,5.3,20.6,5.3,29.8,0l250-144.3c9.2-5.3,14.9-15.2,14.9-25.9V178.6L279.5,333.7z"/>
</g>
</svg>
