<?xml version="1.0" encoding="utf-8"?>
<!-- Generator: Adobe Illustrator 16.0.0, SVG Export Plug-In . SVG Version: 6.00 Build 0)  -->
<!DOCTYPE svg PUBLIC "-//W3C//DTD SVG 1.1//EN" "http://www.w3.org/Graphics/SVG/1.1/DTD/svg11.dtd">
<svg version="1.1" id="Layer_1" xmlns="http://www.w3.org/2000/svg" xmlns:xlink="http://www.w3.org/1999/xlink" x="0px" y="0px"
	 width="110.964px" height="141.432px" viewBox="0 0 110.964 141.432" enable-background="new 0 0 110.964 141.432"
	 xml:space="preserve">
<g>
	<defs>
		<rect id="SVGID_1_" width="110.964" height="141.432"/>
	</defs>
	<clipPath id="SVGID_2_">
		<use xlink:href="#SVGID_1_"  overflow="visible"/>
	</clipPath>
	<path clip-path="url(#SVGID_2_)" fill="none" stroke="#989898" stroke-miterlimit="10" d="M0.501,140.932v-6.092
		c0-40.491-0.003-80.982,0.002-121.474C0.504,2.486,2.535,0.504,13.599,0.504c28.941,0,57.879-0.013,86.82,0.009
		c6.98,0.005,9.999,2.688,10.009,9.328c0.061,42.76,0.03,85.521,0.02,128.281c0,0.838-0.149,1.675-0.256,2.81H0.501z M90.38,140.558
		v-35.341H64.721v35.341 M90.208,20.125H64.599v16.489h25.609V20.125z M90.302,76.934H64.704v16.364h25.598V76.934z M90.417,48.424
		H64.75v16.505h25.667V48.424z M46.485,76.952H20.898v16.361h25.587V76.952z M20.973,121.688h25.526v-16.501H20.973V121.688z
		 M21.089,36.47h25.274V20.051H21.089V36.47z M20.945,65.007h25.581V48.433H20.945V65.007z"/>
</g>
</svg>
