<?xml version="1.0" encoding="utf-8"?>
<!-- Generator: Adobe Illustrator 19.1.0, SVG Export Plug-In . SVG Version: 6.00 Build 0)  -->
<svg version="1.1" xmlns="http://www.w3.org/2000/svg" xmlns:xlink="http://www.w3.org/1999/xlink" x="0px" y="0px"
	 viewBox="0 0 25.7 25.7" style="enable-background:new 0 0 25.7 25.7;" xml:space="preserve">
<style type="text/css">
	.st0{display:none;}
	.st1{display:inline;fill:#6D6D6D;}
	.st2{display:inline;fill:none;stroke:#6D6D6D;stroke-width:5;stroke-miterlimit:10;}
	.st3{fill:none;stroke:#6D6D6D;stroke-width:5;stroke-miterlimit:10;}
</style>
<g id="Layer_1" class="st0">
	<path class="st1" d="M12.8-8.3C1.2-8.3-8.3,1.2-8.3,12.8v0C-8.3,24.5,1.2,34,12.8,34S34,24.5,34,12.8V-8.3H12.8z M26.7,15.3H15.3
		v11.3h-5V15.3H-1v-5h11.3V-1h5v11.3h11.3V15.3z"/>
</g>
<g id="Layer_3" class="st0">
	<path class="st2" d="M12.8,34L12.8,34C1.2,34-8.3,24.5-8.3,12.8v0c0-11.6,9.5-21.2,21.2-21.2H34v21.2C34,24.5,24.5,34,12.8,34z"/>
</g>
<g id="Layer_2">
	<line class="st3" x1="12.8" y1="2.8" x2="12.8" y2="22.8"/>
	<line class="st3" x1="22.8" y1="12.8" x2="2.8" y2="12.8"/>
</g>
</svg>
