<?xml version="1.0" encoding="utf-8"?>
<!-- Generator: Adobe Illustrator 19.1.0, SVG Export Plug-In . SVG Version: 6.00 Build 0)  -->
<svg version="1.1" id="Layer_1" xmlns="http://www.w3.org/2000/svg" xmlns:xlink="http://www.w3.org/1999/xlink" x="0px" y="0px"
	 viewBox="0 0 400 396" style="enable-background:new 0 0 400 396;" xml:space="preserve">
<style type="text/css">
	.st0{opacity:0.85;}
	.st1{fill:#FFFFFF;}
</style>
<g class="st0">
	<path class="st1" d="M199.2,2C91,2,3,90,3,198.2s88,196.2,196.2,196.2s196.2-88,196.2-196.2S307.3,2,199.2,2L199.2,2z M199.2,374.7
		c-97.4,0-176.6-79.2-176.6-176.6c0-97.4,79.2-176.6,176.6-176.6c97.4,0,176.6,79.2,176.6,176.6
		C375.7,295.5,296.5,374.7,199.2,374.7L199.2,374.7z M199.2,374.7"/>
	<path class="st1" d="M250.5,150.4l-75.2,74.8l-27.4-27.6c-3.8-3.8-10-3.8-13.8-0.1c-3.8,3.8-3.8,10-0.1,13.8l34.3,34.6
		c1.9,1.9,4.4,2.9,7,2.9c2.5,0,5-1,6.9-2.9l82.2-81.7c3.8-3.8,3.8-10,0.1-13.8C260.5,146.6,254.4,146.6,250.5,150.4L250.5,150.4z
		 M250.5,150.4"/>
</g>
</svg>
