<?xml version="1.0" encoding="utf-8"?>
<!-- Generator: Adobe Illustrator 19.1.0, SVG Export Plug-In . SVG Version: 6.00 Build 0)  -->
<svg version="1.1" id="Layer_1" xmlns="http://www.w3.org/2000/svg" xmlns:xlink="http://www.w3.org/1999/xlink" x="0px" y="0px"
	 viewBox="0 0 392 392" style="enable-background:new 0 0 392 392;" xml:space="preserve">
<g>
	<path d="M195.2,0.2c-108.1,0-196,87.9-196,196s87.9,196,196,196s196-87.9,196-196S303.2,0.2,195.2,0.2L195.2,0.2z M195.2,372.6
		c-97.3,0-176.4-79.1-176.4-176.4c0-97.3,79.1-176.4,176.4-176.4c97.3,0,176.4,79.1,176.4,176.4
		C371.6,293.4,292.4,372.6,195.2,372.6L195.2,372.6z M195.2,372.6"/>
	<path d="M246.5,148.4l-75.1,74.7l-27.4-27.6c-3.8-3.8-10-3.8-13.8-0.1c-3.8,3.8-3.8,10-0.1,13.8l34.3,34.5c1.9,1.9,4.4,2.9,7,2.9
		c2.5,0,5-1,6.9-2.9l82.1-81.6c3.8-3.8,3.8-10,0.1-13.8C256.5,144.6,250.3,144.6,246.5,148.4L246.5,148.4z M246.5,148.4"/>
</g>
</svg>
