<?xml version="1.0" encoding="utf-8"?>
<!-- Generator: Adobe Illustrator 19.1.0, SVG Export Plug-In . SVG Version: 6.00 Build 0)  -->
<svg version="1.1" id="Layer_1" xmlns="http://www.w3.org/2000/svg" xmlns:xlink="http://www.w3.org/1999/xlink" x="0px" y="0px"
	 viewBox="0 0 176.3 185.5" style="enable-background:new 0 0 176.3 185.5;" xml:space="preserve">
<style type="text/css">
	.st0{fill:none;stroke:#000000;stroke-width:2;stroke-miterlimit:10.43;}
</style>
<g>
	<g>
		<path class="st0" d="M36.2,72.4C51.6,87.8,67,103,82.4,118.3c0.8,0.9,1.9,1.7,2.4,2.9c0.6,1.4,0.4,3-0.4,4.2c-0.7,1.2-2,1.9-3.4,2
			c-1.4,0.1-2.9-0.5-3.9-1.6c-15.8-15.8-31.6-31.4-47.4-47.2l-0.4-0.4c-3.9,3.8-7.7,7.7-11.6,11.5c-2,2-4.1,3.9-5.7,6.2
			c-4.4,6-6.1,13.8-4.6,21.1c1,5.2,3.6,10,7.4,13.8c8.9,8.9,17.8,17.7,26.7,26.6c2.9,2.9,7,4.6,11.2,4.6c38.3,0,76.6,0,114.9,0
			c1.4,0,2.8,0.2,4.1-0.5c1.7-0.8,2.8-2.7,2.5-4.6c-0.2-2.2-2.3-4-4.5-3.9c-26.3,0-52.7,0-79,0c0.7-0.9,1.6-1.7,2.5-2.6
			c11.6-11.5,23.2-23,34.7-34.5c14.4-14.4,28.9-28.8,43.4-43.2c1.5-1.4,2.5-3.2,2.8-5.2c0.4-2.7-0.4-5.5-2.3-7.5
			C153.4,41.5,134.8,23,116.1,4.5c-2.4-2.4-6.2-3.1-9.4-1.9c-1.3,0.5-2.4,1.2-3.3,2.2C91.6,16.4,79.9,28.2,68.1,39.8
			C57.3,50.5,46.6,61.3,35.8,72L36.2,72.4z"/>
	</g>
	<path class="st0" d="M5.6,151c0.5-0.1,1-0.2,1.5-0.2c3.7,0,7.4,0,11.2,0c2.2,0,4.3,1.8,4.5,4.1c0.3,2.4-1.7,4.8-4.2,4.9
		c-4,0-8,0-12,0c-2.2,0.1-4.2-1.7-4.4-3.9C1.8,153.7,3.4,151.4,5.6,151z"/>
	<path class="st0" d="M33.3,167c1.2-0.2,2.4-0.1,3.5,0.5c1.7,1,2.6,3.2,2,5.1c-0.3,1-1,1.8-1.8,2.6c-2.5,2.5-5.1,5-7.6,7.5
		c-0.9,0.9-2.1,1.4-3.4,1.4c-2.2,0-4.1-1.8-4.3-3.9c-0.2-1.4,0.3-2.8,1.3-3.8c2.6-2.6,5.2-5.2,7.9-7.8
		C31.5,167.8,32.3,167.2,33.3,167z"/>
</g>
</svg>
