<?xml version="1.0" encoding="utf-8"?>
<!-- Generator: Adobe Illustrator 19.1.0, SVG Export Plug-In . SVG Version: 6.00 Build 0)  -->
<svg version="1.1" id="Layer_1" xmlns="http://www.w3.org/2000/svg" xmlns:xlink="http://www.w3.org/1999/xlink" x="0px" y="0px"
	 viewBox="0 0 77.9 84.6" style="enable-background:new 0 0 77.9 84.6;" xml:space="preserve">
<style type="text/css">
	.st0{clip-path:url(#SVGID_2_);fill:none;stroke:#989898;stroke-miterlimit:10;}
</style>
<g>
	<defs>
		<rect id="SVGID_1_" y="0" width="77.9" height="84.6"/>
	</defs>
	<clipPath id="SVGID_2_">
		<use xlink:href="#SVGID_1_"  style="overflow:visible;"/>
	</clipPath>
	<path class="st0" d="M42.2,22.6c0,1.8,0,3.6,0,5.3"/>
	<path class="st0" d="M31.5,24c0.9,1.6,1.7,3.2,2.6,4.8"/>
	<path class="st0" d="M52.3,25.4c-0.9,1.6-1.7,3.2-2.6,4.9"/>
	<path class="st0" d="M23.2,30.3c1.5,1.2,3.1,2.3,4.7,3.4"/>
	<path class="st0" d="M59.8,32.7c-1.6,1.1-3.1,2.3-4.7,3.4"/>
	<path class="st0" d="M34.6,60c0-2.3-1-4.3-2.1-6.3c-1.4-2.5-3.1-4.9-3.8-7.8c-0.8-3.2-0.5-6.7,1.3-9.5c1.6-2.7,4.6-4.5,7.6-5.2
		c3.5-0.7,7.4-0.2,10.4,1.8c2.8,1.8,4.6,5.1,4.8,8.4c0.3,2.9-0.5,5.8-1.9,8.4c-1.7,3.3-4.3,6.3-4.3,10.1"/>
	<path class="st0" d="M19.1,40.9c2,0,4,0,6.1,0"/>
	<path class="st0" d="M62.2,43.8c-2,0-4,0-6,0"/>
	<path class="st0" d="M27.4,51.7c-1.8,0.8-3.6,1.6-5.3,2.4"/>
	<path class="st0" d="M59.3,54.1c-1.8-0.7-3.5-1.4-5.3-2.1"/>
	<path class="st0" d="M48.3,81.3l20.9-12c5.1-2.9,8.2-8.4,8.2-14.2V29.6c0-5.9-3.1-11.3-8.2-14.2l-22-12.7c-5.1-2.9-11.3-2.9-16.4,0
		l-22,12.7c-5.1,2.9-8.2,8.4-8.2,14.2v25.4c0,5.9,3.1,11.3,8.2,14.2l4.6,2.7c9.1,5.2,20.4,4.5,28.6-1.9c1-0.6,1.8-1.5,2.7-2.3
		c-2.7,0-5.4,0-8.1,0"/>
	<line class="st0" x1="34.3" y1="61.2" x2="46.7" y2="61.2"/>
	<line class="st0" x1="36.1" y1="64.1" x2="45.9" y2="64.1"/>
	<path class="st0" d="M25.5,78.8l5.3,3.1c5.1,2.9,11.3,2.9,16.4,0l22-12.7"/>
</g>
</svg>
