<?xml version="1.0" encoding="utf-8"?>
<!-- Generator: Adobe Illustrator 19.1.0, SVG Export Plug-In . SVG Version: 6.00 Build 0)  -->
<svg version="1.1" id="Layer_1" xmlns="http://www.w3.org/2000/svg" xmlns:xlink="http://www.w3.org/1999/xlink" x="0px" y="0px"
	 viewBox="0 0 345.5 414.5" style="enable-background:new 0 0 345.5 414.5;" xml:space="preserve">
<style type="text/css">
	.st0{opacity:0.25;fill:#5B5A5A;}
	.st1{fill:none;stroke:#5B5A5A;stroke-width:2;stroke-miterlimit:10.43;}
</style>
<polygon class="st0" points="263,102.4 197,64.3 131,102.4 131,178.6 197,216.7 263,178.6 "/>
<polygon class="st1" points="263,102.4 197,64.3 131,102.4 131,178.6 197,216.7 263,178.6 "/>
<polygon class="st1" points="189,234.4 123,196.3 57,234.4 57,310.6 123,348.7 189,310.6 "/>
<polygon class="st1" points="343,234.4 277,196.3 211,234.4 211,310.6 277,348.7 343,310.6 "/>
<line class="st1" x1="276.5" y1="349" x2="276.5" y2="412"/>
<line class="st1" x1="196.5" y1="2.5" x2="196.5" y2="65.5"/>
<line class="st1" x1="57.2" y1="310.8" x2="3.8" y2="344.2"/>
<line class="st1" x1="4.8" y1="201.8" x2="58.2" y2="235.2"/>
</svg>
