<?xml version="1.0" encoding="utf-8"?>
<!-- Generator: Adobe Illustrator 19.1.0, SVG Export Plug-In . SVG Version: 6.00 Build 0)  -->
<svg version="1.1" id="Layer_1" xmlns="http://www.w3.org/2000/svg" xmlns:xlink="http://www.w3.org/1999/xlink" x="0px" y="0px"
	 viewBox="0 0 77.9 84.7" style="enable-background:new 0 0 77.9 84.7;" xml:space="preserve">
<style type="text/css">
	.st0{clip-path:url(#SVGID_2_);fill:none;stroke:#989898;stroke-miterlimit:10;}
</style>
<g>
	<defs>
		<rect id="SVGID_1_" y="0" width="77.9" height="84.7"/>
	</defs>
	<clipPath id="SVGID_2_">
		<use xlink:href="#SVGID_1_"  style="overflow:visible;"/>
	</clipPath>
	<path class="st0" d="M56,76.9l13.2-7.6c5.1-2.9,8.2-8.4,8.2-14.2V29.6c0-5.9-3.1-11.3-8.2-14.2l-22-12.7c-5.1-2.9-11.3-2.9-16.4,0
		l-22,12.7c-5.1,2.9-8.2,8.4-8.2,14.2v25.4c0,5.9,3.1,11.3,8.2,14.2l13,7.6"/>
	<circle class="st0" cx="39" cy="35.7" r="10.8"/>
	<path class="st0" d="M24.8,64.2C22,70.8,24.5,78.4,30.7,82c5.1,2.9,11.3,2.9,16.4,0c6.3-3.6,8.8-11.3,6-17.9l-7-16.3
		c-2.1,1.2-4.5,2-7.2,2c-2.6,0-5.1-0.7-7.1-1.9L24.8,64.2z"/>
</g>
</svg>
