<?xml version="1.0" encoding="utf-8"?>
<!-- Generator: Adobe Illustrator 16.0.0, SVG Export Plug-In . SVG Version: 6.00 Build 0)  -->
<!DOCTYPE svg PUBLIC "-//W3C//DTD SVG 1.1//EN" "http://www.w3.org/Graphics/SVG/1.1/DTD/svg11.dtd">
<svg version="1.1" id="Layer_1" xmlns="http://www.w3.org/2000/svg" xmlns:xlink="http://www.w3.org/1999/xlink" x="0px" y="0px"
	 width="174.884px" height="142.338px" viewBox="0 0 174.884 142.338" enable-background="new 0 0 174.884 142.338"
	 xml:space="preserve">
<g>
	<defs>
		<rect id="SVGID_1_" width="174.884" height="142.338"/>
	</defs>
	<clipPath id="SVGID_2_">
		<use xlink:href="#SVGID_1_"  overflow="visible"/>
	</clipPath>
	<path clip-path="url(#SVGID_2_)" fill="none" stroke="#989898" stroke-miterlimit="10" d="M0.958,47.513
		c0.548-0.342,0.917-0.599,1.31-0.813C30.168,31.472,58.077,16.257,85.961,0.998c1.232-0.674,2.156-0.658,3.379,0.012
		c27.886,15.256,55.792,30.477,83.707,45.679c0.938,0.512,1.338,1.063,1.336,2.186c-0.029,14.647-0.038,29.292-0.024,43.94
		c0.01,8.726-7.079,15.768-15.805,15.753h-0.129c-0.001-16.665,0-33.33,0-49.995v-2.11c-0.627,0.286-1.079,0.459-1.5,0.689
		c-19.983,10.878-39.962,21.76-59.943,32.642c-2.658,1.448-5.338,2.858-7.967,4.357c-0.96,0.547-1.725,0.563-2.718,0.018
		C71.781,86.21,57.24,78.294,42.708,70.365C29.171,62.979,15.637,55.589,2.103,48.2C1.787,48.027,1.483,47.829,0.958,47.513z"/>
	<path clip-path="url(#SVGID_2_)" fill="none" stroke="#989898" stroke-miterlimit="10" d="M32.405,110.343
		c0.068-13.482,14.49-22.025,26.338-15.592c10.312,5.601,21.183,11.511,27.701,15.072c1.003,0.548,1.72,0.357,2.602-0.123
		c7.282-3.962,17.771-9.655,27.558-14.961c11.823-6.409,26.209,2.114,26.27,15.563l0.002,0.285c0.005,1.133-0.316,1.782-1.34,2.337
		c-17.519,9.47-35.02,18.972-52.505,28.498c-0.983,0.535-1.739,0.566-2.741,0.021c-17.486-9.53-34.988-19.029-52.503-28.502
		c-0.996-0.539-1.389-1.147-1.383-2.312C32.404,110.534,32.404,110.439,32.405,110.343z"/>
</g>
</svg>
