<?xml version="1.0" encoding="utf-8"?>
<!-- Generator: Adobe Illustrator 19.1.0, SVG Export Plug-In . SVG Version: 6.00 Build 0)  -->
<svg version="1.1" id="Layer_1" xmlns="http://www.w3.org/2000/svg" xmlns:xlink="http://www.w3.org/1999/xlink" x="0px" y="0px"
	 viewBox="0 0 203.9 178.8" style="enable-background:new 0 0 203.9 178.8;" xml:space="preserve">
<style type="text/css">
	.st0{clip-path:url(#SVGID_2_);fill:none;stroke:#000000;stroke-width:2;stroke-miterlimit:10.43;}
</style>
<g>
	<defs>
		<rect id="SVGID_1_" width="203.9" height="178.8"/>
	</defs>
	<clipPath id="SVGID_2_">
		<use xlink:href="#SVGID_1_"  style="overflow:visible;"/>
	</clipPath>
	<path class="st0" d="M163.9,1.1c1.3-0.3,2.8-0.1,3.8,0.8c1.4,1.1,1.9,3.2,1.2,4.9c-0.8,1.9-3,3-5,2.4c-2-0.5-3.4-2.6-3.1-4.6
		C161.1,3,162.3,1.6,163.9,1.1z"/>
	<path class="st0" d="M180.7,9.6c1.1-0.3,2.4-0.2,3.4,0.5c1.6,1,2.4,3.3,1.7,5.1c-0.7,1.9-3,3.2-5,2.6c-1.9-0.4-3.4-2.4-3.2-4.4
		C177.8,11.6,179,10,180.7,9.6z"/>
	<path class="st0" d="M43.1,25.7c10.5-5.2,22.2-7.9,34-7.8c10.9,0,21.8,2.4,31.7,7.1c14.4,6.7,26.5,18.1,34.2,32
		c0-0.1,0.1-0.2,0.1-0.3c0.6-0.3,1.1-0.6,1.6-0.9c0.6-0.3,1.3-0.6,1.9-0.9c0.5-0.2,1-0.4,1.5-0.6c0.2-0.1,0.5-0.2,0.7-0.3
		c0.2-0.1,0.5-0.2,0.7-0.3c0.3-0.1,0.5-0.2,0.8-0.2c0.6-0.2,1.3-0.4,1.9-0.5c0.2-1.9,0-3.8,0.1-5.6c-0.5-0.1-1-0.2-1.5-0.4
		c-1.7-0.7-2.9-2.6-2.6-4.4c0.2-1.6,1.3-2.8,2.6-3.5c1.8-0.4,3.6,0,5.4-0.3c1.3,0.2,2.6,0,4,0.1c1.4,0,2.8,0.1,4.2-0.1
		c3,0.2,6.1,0,9.2,0.1c0.9,0.1,1.8-0.2,2.7,0c0.9,0,1.8,0,2.7,0.2c1.7,0.7,2.9,2.4,2.7,4.3c-0.1,1.7-1.3,3.2-2.9,3.8
		c-0.4,0-0.8,0.1-1.3,0.1c-0.1,1.9-0.1,3.8,0,5.8c0.4,0.1,0.8,0.1,1.1,0.2c0.3,0.1,0.5,0.2,0.8,0.3c1.1,0.3,2.2,0.7,3.2,1.1
		c0.4,0.2,0.8,0.4,1.2,0.5c0.2,0.1,0.3,0.2,0.5,0.2c0.1,0.1,0.4,0.2,0.5,0.2c3.4,1.7,6.6,4.1,9,7.1c2.8,3.5,4.4,8,4.6,12.5
		c0.3,5.2-1,10.4-3.7,14.9c-0.2,0.4-0.3,0.8-0.2,1.2c2.7,23,5.4,46.1,8.1,69.1c0,5.5-2.3,11.2-6.9,14.4c-2.8,2-6.3,2.9-9.7,2.9
		c-13.5,0-26.9,0-40.4,0c-1.8,0-3.6,0.1-5.4-0.3c-3.9-0.8-7.5-3.3-9.7-6.6c-2-2.9-3.2-6.4-3.6-9.9c0.4-4.1,1-8.2,1.4-12.3
		c-5.3,5.2-11.5,9.4-18.1,12.7c-18.6,9.4-41.2,10.5-60.7,3c-17.9-6.8-33-20.7-41.3-38c-9.1-18.8-9.9-41.4-2.2-60.8
		C13.1,48.4,26.5,33.9,43.1,25.7z M160.8,47.4c0,1.4,0,2.9,0,4.3c2.8-0.1,5.6-0.1,8.4,0c0-1.4,0-2.9,0-4.3H160.8z M158.1,60.4
		c-0.5,0.1-1,0.1-1.5,0.2c-0.4,0.1-0.8,0.1-1.2,0.2c-0.3,0.1-0.7,0.1-1,0.2c-0.3,0.1-0.7,0.2-1,0.3c-0.1,0-0.4,0.1-0.5,0.1
		c-0.3,0.1-0.5,0.2-0.7,0.3c-0.3,0.1-0.6,0.2-0.9,0.3c-0.4,0.2-0.8,0.3-1.3,0.5c-0.8,0.4-1.7,0.8-2.5,1.3c-1.3,0.8-2.5,1.6-3.5,2.7
		c-2.3,2.2-3.7,5.3-4,8.5c-0.5,4.5,0.9,9,3.6,12.6c0.3,0.5,0.8,0.9,0.6,1.5c-0.5,4.3-1,8.5-1.5,12.8c15,0,30,0,45,0
		c-0.5-4.5-1-8.9-1.6-13.4c1.2-1.7,2.3-3.3,3-5.2c1.7-4.1,1.9-9-0.1-13.1c-1.6-3.3-4.5-5.6-7.7-7.2c-0.6-0.2-1.1-0.5-1.7-0.8
		c-0.4-0.1-0.7-0.3-1.1-0.4c-0.2-0.1-0.5-0.2-0.7-0.2c-0.3-0.1-0.7-0.2-1-0.3c-2.1-0.6-4.3-1-6.5-1.2c-1.8-0.3-3.6-0.2-5.4-0.2
		c-1.6,0-3.3-0.1-4.9,0.2C159.2,60.3,158.6,60.3,158.1,60.4z M141.6,110.4c-1,8.4-2,16.8-3,25.3c17.6,0,35.3,0,52.9,0
		c-1-8.4-1.9-16.9-3-25.3C172.8,110.4,157.2,110.4,141.6,110.4z M135.7,160.3c-0.1,1,0.3,2,0.6,2.9c0.8,2.3,2.3,4.7,4.7,5.7
		c1.1,0.5,2.4,0.5,3.7,0.5c13.9,0,27.7,0,41.6,0c1.2,0,2.3-0.1,3.4-0.6c1.9-0.7,3.2-2.3,4-4.1c0.6-1.5,1-3.1,0.7-4.6
		c-0.7-5.3-1.2-10.6-1.9-16c-18.3,0-36.5,0-54.8,0C137,149.5,136.4,154.9,135.7,160.3z"/>
	<path class="st0" d="M144,22c-0.1-2.3,2.1-4.4,4.4-4.2c2.5,0,4.5,2.7,3.9,5.1c-0.5,2.4-3.2,3.9-5.5,3.1C145.2,25.4,144,23.8,144,22
		z"/>
	<path class="st0" d="M163.2,26.7c0.9-0.5,2-0.4,3.1-0.3c1.6,0.6,2.9,2.1,2.9,3.8c0.2,2.3-1.9,4.6-4.2,4.4c-2.1,0.1-3.9-1.6-4.1-3.6
		C160.6,29.2,161.6,27.4,163.2,26.7z"/>
	<path class="st0" d="M72.4,60.2c-0.5,0.1-1,0.1-1.5,0.2c-0.4,0.1-0.8,0.1-1.3,0.2c-0.4,0.1-0.8,0.2-1.2,0.3
		c-0.3,0.1-0.5,0.1-0.8,0.2c-0.3,0.1-0.6,0.2-1,0.3c-0.2,0.1-0.5,0.2-0.7,0.3c-0.4,0.1-0.7,0.2-1,0.4c-0.4,0.2-0.8,0.3-1.2,0.5
		c-0.6,0.3-1.1,0.5-1.7,0.8c-0.7,0.3-1.3,0.7-2,1.1c-8.3,4.8-14.4,13.1-16.2,22.5c-1.3,6.4-0.7,13.2,1.8,19.2
		c3.3,8.2,9.9,14.9,17.9,18.4c0.5,0.2,1,0.4,1.4,0.6c0.9,0.3,1.8,0.6,2.8,0.9c0.3,0.1,0.7,0.2,1,0.2c0.3,0.1,0.7,0.2,1,0.2
		c1,0.2,2,0.4,3,0.5c1.3,0.3,2.6,0.1,3.9,0.3c1.3-0.2,2.7-0.1,4.1-0.2l0-0.1c0.6,0,1.2-0.1,1.8-0.2c0.4-0.1,0.8-0.1,1.3-0.2
		c0.7-0.1,1.3-0.3,2-0.5c0.3-0.1,0.6-0.2,1-0.3c0.2-0.1,0.5-0.2,0.7-0.3c0.3-0.1,0.7-0.2,1-0.4c0.4-0.2,0.8-0.3,1.2-0.5
		c0.6-0.3,1.1-0.5,1.7-0.8c0.8-0.4,1.7-0.9,2.5-1.3c6.3-3.8,11.3-9.6,14.1-16.4c3.2-7.9,3.2-17,0.1-24.9
		c-2.9-7.4-8.5-13.7-15.6-17.4c-0.5-0.2-1-0.5-1.5-0.7c-0.6-0.3-1.2-0.5-1.7-0.8c-0.4-0.1-0.7-0.3-1-0.4c-0.2-0.1-0.5-0.2-0.7-0.3
		c-0.2-0.1-0.5-0.2-0.7-0.2c-0.6-0.2-1.2-0.3-1.7-0.5c-0.8-0.2-1.6-0.4-2.5-0.5c-0.5-0.1-1-0.2-1.5-0.2C79.9,60,78.8,60,77.7,60
		c-0.6-0.1-1.3-0.2-1.9,0C74.7,60,73.5,60,72.4,60.2z"/>
</g>
</svg>
