<svg xmlns="http://www.w3.org/2000/svg" xmlns:xlink="http://www.w3.org/1999/xlink" version="1.1" id="Layer_1" x="0px" y="0px" viewBox="0 0 472.7 646.6" xml:space="preserve" enable-background="new 0 0 472.7 646.6">
  <style type="text/css">
    
	.st0{opacity:0.65;}
	.st1{clip-path:url(#SVGID_2_);fill:#000;}

  </style>
  <g class="st0">
    <defs>
      <rect id="SVGID_1_" class="st0" width="472.7" height="646.6"/>
    </defs>
    <clipPath id="SVGID_2_">
      <use xlink:href="#SVGID_1_" overflow="visible"/>
    </clipPath>
    <path class="st1" d="M236.4 0C106 0 0 106 0 236.4c0 94.4 119.8 264.8 191.2 358l10.6 13.8 46.5-63.9 -15-23.5 -32 44C141.1 485 26 321.1 26 236.4 26 120.3 120.3 26 236.4 26s210.4 94.4 210.4 210.4c0 117.3-218.2 383.5-220.4 386.2l15.6 24c9.2-11.2 230.8-283.6 230.8-410.2C472.7 106 366.7 0 236.4 0"/>
    <path class="st1" d="M236.4 323.6c-35.4 0-67.3-21.1-81-53.8L131.4 280c17.9 42.3 59.1 69.6 105 69.6 62.8 0 113.9-51.1 113.9-113.9s-51.1-113.9-113.9-113.9c-44.8 0-84.5 25.9-103 65.1l-13.3-14.6 -33.2 2.3 58.4 62.6 5.7-22.9c9.8-39.2 44.9-66.5 85.3-66.5 48.5 0 87.9 39.4 87.9 87.9S284.9 323.6 236.4 323.6"/>
  </g>
</svg>