<?xml version="1.0" encoding="utf-8"?>
<!-- Generator: Adobe Illustrator 19.1.0, SVG Export Plug-In . SVG Version: 6.00 Build 0)  -->
<svg version="1.1" id="Layer_1" xmlns="http://www.w3.org/2000/svg" xmlns:xlink="http://www.w3.org/1999/xlink" x="0px" y="0px"
	 viewBox="0 0 86.9 84.2" style="enable-background:new 0 0 86.9 84.2;" xml:space="preserve">
<style type="text/css">
	.st0{clip-path:url(#SVGID_2_);fill:none;stroke:#989898;stroke-miterlimit:10;}
</style>
<g>
	<defs>
		<rect id="SVGID_1_" y="0" width="86.9" height="84.2"/>
	</defs>
	<clipPath id="SVGID_2_">
		<use xlink:href="#SVGID_1_"  style="overflow:visible;"/>
	</clipPath>
	<path class="st0" d="M46.5,0c0,3.6,0,7.2,0,10.8"/>
	<path class="st0" d="M25.1,2.9c1.9,3.2,3.5,6.5,5.3,9.8"/>
	<path class="st0" d="M67,5.7c-1.7,3.3-3.5,6.5-5.3,9.8"/>
	<path class="st0" d="M8.2,15.5c3,2.5,6.3,4.6,9.5,6.9"/>
	<path class="st0" d="M82.2,20.5c-3.2,2.3-6.3,4.6-9.5,6.8"/>
	<path class="st0" d="M31.3,75.6c0-4.6-2-8.8-4.2-12.7c-2.9-5-6.2-10-7.7-15.7c-1.6-6.4-0.9-13.6,2.6-19.3
		c3.3-5.5,9.2-9.1,15.4-10.4c7.1-1.5,14.9-0.4,21.1,3.7c5.7,3.7,9.4,10.2,9.8,17c0.6,5.9-1,11.8-3.9,16.9
		c-3.3,6.6-8.6,12.7-8.7,20.4"/>
	<path class="st0" d="M0,37c4.1,0,8.2,0,12.3,0"/>
	<path class="st0" d="M86.9,42.9c-4.1,0-8.1,0-12.2,0"/>
	<path class="st0" d="M16.7,58.7c-3.6,1.5-7.2,3.2-10.7,4.8"/>
	<path class="st0" d="M81.1,63.5c-3.6-1.4-7.1-2.9-10.7-4.3"/>
	<line class="st0" x1="30.8" y1="77.9" x2="55.7" y2="77.9"/>
	<line class="st0" x1="34.3" y1="83.7" x2="54.2" y2="83.7"/>
	<circle class="st0" cx="43.4" cy="42.9" r="4.5"/>
	<circle class="st0" cx="43.6" cy="29.6" r="2.5"/>
	<circle class="st0" cx="55.8" cy="49.2" r="2.5"/>
	<circle class="st0" cx="31.2" cy="49.2" r="2.5"/>
	<line class="st0" x1="43.4" y1="47.4" x2="43.4" y2="77.9"/>
	<line class="st0" x1="33.5" y1="48.2" x2="39.5" y2="45.1"/>
	<line class="st0" x1="47.4" y1="45.1" x2="53.7" y2="48.2"/>
	<line class="st0" x1="43.6" y1="32.1" x2="43.4" y2="38.4"/>
</g>
</svg>
