<svg xmlns="http://www.w3.org/2000/svg" xmlns:xlink="http://www.w3.org/1999/xlink" version="1.1" id="Layer_1" x="0px" y="0px" viewBox="0 0 576.4 642.4" xml:space="preserve" enable-background="new 0 0 576.4 642.4">
  <style type="text/css">
    
	.st0{opacity:0.65;}
	.st1{clip-path:url(#SVGID_2_);fill:#000;}

  </style>
  <g class="st0">
    <defs>
      <rect id="SVGID_1_" class="st0" width="576.4" height="642.4"/>
    </defs>
    <clipPath id="SVGID_2_">
      <use xlink:href="#SVGID_1_" overflow="visible"/>
    </clipPath>
    <path class="st1" d="M514.1 131.7L404.6 66.4l-13.3 22.3L500.8 154c31.1 18.6 50.1 52.6 49.6 88.9l-2.7 183.8c-0.5 36.2-20.5 69.7-52.2 87.4l-160.5 89.6c-31.6 17.7-70.6 17.1-101.8-1.5L75.6 508c-31.1-18.6-50.1-52.6-49.6-88.9l2.7-183.8c0.5-36.2 20.5-69.7 52.2-87.4l136.6-76.3L204.8 49 68.1 125.3C28.4 147.4 3.3 189.5 2.7 235L0 418.7c-0.7 45.5 23.2 88.2 62.3 111.5l157.8 94.2c20.1 12 42.8 18 65.5 18 21.5 0 42.9-5.4 62.2-16.2l160.5-89.6c39.7-22.2 64.8-64.2 65.5-109.7l2.7-183.8C577.1 197.8 553.2 155 514.1 131.7"/>
    <path class="st1" d="M164 256.9c-40.7 68.2-18.3 156.7 49.8 197.4 22.6 13.5 47.8 20.4 73.5 20.4 11.8 0 23.7-1.5 35.5-4.4 37.3-9.4 68.6-32.8 88.3-65.8 40.7-68.2 18.3-156.7-49.8-197.3 -33-19.7-71.7-25.4-109-15.9C215 200.5 183.7 223.9 164 256.9M287.8 212.6c21 0 41.7 5.7 60.2 16.7 55.9 33.3 74.2 105.9 40.9 161.8 -16.1 27.1-41.9 46.2-72.4 53.9 -30.6 7.7-62.3 3.1-89.3-13.1 -55.9-33.3-74.2-105.9-40.9-161.8 16.1-27.1 41.9-46.2 72.4-53.9C268.3 213.8 278.1 212.6 287.8 212.6"/>
    <path class="st1" d="M351.7 67.7c-3.5 6.8-11.9 9.4-18.7 5.9C321.1 67.3 309.3 61 297.4 55c2.2 16.2 11.8 31.6 26.6 39.1 17.2 9.4 39.4 6.9 54.7-5.2l18.4-35.3c0.4-11.1-2.2-22.3-8.5-31.5C379.4 8.1 362.6-0.6 345.7 0c-8 0.1-15.7 2.8-22.9 6 11.8 6.3 23.7 12.5 35.6 18.7 6.8 3.5 9.4 11.9 5.9 18.7L351.7 67.7z"/>
    <path class="st1" d="M251.2 70.6c17.3 0 31.4-14.1 31.4-31.4 0-17.3-14.1-31.4-31.4-31.4 -17.3 0-31.4 14.1-31.4 31.4C219.8 56.5 233.9 70.6 251.2 70.6M251.2 33.7c3 0 5.4 2.4 5.4 5.4 0 3-2.4 5.4-5.4 5.4 -3 0-5.4-2.4-5.4-5.4C245.8 36.2 248.2 33.7 251.2 33.7"/>
  </g>
</svg>