<?xml version="1.0" encoding="utf-8"?>
<!-- Generator: Adobe Illustrator 19.1.0, SVG Export Plug-In . SVG Version: 6.00 Build 0)  -->
<svg version="1.1" id="Layer_1" xmlns="http://www.w3.org/2000/svg" xmlns:xlink="http://www.w3.org/1999/xlink" x="0px" y="0px"
	 viewBox="0 0 73.5 80.3" style="enable-background:new 0 0 73.5 80.3;" xml:space="preserve">
<style type="text/css">
	.st0{clip-path:url(#SVGID_2_);fill:#F1F0F2;}
</style>
<g>
	<defs>
		<rect id="SVGID_1_" y="0" width="73.5" height="80.3"/>
	</defs>
	<clipPath id="SVGID_2_">
		<use xlink:href="#SVGID_1_"  style="overflow:visible;"/>
	</clipPath>
	<path class="st0" d="M65,15.3L46.3,4c-0.1-0.1-0.2-0.1-0.3-0.2c0.1,1.1,0.1,2.3-0.2,3.4l17.6,10.7c4.5,2.7,7.2,7.6,7,12.8
		l-0.5,21.8c-0.1,5.2-3,10-7.6,12.5L43.3,75.5c-4.6,2.5-10.2,2.4-14.6-0.3L10,63.9c-4.5-2.7-7.2-7.6-7-12.8l0.5-21.8
		c0.1-5.2,3-10,7.6-12.5l18.1-10c-0.2-1.1-0.2-2.3-0.1-3.4c-0.1,0.1-0.3,0.1-0.4,0.2L9.6,14.1c-5.5,3-9,8.8-9.1,15.1L0,51
		c-0.1,6.3,3.1,12.2,8.5,15.4l18.7,11.3c2.8,1.7,6,2.5,9.1,2.5c2.9,0,5.9-0.7,8.5-2.2l19.1-10.5c5.5-3,9-8.8,9.1-15.1l0.5-21.8
		C73.6,24.4,70.4,18.5,65,15.3"/>
	<path class="st0" d="M49,22.9c-0.1-0.3-0.3-0.6-0.4-0.9c-0.3-0.6-0.7-1.2-1.2-1.7c-0.2-0.3-0.5-0.5-0.8-0.8c0,0,0,0,0,0
		c-0.3-0.2-0.5-0.5-0.9-0.7c-0.3-0.2-0.6-0.4-1-0.6c-0.2-0.1-0.4-0.2-0.6-0.3c-0.2-0.1-0.4-0.2-0.6-0.3l-0.3-0.1c0,0,0,0,0,0
		c-0.1,0-0.1-0.1-0.2-0.1l-1-0.3L42,17.7c0,0,0,0,0,0l0,0.4c-0.1,1.3,0,2.5,0.2,3.7c0.3,1.1,0.6,2.3,1.1,3.3c0.4,1,1,1.9,1.6,2.7
		c0.2,0.2,0.3,0.4,0.5,0.6c0.2,0.2,0.3,0.4,0.5,0.6c0.2,0.2,0.4,0.3,0.6,0.5c0.2,0.2,0.4,0.4,0.6,0.5l0.5,0.4l0.4-0.5
		c0.7-0.8,1.2-1.7,1.4-2.7c0.1-0.5,0.2-1.1,0.2-1.6c0-0.6-0.1-1.1-0.3-1.7C49.2,23.5,49.1,23.2,49,22.9"/>
	<path class="st0" d="M53.1,41.3l0.5,0c0.8-0.1,1.6-0.4,2.3-0.9c0.3-0.3,0.7-0.6,1-1c0.3-0.4,0.5-0.8,0.8-1.4c0.5-1,0.7-2.3,0.7-3.7
		c0-0.7-0.1-1.4-0.2-2.1c-0.2-0.7-0.4-1.5-0.7-2.2l-0.1-0.3l0,0c0-0.1-0.1-0.1-0.1-0.2l-0.5-0.8l-0.4,0.3l0,0l-0.3,0.2
		c-0.8,0.7-1.4,1.5-1.8,2.4c-0.5,0.9-0.8,1.9-1,2.9c-0.1,0.5-0.2,1-0.3,1.5c0,0.5-0.1,1-0.1,1.5c0,0.5,0,1,0,1.6
		c0.1,0.5,0.1,1.1,0.1,1.6L53.1,41.3z"/>
	<path class="st0" d="M51.5,50.5c-0.2,0.2-0.3,0.4-0.5,0.6c-0.2,0.2-0.4,0.4-0.5,0.6l-0.5,0.7c-0.2,0.2-0.4,0.4-0.6,0.7l-0.5,0.6
		l0.3,0.2c0.5,0.3,1,0.5,1.8,0.5c0.4,0,0.8-0.1,1.2-0.2c0.4-0.1,0.8-0.3,1.3-0.6c0.2-0.1,0.5-0.3,0.7-0.4c0.2-0.2,0.4-0.3,0.7-0.5
		c0.4-0.4,1-0.8,1.4-1.3c0.4-0.5,0.9-1,1.2-1.6c0.2-0.3,0.4-0.6,0.5-1c0,0,0,0,0,0c0.2-0.3,0.3-0.6,0.4-1l0.1-0.3v0
		c0-0.1,0-0.1,0.1-0.2l0.3-0.9l-0.4,0v0l-0.3,0c-0.8,0-1.6,0.2-2.3,0.6c-0.7,0.4-1.6,0.9-2.2,1.5C52.9,49,52.2,49.7,51.5,50.5"/>
	<path class="st0" d="M36.6,59.7c0.1,0.4,0.4,0.8,0.9,1.1c0.3,0.2,0.6,0.3,1,0.5c0.4,0.1,0.8,0.2,1.3,0.3c0.9,0.2,2.1,0.1,3.3,0
		c0.6-0.1,1.3-0.2,1.9-0.4c0.6-0.2,1.3-0.4,2-0.7l0.2-0.1l0,0c0.1,0,0.1-0.1,0.2-0.1l0.8-0.4L48,59.6l0,0l-0.1-0.1
		c-0.4-0.4-1-0.6-1.7-0.7c-0.7-0.1-1.5-0.1-2.4,0c-0.5,0-0.9,0.1-1.4,0.2c-0.5,0.1-1,0.1-1.6,0.2c-0.5,0.1-1.1,0.1-1.7,0.1
		c-0.6,0.1-1.2,0.1-1.8,0.1l-0.8,0L36.6,59.7z"/>
	<path class="st0" d="M23.8,56.8c0.2,0.3,0.4,0.7,0.7,1.1c0.1,0.2,0.3,0.4,0.5,0.6c0.2,0.2,0.4,0.4,0.6,0.5c0.4,0.4,0.8,0.8,1.3,1.1
		c1,0.7,2.2,1.3,3.6,1.8l0.3,0.1h0c0.1,0,0.1,0,0.2,0.1l0.8,0.2l0-0.2l0,0l0-0.1c0-0.4-0.3-0.9-0.8-1.4c-0.5-0.5-1-1.1-1.8-1.6
		c-0.7-0.6-1.5-1.2-2.4-1.9c-0.2-0.2-0.4-0.3-0.7-0.5c-0.2-0.2-0.4-0.4-0.7-0.6l-0.7-0.6l-0.7-0.6l-0.6-0.5l-0.1,0.2
		c-0.2,0.3-0.2,0.8-0.1,1.4C23.6,56.1,23.7,56.4,23.8,56.8"/>
	<path class="st0" d="M18.6,45.6c-0.1-0.5-0.1-1.1-0.2-1.7c-0.1-0.6-0.1-1.2-0.1-1.8l0-0.8l-0.2,0c-0.4,0.1-0.7,0.4-1,0.9
		c-0.1,0.3-0.3,0.6-0.4,1c-0.1,0.4-0.2,0.8-0.2,1.3c-0.1,0.9-0.1,2,0.1,3.2c0,0,0,0,0,0c0.1,0.6,0.3,1.2,0.5,1.8c0,0,0,0,0,0.1
		c0,0,0,0,0,0c0.2,0.6,0.5,1.2,0.8,1.8c0,0,0,0,0,0.1l0.1,0.2l0,0c0,0.1,0.1,0.1,0.1,0.2l0.4,0.7l0.1-0.1l0,0l0.1-0.1
		c0.3-0.3,0.4-0.8,0.4-1.5c0-0.7,0-1.5-0.2-2.4c0-0.5-0.1-0.9-0.2-1.4C18.7,46.7,18.7,46.1,18.6,45.6"/>
	<path class="st0" d="M21.2,30.9c0.2-0.2,0.4-0.4,0.6-0.7l0.6-0.7l0.6-0.7l0.5-0.6l-0.2-0.1C23,28,22.6,28,22.1,28.2
		c-0.3,0.1-0.6,0.2-0.9,0.4c-0.3,0.2-0.7,0.5-1,0.8c-0.2,0.2-0.4,0.3-0.6,0.5c-0.2,0.2-0.4,0.4-0.5,0.6c-0.3,0.4-0.8,0.8-1.1,1.4
		c-0.5,0.8-1,1.6-1.4,2.6c0,0,0,0,0,0c-0.1,0.3-0.2,0.6-0.3,0.9l-0.1,0.3l0,0c0,0.1,0,0.1-0.1,0.2l-0.2,0.8l0.2,0l0,0l0.1,0
		c0.4,0,0.8-0.3,1.2-0.8c0.4-0.5,1-1.1,1.5-1.8c0.6-0.7,1.1-1.6,1.8-2.4C20.9,31.3,21.1,31.1,21.2,30.9"/>
	<path class="st0" d="M26.6,22.9l-0.2,0.1l0,0c-0.1,0-0.1,0.1-0.2,0.1l-0.7,0.4l0.1,0.1l0,0l0.1,0.1c0.3,0.2,0.7,0.2,1.3,0.1
		c0.6-0.1,1.4-0.2,2.3-0.4c0.4-0.1,0.9-0.2,1.4-0.3c0.5-0.1,1-0.2,1.6-0.3c0.5-0.2,1.1-0.3,1.7-0.4c0.6-0.2,1.2-0.4,1.9-0.6l0.4-0.1
		c0.2-0.1,0.4-0.2,0.4-0.2l-0.1,0c0,0-0.1,0-0.3,0.1c-0.1,0-0.2,0-0.3,0c-0.1,0-0.2,0-0.4,0c-0.3,0-0.6,0-0.9-0.1
		c-0.4,0-0.8,0-1.2-0.1c-0.9-0.1-2,0-3.2,0.2c-0.6,0.1-1.2,0.3-1.8,0.5C27.8,22.4,27.2,22.6,26.6,22.9"/>
	<path class="st0" d="M34.1,9.4c2.5,0,3-1.1,3-3.1V3.1c0-2-0.5-3.1-3-3.1c-2.5,0-3,1.1-3,3.1v3.2C31.2,8.3,31.6,9.4,34.1,9.4
		 M32.3,3.1c0-1.4,0.1-2,1.8-2c1.7,0,1.8,0.6,1.8,2v3.2c0,1.4-0.1,2-1.8,2c-1.7,0-1.8-0.6-1.8-2V3.1z"/>
	<polygon class="st0" points="39.8,5.4 42.9,5.4 42.9,9.3 44,9.3 44,0.2 42.9,0.2 42.9,4.4 39.8,4.4 39.8,0.2 38.7,0.2 38.7,9.3 
		39.8,9.3 	"/>
</g>
</svg>
