<?xml version="1.0" encoding="utf-8"?>
<!-- Generator: Adobe Illustrator 19.1.0, SVG Export Plug-In . SVG Version: 6.00 Build 0)  -->
<svg version="1.1" id="Layer_1" xmlns="http://www.w3.org/2000/svg" xmlns:xlink="http://www.w3.org/1999/xlink" x="0px" y="0px"
	 viewBox="0 0 82.5 91.5" style="enable-background:new 0 0 82.5 91.5;" xml:space="preserve">
<style type="text/css">
	.st0{fill:none;stroke:#989898;stroke-miterlimit:10;}
</style>
<path class="st0" d="M16.9,31v26.2c0,11.7,6.3,22.6,16.4,28.5l0,0c5.1,2.9,11.3,2.9,16.4,0l22-12.7C76.9,70,80,64.6,80,58.7V33.3
	c0-5.9-3.1-11.3-8.2-14.2l-22-12.7c-5.1-2.9-11.3-2.9-16.4,0l-22,12.7C6.2,22,3.1,27.4,3.1,33.3v25.4c0,5.9,3.1,11.3,8.2,14.2
	l8.4,5.7"/>
<g>
	<path class="st0" d="M16.9,31.3c9.8,0,9.8,4,19.7,4s9.8-4,19.7-4"/>
</g>
<g>
	<path class="st0" d="M16.9,50c9.8,0,9.8,4,19.7,4s9.8-4,19.7-4"/>
</g>
<line class="st0" x1="55.7" y1="31.3" x2="55.7" y2="50.4"/>
</svg>
