<?xml version="1.0" encoding="utf-8"?>
<!-- Generator: Adobe Illustrator 19.1.0, SVG Export Plug-In . SVG Version: 6.00 Build 0)  -->
<svg version="1.1" id="Layer_1" xmlns="http://www.w3.org/2000/svg" xmlns:xlink="http://www.w3.org/1999/xlink" x="0px" y="0px"
	 viewBox="0 0 104.3 88.3" style="enable-background:new 0 0 104.3 88.3;" xml:space="preserve">
<style type="text/css">
	.st0{fill:none;stroke:#989898;stroke-miterlimit:10;}
	.st1{fill:none;stroke:#989898;stroke-linecap:round;stroke-linejoin:round;stroke-miterlimit:10;}
</style>
<g>
	<g>
		<path class="st0" d="M94.3,42.5c0,4.2-6.5,7.4-7.8,11.2c-1.3,3.9,2.1,10.3-0.3,13.6c-2.4,3.3-9.5,2.1-12.8,4.5
			c-3.3,2.4-4.3,9.6-8.2,10.8c-3.8,1.2-8.8-3.9-13-3.9s-9.2,5.2-13,3.9c-3.9-1.3-4.9-8.5-8.2-10.8c-3.3-2.4-10.4-1.1-12.8-4.5
			c-2.4-3.3,1-9.6-0.3-13.6c-1.2-3.8-7.8-6.9-7.8-11.2c0-4.2,6.5-7.4,7.8-11.2C19,27.4,15.7,21,18,17.7c2.4-3.3,9.5-2.1,12.8-4.5
			c3.3-2.4,4.3-9.6,8.2-10.8c3.8-1.2,8.8,3.9,13,3.9s9.2-5.2,13-3.9c3.9,1.3,4.9,8.5,8.2,10.8c3.3,2.4,10.4,1.1,12.8,4.5
			c2.4,3.3-1,9.6,0.3,13.6C87.7,35.1,94.3,38.2,94.3,42.5z"/>
	</g>
	<polyline class="st1" points="15.3,59.5 0,75.8 13.3,86.6 26,72.6 	"/>
	<polyline class="st1" points="88.9,59.5 104.3,75.8 90.9,86.6 78.3,72.6 	"/>
	<circle class="st0" cx="52.1" cy="42.5" r="22.1"/>
</g>
</svg>
