<?xml version="1.0" encoding="utf-8"?>
<!-- Generator: Adobe Illustrator 19.1.0, SVG Export Plug-In . SVG Version: 6.00 Build 0)  -->
<svg version="1.1" id="Layer_1" xmlns="http://www.w3.org/2000/svg" xmlns:xlink="http://www.w3.org/1999/xlink" x="0px" y="0px"
	 viewBox="0 0 323.6 131.1" style="enable-background:new 0 0 323.6 131.1;" xml:space="preserve">
<style type="text/css">
	.st0{opacity:0.24;clip-path:url(#SVGID_2_);fill:#3E3D3D;}
</style>
<g>
	<defs>
		<rect id="SVGID_1_" width="323.6" height="131.1"/>
	</defs>
	<clipPath id="SVGID_2_">
		<use xlink:href="#SVGID_1_"  style="overflow:visible;"/>
	</clipPath>
	<path class="st0" d="M0,0c42.7,0,85.5,0,128.2,0c10.7,0.1,21.6,1.4,31.5,5.7c18.9,7.9,32.1,25.9,36.8,45.5
		c10.6-17.1,21.5-34.1,32-51.2c5.5,0,11.1,0,16.6,0c-17.6,30.6-35.3,61.2-53.5,91.5c-9.3,15.5-22.5,29.8-39.9,35.9
		c-7.5,2.8-15.6,3.6-23.5,3.7c-15.2,0-30.3,0-45.5,0c0-26,0-52,0-78c5.1,0,10.1,0,15.2,0c0,20.7,0,41.5,0,62.2c10.8,0,21.5,0,32.3,0
		c14.5,0.5,28.9-5.9,39-16.2c9.2-9.4,13.7-22.9,13.1-35.9c0-13-5.8-25.9-15.8-34.4c-10.3-8.8-23.8-14.3-37.4-13.5
		c-38.2,0-76.4,0-114.6,0c0,38.6,0,77.2,0,115.8c-4.9,0-9.7,0-14.6,0C0,87.4,0,43.7,0,0"/>
	<path class="st0" d="M245.4,0c5.5,0,11.1,0,16.6,0c20.5,33.1,40.9,66.2,61.5,99.3c-3.2,5.3-6.4,10.5-9.6,15.8
		C291.2,76.7,268.2,38.4,245.4,0"/>
	<path class="st0" d="M175,131.1c23.5-38.5,46.8-77.1,70.3-115.6c19.3,31.2,38.5,62.5,57.8,93.7c-26.6-0.1-53.2,0-79.8,0
		c0.1-5.1,0.1-10.1,0-15.2c17.3,0,34.5-0.1,51.8,0.1c-9.9-16.1-19.7-32.3-29.8-48.3c-16.4,28.4-32.5,57.1-49,85.4
		C189.2,131,182.1,131.1,175,131.1"/>
	<path class="st0" d="M19.9,20.9c37.4,0,74.8,0,112.2,0c12.3,0.1,24.7,5,33.1,14.1c10.7,11.2,14.2,28.2,9.9,42.9
		c-4.9,17.4-21.9,30.6-40,31.1c-10.4,0-20.8,0-31.1,0V53c5.2,0,10.4,0,15.7,0c0,13.6,0,27.3,0,40.9c8-0.6,16.5,1.5,24-2.2
		c11.2-5.1,19.2-17.3,17.6-29.7c-1.4-14.3-14.9-25.6-29-25.8c-32.4-0.1-64.7,0-97.1-0.1c0,5.6,0,11.2,0,16.8c13.9,0,27.9,0,41.8,0
		c0,5.3,0,10.6,0.1,15.8c-19-0.1-38.1-0.1-57.1,0V20.9z"/>
	<path class="st0" d="M19.9,75.6c19,0,38.1,0,57.1,0c-0.1,5-0.1,10.1,0,15.1c-13.9-0.1-27.9,0-41.8,0c0,13.5,0,26.9,0,40.4
		c-5.1,0-10.2,0-15.3,0C19.9,112.6,20,94.1,19.9,75.6"/>
	<path class="st0" d="M223.4,115.2c30.2,0,60.4,0.1,90.6-0.1c-3.3,5.3-6.4,10.7-9.8,15.9c-26.9-0.1-53.9,0-80.8,0
		C223.3,125.8,223.4,120.5,223.4,115.2"/>
</g>
</svg>
