<?xml version="1.0" encoding="utf-8"?>
<!-- Generator: Adobe Illustrator 19.1.0, SVG Export Plug-In . SVG Version: 6.00 Build 0)  -->
<svg version="1.1" id="Layer_1" xmlns="http://www.w3.org/2000/svg" xmlns:xlink="http://www.w3.org/1999/xlink" x="0px" y="0px"
	 viewBox="0 0 53 91" style="enable-background:new 0 0 53 91;" xml:space="preserve">
<style type="text/css">
	.st0{fill:none;stroke:#000000;stroke-miterlimit:10.43;}
</style>
<g>
	<path class="st0" d="M12.3,13.8c-2.1,1.9-3.4,4.6-3.6,7.3c0,0.3,0,0.6-0.1,0.8c-0.1,0.3-0.5,0.5-0.8,0.6c-1,0.1-2.1-0.1-3.1,0.2
		c-1.4,0.4-2.6,1.3-3.2,2.6c-0.6,1.2-0.8,2.7-0.3,4c0.4,1.2,1.3,2.2,2.4,2.8c0.2,0.1,0.4,0.2,0.7,0.3c0.1,0,0.2,0.1,0.3,0.1
		c0.1,0,0.2,0.1,0.3,0.1c0.2,0,0.3,0,0.5,0.1c1.7,0.1,3.4,0,5,0h27.3c1.8,0,3.7,0,5.5,0c0.2,0,0.3-0.1,0.5-0.1
		c0.1,0,0.2-0.1,0.3-0.1c0.1,0,0.2-0.1,0.3-0.1c1.4-0.5,2.5-1.6,3-2.9c0.5-1.4,0.4-3-0.3-4.3c-0.6-1.2-1.8-2.1-3.1-2.4
		c-1-0.3-2.1-0.2-3.2-0.2c-0.5-0.1-0.9-0.5-0.9-1c-0.1-1.4-0.6-2.7-1.4-3.8c-1.1-1.3-2.6-2.2-4.3-2.4c-1.3-0.2-2.7,0.1-3.9,0.7
		c-0.3,0.2-0.7,0.3-1,0.1c-0.3-0.1-0.5-0.4-0.7-0.6c-2.1-2.9-5.6-4.6-9.1-4.5C16.8,11.1,14.2,12.1,12.3,13.8z M6.5,35
		c0,12.5,0,25,0,37.5c0,2.3,1.1,4.5,2.9,5.8c1.3,1,3,1.6,4.7,1.6c1.2,0,2.5,0,3.7,0c0.2,0,0.3,0,0.5,0c0.9,0,1.7,0,2.6,0
		c0.5,0,0.9,0,1.4,0c0.2,0,0.3,0,0.5,0c1.3,0,2.6,0,3.9,0c2.4,0,4.8,0,7.2,0c0.6,0,1.3,0,1.9-0.1c0.9-0.1,1.8-0.4,2.6-0.9
		c1.9-1.1,3.3-3,3.7-5.1c0.2-0.9,0.1-1.7,0.1-2.6c0-12.1,0-24.2,0-36.3C30.3,35,18.4,35,6.5,35z M44.4,46.4v17c1.1,0,2.3,0,3.4,0
		c0.3,0,0.6,0,0.8-0.1c0.1,0,0.3-0.1,0.4-0.1c0.2-0.1,0.3-0.1,0.5-0.2c1.5-0.6,2.5-2.1,2.5-3.7c0-3.5,0-7,0-10.5
		c0-1.4-0.8-2.7-2-3.5c-0.2-0.1-0.3-0.2-0.5-0.2c-0.1,0-0.3-0.1-0.4-0.2c-0.1,0-0.2,0-0.3,0l0-0.1c-0.3,0-0.6-0.1-0.9-0.1
		c-1.2,0-2.4,0-3.6,0C44.4,45.4,44.4,45.9,44.4,46.4z"/>
	<path class="st0" d="M15.3,42.6C15.3,42.6,15.3,42.6,15.3,42.6c0.1,0.3,0.1,0.7,0.1,1.1v26.5c0,0.2,0,0.5,0,0.7c0,0.5,0,0.9,0,0.9
		c0,0,0-0.5,0-1.1c0-9,0-18,0-27C15.2,43.3,15.2,42.8,15.3,42.6z"/>
	<path class="st0" d="M24.4,42.6C24.4,42.6,24.5,42.6,24.4,42.6c0,0.2,0.1,0.6,0.1,1.1v27c0,0.6,0,1.2,0,1.1c0,0,0-0.6,0-1.1
		c0-9,0-18,0-27C24.4,43.3,24.4,42.9,24.4,42.6z"/>
	<path class="st0" d="M33.7,42.7C33.8,42.6,33.8,42.6,33.7,42.7L33.7,42.7c0,0.1,0.1,0.6,0.1,1.1c0,9,0,18,0,26.9c0,0.4,0,0.9,0,1.1
		c0,0.4-0.1-0.3-0.1-1.1V43.7C33.7,43.3,33.7,42.9,33.7,42.7L33.7,42.7z"/>
</g>
</svg>
