<?xml version="1.0" encoding="utf-8"?>
<!-- Generator: Adobe Illustrator 16.0.0, SVG Export Plug-In . SVG Version: 6.00 Build 0)  -->
<!DOCTYPE svg PUBLIC "-//W3C//DTD SVG 1.1//EN" "http://www.w3.org/Graphics/SVG/1.1/DTD/svg11.dtd">
<svg version="1.1" id="Layer_1" xmlns="http://www.w3.org/2000/svg" xmlns:xlink="http://www.w3.org/1999/xlink" x="0px" y="0px"
	 width="107.11px" height="106.42px" viewBox="0 0 107.11 106.42" enable-background="new 0 0 107.11 106.42" xml:space="preserve">
<g>
	<defs>
		<rect id="SVGID_1_" width="107.11" height="106.42"/>
	</defs>
	<clipPath id="SVGID_2_">
		<use xlink:href="#SVGID_1_"  overflow="visible"/>
	</clipPath>
	<path clip-path="url(#SVGID_2_)" fill="#989898" d="M54.555,106.42v-0.025c28.735-0.531,51.999-23.794,52.53-52.529h0.025v-2
		h-0.025c-0.047-2.546-0.282-5.046-0.673-7.493c-0.639,0.019-1.313,0.028-2.018,0.027c0.403,2.437,0.642,4.928,0.69,7.466H81.716
		c-0.057-3.875-0.447-7.69-1.144-11.418c-0.748-0.267-1.49-0.547-2.228-0.84c0.83,3.99,1.309,8.085,1.371,12.258H54.555V23.646
		c-0.709-0.736-1.396-1.495-2.074-2.264H35.89c2.326-4.148,5.141-8.032,8.375-11.605c-0.343-0.613-0.675-1.234-0.999-1.86
		c-3.793,4.1-7.027,8.618-9.639,13.465H12.772C19.729,12.39,29.591,5.769,40.934,2.903c-0.259-0.62-0.51-1.244-0.751-1.875
		C17.42,6.903,0.478,27.394,0.025,51.865H0v2h0.025c0.531,28.735,23.795,51.998,52.53,52.529 M11.299,23.382h21.27
		c-4.32,8.724-6.676,18.408-6.824,28.483H2.025C2.229,41.29,5.627,31.488,11.299,23.382 M2.025,53.865h23.72
		c0.15,10.197,2.57,19.99,6.99,28.797H11.523C5.717,74.496,2.231,64.578,2.025,53.865 M13.019,84.662h20.774
		c4.06,7.436,9.576,14.098,16.361,19.633C35.107,103.31,21.808,95.843,13.019,84.662 M52.555,103.676
		c-6.813-5.313-12.374-11.771-16.491-19.014h16.491V103.676z M52.555,82.662H34.999c-4.577-8.764-7.1-18.567-7.254-28.797h24.81
		V82.662z M52.555,51.865h-24.81c0.153-10.106,2.614-19.8,7.088-28.483h17.722V51.865z M54.555,53.865h25.161
		c-0.154,10.229-2.677,20.033-7.253,28.797H54.555V53.865z M54.555,103.96V84.662h16.842c-4.179,7.352-9.839,13.904-16.794,19.261
		L54.555,103.96z M57.344,104.267c6.769-5.53,12.272-12.183,16.325-19.604h20.422C85.378,95.746,72.231,103.178,57.344,104.267
		 M95.587,82.662H74.726c4.421-8.807,6.84-18.6,6.99-28.797h23.369C104.879,64.578,101.394,74.496,95.587,82.662"/>
	<path clip-path="url(#SVGID_2_)" fill="#4CB852" d="M103.38,36.388c-0.578-2.27-1.354-4.437-2.229-6.547
		C92.965,10.069,72.435-2.327,50.657,0.367c-0.635,0.078-1.289,0.159-1.936,0.28c0.1,0.421,0.22,0.838,0.34,1.255
		c4.726,16.723,17.932,29.141,33.96,33.445C95.256,38.291,103.35,36.393,103.38,36.388"/>
</g>
</svg>
