<?xml version="1.0" encoding="utf-8"?>
<!-- Generator: Adobe Illustrator 19.1.0, SVG Export Plug-In . SVG Version: 6.00 Build 0)  -->
<svg version="1.1" id="Layer_1" xmlns="http://www.w3.org/2000/svg" xmlns:xlink="http://www.w3.org/1999/xlink" x="0px" y="0px"
	 viewBox="0 0 188 188" style="enable-background:new 0 0 188 188;" xml:space="preserve">
<style type="text/css">
	.st0{fill:none;stroke:#151718;stroke-width:2;stroke-miterlimit:10.43;}
</style>
<g>
	<g>
		<path class="st0" d="M102.9,2.5c15.7,0,31.4,0,47.2,0c0,9.9,0,19.7,0,29.5c3,0,5.9,0,8.9,0c0,3.9,0,7.9,0,11.8
			c3-0.1,6,0.5,8.8,1.5c0.8,0.3,1.6,0.6,2.4,1c5.1,2.4,9.3,6.4,12,11.3c2.2,4,3.3,8.6,3.3,13.1c0,29.5,0,58.9,0,88.4
			c0,7.5-3.4,15-9.1,19.9c-4.7,4.2-11,6.5-17.3,6.5c-21.6,0-43.3,0-64.9,0c-6.2,0-12.4-2.3-17.1-6.3c-5.8-4.9-9.4-12.3-9.4-19.9
			c0-29.5,0-59.1,0-88.6c-0.1-4.4,1-8.8,3.1-12.7c2.8-5.3,7.4-9.6,13-12c0.4-0.2,0.7-0.3,1.1-0.4c1.5-0.6,3.1-1,4.7-1.3
			c1.6-0.3,3.1-0.4,4.7-0.4c0-3.9,0-7.9,0-11.8c2.9,0,5.9,0,8.8,0c0-2.9,0-5.9,0-8.8c-17.2,0-34.4,0-51.6,0c-1.9,0-3.9,0.5-5.4,1.7
			c-1.2,1-2,2.5-2,4.1c0,3,0,6,0,8.9c-4.9,0-9.8,0-14.7,0c0-3.1,0-6.1,0-9.2c0-4.5,1.7-9,4.5-12.6c3.2-4,8-6.8,13-7.5
			c1.8-0.3,3.6-0.2,5.4-0.2c16.9,0,33.8,0,50.8,0C102.8,6.4,102.8,4.4,102.9,2.5z M177.7,52.2c-5.9,0-35,0-40.9,0
			c0,14.8,0,29.5,0,44.3c11.8,0,23.6,0,35.4,0c0,20.7,0,41.4,0,62c0,3.4-1.2,6.8-3.4,9.4c-2.7,3.3-7,5.4-11.3,5.3
			c-19.2,0-38.4,0-57.6,0c-1.2,0-2.3,0-3.5-0.2c-3.7-0.5-7.1-2.5-9.4-5.4c-2.1-2.6-3.3-6-3.3-9.4c0-20.6,0-41.2,0-61.8
			c12.8,0,25.6,0,38.3,0c0-14.8,0-29.5,0-44.3c-8.6,0-38.7,0-47.3,0 M129.1,51c0,27.5,0,63.3,0,90.8"/>
	</g>
	<path class="st0" d="M130.3,13.4c2,0,3.9,0,5.9,0c0,2,0,3.9,0,5.9c-2,0-3.9,0-5.9,0C130.3,17.3,130.3,15.3,130.3,13.4z"/>
	<g>
		<path class="st0" d="M29.7,61.9c-1.9,4.2,0.9,9.4,5.2,10.9c0.3,0.1,0.6,0.2,0.8,0.3c0.4,0.1,0.9,0.1,1.3,0.2c0.7,0,1.3,0,2,0
			c0.7-0.2,1.4-0.3,2.1-0.5c3-1.1,5.3-4,5.7-7.3c0.3-2-0.6-3.9-1.5-5.7c-2-4-4.6-7.7-7.3-11.3C34.9,52.7,31.7,57,29.7,61.9z"/>
	</g>
	<path class="st0" d="M88.1,65.7c2,0,3.9,0,5.9,0c0,2,0,3.9,0,5.8c-2,0-3.9,0-5.9,0C88.1,69.6,88.1,67.6,88.1,65.7z"/>
	<path class="st0" d="M99.9,65.7c2,0,3.9,0,5.9,0c0,2,0,3.9,0,5.8c-2,0-3.9,0-5.9,0C99.9,69.6,99.9,67.6,99.9,65.7z"/>
	<g>
		<path class="st0" d="M44.5,110c1-0.5,2.1-0.8,3.2-1.1c1.7-0.2,3.3-0.2,5,0.2c0.2,0.1,0.4,0.1,0.7,0.2c0.3,0.1,0.5,0.2,0.8,0.3
			c2.7,1.1,4.9,3.2,6.2,5.8c1.6,3.3,1.6,7.4-0.2,10.7c-1.6,3.1-4.7,5.4-8.1,6.1c-2.1,0.3-4.2,0.3-6.2-0.4c-0.4-0.2-0.9-0.4-1.3-0.6
			c-2.6-1.3-4.7-3.6-5.8-6.4c-1.2-3-1-6.5,0.4-9.4C40.3,113.1,42.2,111.2,44.5,110z"/>
	</g>
	<g>
		<path class="st0" d="M23.9,138.4c1.5-0.1,3-0.1,4.6,0c3,0.4,5.9,1.2,8.6,2.6c3.4,1.8,6.3,4.3,8.5,7.4c2.7,3.9,4.2,8.5,4.3,13.2
			c0.1,6.9-3,13.8-8.3,18.2c-3.2,2.8-7.2,4.6-11.4,5.3c-4.7,0.8-9.7,0.1-14.1-2c-5.9-2.8-10.5-8.1-12.4-14.3
			c-1.7-5.3-1.4-11.3,0.8-16.4c2.2-5.1,6.2-9.3,11.2-11.8C18.3,139.5,21,138.7,23.9,138.4z"/>
	</g>
</g>
</svg>
