<?xml version="1.0" encoding="utf-8"?>
<!-- Generator: Adobe Illustrator 19.1.0, SVG Export Plug-In . SVG Version: 6.00 Build 0)  -->
<svg version="1.1" id="Layer_1" xmlns="http://www.w3.org/2000/svg" xmlns:xlink="http://www.w3.org/1999/xlink" x="0px" y="0px"
	 viewBox="0 0 63 91" style="enable-background:new 0 0 63 91;" xml:space="preserve">
<style type="text/css">
	.st0{fill:none;stroke:#000000;stroke-miterlimit:10.43;}
</style>
<g>
	<path class="st0" d="M20.5,1.2c0.6-0.3,1.4-0.2,1.8,0.3c0.3,0.3,0.4,0.7,0.5,1.1c9.4,28,18.8,56,28.2,84.1c3.2,0,6.4,0,9.7,0
		c0.8,0,1.5,0.7,1.5,1.5c0,0.8-0.7,1.5-1.5,1.5c-7.3,0-14.5,0-21.8,0c-0.4,0-0.9,0-1.3-0.3c-0.6-0.4-0.8-1.3-0.4-1.9
		c0.3-0.5,0.8-0.8,1.3-0.8c3.1,0,6.2,0,9.3,0c-3.6-10.7-7.2-21.5-10.8-32.2c-0.3,2.4-0.6,4.9-0.9,7.3c0,0.1-0.1,0.3,0,0.4
		c1.7,2.2,3.2,4.5,4.2,7.1c0.6,1.6,0.8,3.5,0.3,5.1c-0.4,1.3-1.4,2.4-2.5,3.1c-1.2,0.8-2.6,1.2-3.9,1.5c-0.4,3.1-0.7,6.2-1.1,9.3
		c0,0.3-0.1,0.6-0.2,0.9c-0.3,0.5-0.8,0.8-1.4,0.8c-8.3,0-16.6,0-24.8,0c-0.7,0-1.4-0.6-1.5-1.3c-0.5-4.4-1-8.8-1.5-13.2
		c-0.6,0.1-1.2,0.3-1.8,0.1c-0.6-0.2-1.1-0.8-1-1.5c0-7.6,0-15.2,0-22.8c0-0.8,0.7-1.5,1.5-1.5c11.1,0,22.1,0,33.2,0
		C30.3,34.2,25,18.6,19.8,3C19.5,2.3,19.9,1.5,20.5,1.2z M35.6,66.6c-0.4,3.1-0.7,6.1-1.1,9.2c1.1-0.3,2.2-0.8,2.9-1.7
		c0.6-0.9,0.6-2,0.3-3C37.4,69.5,36.5,68,35.6,66.6z"/>
	<path class="st0" d="M13.5,32.4c0.8-0.4,1.9,0.2,2.1,1.1c0.2,0.9-0.6,1.8-1.5,1.7c-0.8,0-1.5-0.7-1.5-1.5
		C12.6,33.2,12.9,32.6,13.5,32.4z"/>
	<path class="st0" d="M21,33c1-0.1,2,0.1,2.8,0.5c1.5,0.7,2.6,2.2,2.9,3.8c0.3,1.5-0.2,3.1-1.2,4.2c-0.7,0.9-1.7,1.5-2.8,1.7
		c-1.2,0.3-2.5,0.1-3.6-0.4c-1.3-0.6-2.3-1.8-2.7-3.2c-0.4-1.3-0.2-2.9,0.5-4.1C17.7,34.2,19.3,33.1,21,33z"/>
	<path class="st0" d="M7.9,40.9c0.5-0.2,1.1-0.1,1.7-0.1c1.9,0.2,3.5,1.9,3.5,3.8c0.1,2.1-1.8,4.1-4,4C7,48.7,5.2,47,5,45
		C4.8,43.2,6.1,41.4,7.9,40.9z"/>
</g>
</svg>
