<?xml version="1.0" encoding="utf-8"?>
<!-- Generator: Adobe Illustrator 19.1.0, SVG Export Plug-In . SVG Version: 6.00 Build 0)  -->
<svg version="1.1" id="Layer_1" xmlns="http://www.w3.org/2000/svg" xmlns:xlink="http://www.w3.org/1999/xlink" x="0px" y="0px"
	 viewBox="0 0 145 97.7" style="enable-background:new 0 0 145 97.7;" xml:space="preserve">
<style type="text/css">
	.st0{opacity:0.85;fill:none;stroke:#FFFFFF;stroke-width:5;stroke-linecap:round;stroke-linejoin:round;stroke-miterlimit:10;}
</style>
<path class="st0" d="M142.2,36.1c-0.1-2.4-0.1-4.9,0-7.3c0-1.2-0.4-1.6-1.4-2c-4.7-1.6-9.4-3.3-14-4.9c-17.7-6.2-35.3-12.5-53-18.7
	c-0.7-0.3-1.8-0.3-2.5,0C60.6,6.9,50,10.7,39.3,14.5C27.6,18.7,15.8,23,4.1,27.1c-0.9,0.3-1.3,0.8-1.3,1.8c0.1,2.4,0.1,4.9,0,7.3
	c0,1.3,0.3,1.7,1.6,1.7c2.7-0.1,5.4,0,8.3,0c0,0.7,0,1.3,0,1.8c0,17.7,0,35.4,0,53.2c0,1.3,0.3,1.8,1.7,1.8c18.9,0,37.8,0,56.7,0
	c1.2,0,1.6-0.3,1.6-1.6c-0.1-5.5,0-11-0.1-16.5c0-1.4,0.4-1.8,1.7-1.7c2.6,0.1,5.2,0,7.9,0c12.5,0,25,0,37.5,0c0.6,0,1.3,0,2,0
	c0,6.6,0,13,0,19.6c3.5,0,6.8,0,10.3,0c0-18.9,0-37.7,0-56.6c0.6,0,1-0.1,1.5-0.1c2.3,0,4.6-0.1,6.9,0
	C141.9,38,142.3,37.5,142.2,36.1z M46.3,54c-0.1,1.6,0,3.2,0,4.8c0,0.7-0.2,1.1-0.9,1.1c-6.1,0-12.2,0-18.2,0
	c-0.1,0-0.3-0.1-0.5-0.2c0-2.4,0-4.7,0-7c0.5,0,1-0.1,1.4-0.1c5.6,0,11.1,0,16.7,0C46,52.5,46.4,52.8,46.3,54z M79.5,59.8
	c-6.5,0-13,0-19.6,0c0-2.4,0-4.7,0-7.1c6.5,0,13,0,19.6,0C79.5,55,79.5,57.3,79.5,59.8z"/>
</svg>
