<?xml version="1.0" encoding="utf-8"?>
<!-- Generator: Adobe Illustrator 19.1.0, SVG Export Plug-In . SVG Version: 6.00 Build 0)  -->
<svg version="1.1" id="Layer_1" xmlns="http://www.w3.org/2000/svg" xmlns:xlink="http://www.w3.org/1999/xlink" x="0px" y="0px"
	 viewBox="0 0 88 110" style="enable-background:new 0 0 88 110;" xml:space="preserve">
<style type="text/css">
	.st0{fill:none;stroke:#5D5F5E;stroke-width:0.25;stroke-linecap:round;stroke-linejoin:round;stroke-miterlimit:10;}
</style>
<path id="XMLID_2_" class="st0" d="M77.6,87.6l0.3,0.3c3.1-5.1,5-10.8,5.4-17.1c0.1-0.9,0.2-1.8,0.2-2.7c0-8.5-2.8-16.4-7.6-22.7
	L72,41.1L52.7,18.7l-7.3-8.4l-7.3,8.4L17.3,42.8l-1.4,1.6c-5.2,6.5-8.3,14.7-8.3,23.7c0,0.9,0.1,1.7,0.2,2.6
	C8.9,90.4,25.4,106,45.5,106c11.7,0,22.1-5.3,29-13.5c0,0-0.1-0.2-0.1-0.2c-0.5-1.8-1.2-3.6-2-5.2C65,71.3,47.9,61.9,30.4,64.9
	c-0.5,0.1-1,0.2-1.6,0.3c0.1,0.3,0.2,0.7,0.3,1c4.4,13.4,15.5,23,28.7,26"/>
</svg>
