<?xml version="1.0" encoding="utf-8"?>
<!-- Generator: Adobe Illustrator 19.1.0, SVG Export Plug-In . SVG Version: 6.00 Build 0)  -->
<svg version="1.1" id="Layer_1" xmlns="http://www.w3.org/2000/svg" xmlns:xlink="http://www.w3.org/1999/xlink" x="0px" y="0px"
	 viewBox="0 0 81.7 90.3" style="enable-background:new 0 0 81.7 90.3;" xml:space="preserve">
<style type="text/css">
	.st0{fill:none;stroke:#989898;stroke-miterlimit:10;}
</style>
<path class="st0" d="M45.7,34.3L37,52.7c-0.7,1.6-2.5,2.4-4.1,1.9l-11.4-3.1c-1.8-0.5-3.7,0.5-4.3,2.3l-6.3,18.5l22,12.7
	c5.1,2.9,11.3,2.9,16.4,0l22-12.7c5.1-2.9,8.2-8.4,8.2-14.2V32.6c0-5.9-3.1-11.3-8.2-14.2l-22-12.7c-5.1-2.9-11.3-2.9-16.4,0
	l-22,12.7c-5.1,2.9-8.2,8.4-8.2,14.2v25.4"/>
<path class="st0" d="M37.3,36.7l6.4-2.2c1.2-0.4,2.6,0.3,3,1.5l1.6,5.4"/>
</svg>
