<?xml version="1.0" encoding="utf-8"?>
<!-- Generator: Adobe Illustrator 19.1.0, SVG Export Plug-In . SVG Version: 6.00 Build 0)  -->
<svg version="1.1" id="Layer_1" xmlns="http://www.w3.org/2000/svg" xmlns:xlink="http://www.w3.org/1999/xlink" x="0px" y="0px"
	 viewBox="0 0 108.3 67.8" style="enable-background:new 0 0 108.3 67.8;" xml:space="preserve">
<style type="text/css">
	.st0{fill:none;stroke:#989898;stroke-width:2;stroke-linecap:square;stroke-miterlimit:10;}
</style>
<g>
	<path class="st0" d="M84,26.5c9,8.1,14.7,19.9,14.7,33"/>
	<path class="st0" d="M9.7,59.6c0-24.6,19.9-44.5,44.5-44.5c9.4,0,18.1,2.9,25.3,7.9"/>
	<line class="st0" x1="1.9" y1="66.4" x2="106.5" y2="66.4"/>
	<path class="st0" d="M64.9,52.7c1.1,1.8,1.7,4,1.7,6.3"/>
	<path class="st0" d="M41.8,59c0-6.9,5.6-12.4,12.4-12.4c2.5,0,4.9,0.8,6.8,2"/>
	<polyline class="st0" points="53.8,56.5 102.9,7.5 97.2,1.8 82.4,16.6 87.1,21.6 	"/>
</g>
</svg>
