<?xml version="1.0" encoding="utf-8"?>
<!-- Generator: Adobe Illustrator 19.1.0, SVG Export Plug-In . SVG Version: 6.00 Build 0)  -->
<svg version="1.1" id="Layer_1" xmlns="http://www.w3.org/2000/svg" xmlns:xlink="http://www.w3.org/1999/xlink" x="0px" y="0px"
	 viewBox="0 0 75.8 95.7" style="enable-background:new 0 0 75.8 95.7;" xml:space="preserve">
<style type="text/css">
	.st0{clip-path:url(#SVGID_2_);fill:#E6ECF2;}
</style>
<g>
	<defs>
		<rect id="SVGID_1_" y="0" width="75.8" height="95.7"/>
	</defs>
	<clipPath id="SVGID_2_">
		<use xlink:href="#SVGID_1_"  style="overflow:visible;"/>
	</clipPath>
	<path class="st0" d="M68.3,35.1l-3.8-4.4L45.1,8.4L37.9,0l-7.3,8.4L9.8,32.5l-1.4,1.6C3.1,40.6,0,48.8,0,57.8
		c0,0.9,0.1,1.7,0.2,2.6c1.2,19.7,17.7,35.3,37.8,35.3c11.7,0,22.1-5.3,29-13.5l-0.2-0.2c0,0,0,0,0.1,0c-0.5-1.8-1.2-3.6-2-5.2
		c-7.3-15.8-24.4-25.1-41.9-22.2c-0.5,0.1-1,0.2-1.6,0.3c0.1,0.3,0.2,0.7,0.3,1c4.4,13.4,15.5,23,28.7,26c-3.7,1.9-7.9,3-12.3,3
		C23,84.8,11,72.7,11,57.8c0-6.4,2.2-12.2,5.9-16.8c0.6-0.8,1.3-1.6,2-2.3L35,20.1l2.9-3.3l2.8,3.3l15.8,18.3
		c1.2,1.1,2.3,2.4,3.2,3.7c3.2,4.4,5.1,9.9,5.1,15.7c0,3.3-0.6,6.5-1.7,9.4c4,4.8,6,8.1,6.8,10.1l0.3,0.3c3.1-5.1,5-10.8,5.4-17.1
		c0.1-0.9,0.2-1.8,0.2-2.7C75.8,49.3,73,41.5,68.3,35.1"/>
</g>
</svg>
