<?xml version="1.0" encoding="utf-8"?>
<!-- Generator: Adobe Illustrator 19.1.0, SVG Export Plug-In . SVG Version: 6.00 Build 0)  -->
<svg version="1.1" id="Layer_1" xmlns="http://www.w3.org/2000/svg" xmlns:xlink="http://www.w3.org/1999/xlink" x="0px" y="0px"
	 viewBox="0 0 77.9 84.7" style="enable-background:new 0 0 77.9 84.7;" xml:space="preserve">
<style type="text/css">
	.st0{clip-path:url(#SVGID_2_);fill:none;stroke:#989898;stroke-miterlimit:10;}
	.st1{clip-path:url(#SVGID_2_);fill:none;stroke:#989898;stroke-miterlimit:10;stroke-dasharray:3.013,3.013;}
	.st2{clip-path:url(#SVGID_2_);fill:none;stroke:#989898;stroke-miterlimit:10;stroke-dasharray:1,1;}
	.st3{clip-path:url(#SVGID_2_);fill:#FFFFFF;}
</style>
<g>
	<defs>
		<rect id="SVGID_1_" y="0" width="77.9" height="84.7"/>
	</defs>
	<clipPath id="SVGID_2_">
		<use xlink:href="#SVGID_1_"  style="overflow:visible;"/>
	</clipPath>
	<path class="st0" d="M69.2,15.4l-22-12.7c-5.1-2.9-11.3-2.9-16.4,0l-22,12.7c-5.1,2.9-8.2,8.4-8.2,14.2v25.4
		c0,5.9,3.1,11.3,8.2,14.2l22,12.7c5.1,2.9,11.3,2.9,16.4,0l22-12.7c5.1-2.9,8.2-8.4,8.2-14.2V29.6C77.4,23.8,74.3,18.4,69.2,15.4z"
		/>
	<path class="st1" d="M56.7,25.2l-11.8-6.8c-3.7-2.1-8.3-2.1-12,0l-11.8,6.8c-3.7,2.1-6,6.1-6,10.4v13.6c0,4.3,2.3,8.2,6,10.4
		L33,66.3c3.7,2.1,8.3,2.1,12,0l11.8-6.8c3.7-2.1,6-6.1,6-10.4V35.6C62.7,31.3,60.4,27.3,56.7,25.2z"/>
	<circle class="st2" cx="39" cy="42.4" r="8.4"/>
	<path class="st3" d="M43.8,17.7c0,2.6-2.1,4.7-4.7,4.7c-2.6,0-4.7-2.1-4.7-4.7c0-2.6,2.1-4.7,4.7-4.7C41.8,13,43.8,15.1,43.8,17.7"
		/>
	<circle class="st2" cx="39.2" cy="17.7" r="4.7"/>
	<path class="st3" d="M66.7,54.2c0,2.6-2.1,4.7-4.7,4.7c-2.6,0-4.7-2.1-4.7-4.7c0-2.6,2.1-4.7,4.7-4.7
		C64.6,49.5,66.7,51.6,66.7,54.2"/>
	<circle class="st2" cx="62" cy="54.2" r="4.7"/>
	<path class="st3" d="M20.7,54.2c0,2.6-2.1,4.7-4.7,4.7c-2.6,0-4.7-2.1-4.7-4.7c0-2.6,2.1-4.7,4.7-4.7
		C18.6,49.5,20.7,51.6,20.7,54.2"/>
	<circle class="st2" cx="16" cy="54.2" r="4.7"/>
</g>
</svg>
