<?xml version="1.0" encoding="utf-8"?>
<!-- Generator: Adobe Illustrator 19.1.0, SVG Export Plug-In . SVG Version: 6.00 Build 0)  -->
<svg version="1.1" id="Layer_1" xmlns="http://www.w3.org/2000/svg" xmlns:xlink="http://www.w3.org/1999/xlink" x="0px" y="0px"
	 viewBox="0 0 107.4 88.9" style="enable-background:new 0 0 107.4 88.9;" xml:space="preserve">
<style type="text/css">
	.st0{fill:none;stroke:#989898;stroke-miterlimit:10;}
	.st1{fill:#989898;}
</style>
<circle class="st0" cx="41.9" cy="47" r="41.9"/>
<circle class="st0" cx="41.9" cy="47" r="27.1"/>
<circle class="st0" cx="41.9" cy="47" r="13.9"/>
<g>
	<g>
		<path class="st1" d="M95.9,12.8l-13.6,9l-13.7,8.9l-13.7,8.9L48,44l-3.4,2.2c-1.1,0.7-2.3,1.5-3.7,1.8c0.8-1.2,2-1.9,3.1-2.7
			l3.4-2.2l6.8-4.5l13.6-9l13.7-8.9l13.7-8.8L95.9,12.8z"/>
	</g>
	<polygon class="st0" points="105.3,15 94.7,12.9 97.1,2.3 87.4,8.7 85,19.2 95.6,21.3 	"/>
</g>
<circle class="st0" cx="41.9" cy="47" r="3"/>
</svg>
