<?xml version="1.0" encoding="utf-8"?>
<!-- Generator: Adobe Illustrator 19.1.0, SVG Export Plug-In . SVG Version: 6.00 Build 0)  -->
<svg version="1.1" id="Layer_1" xmlns="http://www.w3.org/2000/svg" xmlns:xlink="http://www.w3.org/1999/xlink" x="0px" y="0px"
	 viewBox="0 0 58 91" style="enable-background:new 0 0 58 91;" xml:space="preserve">
<style type="text/css">
	.st0{fill:none;stroke:#000000;stroke-miterlimit:10.43;}
</style>
<g>
	<path class="st0" d="M20,8.5c5.3,0,10.7,0,16,0c0.9,0,1.8,0,2.7,0.1c1.7,0.3,3.4,1.1,4.6,2.4c1.3,1.3,2.1,3,2.4,4.8
		c0.1,0.8,0.1,1.7,0.1,2.5c0,3.1,0,6.2,0,9.3c-0.2,3.2-0.7,6.4-1.1,9.6c-0.2,1-0.2,1.9-0.5,2.9c-0.3,1.6-0.9,3.1-1.8,4.5
		c-0.4,0.8-1,1.4-1.5,2.1c-2.7,3.3-6.9,5.4-11.2,5.5c-0.7,0.1-1.4,0-2.1,0c-3.2-0.3-6.4-1.5-8.9-3.6c-0.8-0.7-1.6-1.5-2.2-2.4
		c-1.3-1.6-2.2-3.5-2.7-5.5c-0.3-0.9-0.3-1.9-0.6-2.8c-0.3-1.8-0.6-3.6-0.8-5.4c-0.2-1.8-0.4-3.6-0.4-5.4c0-3.3,0-6.7,0-10
		c0-1.8,0.6-3.5,1.6-5C15.2,9.9,17.6,8.6,20,8.5z"/>
	<path class="st0" d="M23.6,26.3c0.9-0.2,1.8,0.5,2,1.4c0.1,0.8-0.4,1.7-1.2,1.9c-0.3,0-0.6,0-0.9,0c-0.8-0.2-1.3-1-1.3-1.8
		C22.3,27.1,22.9,26.4,23.6,26.3z"/>
	<path class="st0" d="M33.8,26.3c0.8-0.2,1.8,0.4,2,1.3c0.2,0.7-0.2,1.5-0.8,1.9c-0.4,0.2-0.8,0.2-1.3,0.2c-0.7-0.2-1.3-0.9-1.2-1.7
		C32.4,27.1,33,26.5,33.8,26.3z"/>
	<path class="st0" d="M27.6,74.9c-0.2-0.4-0.3-0.8-0.3-1.2c0-2.7,0-5.4,0-8.2c-0.9-0.3-1.8-0.7-2.6-1.3C24.3,64,24,63.5,24,63
		c-0.1-1,0.9-1.9,1.9-1.7c0.6,0,0.9,0.5,1.4,0.7c1.2,0.7,2.8,0.6,3.9-0.3c2.3-1.9,4.6-3.8,6.9-5.7c0.3-0.3,0.8-0.5,1.3-0.4
		c4,0.8,8,1.6,12.1,2.5c2.9,0.7,5.3,3.1,6,6.1c0.4,1.3,0.2,2.7,0.3,4c0,3.1,0,6.3,0,9.4c0,1.3-0.5,2.6-1.5,3.6
		c-0.9,0.9-2.2,1.4-3.6,1.4c-15.3,0-30.6,0-45.9,0c-0.9,0-1.9,0.1-2.8-0.2c-1.3-0.3-2.4-1.2-3-2.3c-0.4-0.8-0.7-1.7-0.7-2.6
		c0-3.8,0-7.5,0-11.3c0-1.5,0.4-3.1,1.2-4.3c1.2-2,3.3-3.5,5.7-3.9c3.6-0.7,7.2-1.4,10.8-2c0.3,0,0.5-0.1,0.8-0.1c4,0,7.9,0,11.9,0
		c0.4,0,4.2,0.1,4.5,0.3"/>
	<path class="st0" d="M41.3,71.9c-0.8-0.8-0.5-2.5,0.7-2.8c0.4-0.1,0.8-0.1,1.2-0.1c2,0,4.1,0,6.1,0c0.6,0,1.2,0.2,1.5,0.7
		c0.4,0.7,0.3,1.7-0.3,2.3"/>
	<path class="st0" d="M24.1,39.6l0.1,0.1c2.6,2.2,6.5,2.2,9.1-0.1"/>
</g>
</svg>
