<?xml version="1.0" encoding="utf-8"?>
<!-- Generator: Adobe Illustrator 16.0.0, SVG Export Plug-In . SVG Version: 6.00 Build 0)  -->
<!DOCTYPE svg PUBLIC "-//W3C//DTD SVG 1.1//EN" "http://www.w3.org/Graphics/SVG/1.1/DTD/svg11.dtd">
<svg version="1.1" id="Layer_1" xmlns="http://www.w3.org/2000/svg" xmlns:xlink="http://www.w3.org/1999/xlink" x="0px" y="0px"
	 width="60.961px" height="141.499px" viewBox="0 0 60.961 141.499" enable-background="new 0 0 60.961 141.499"
	 xml:space="preserve">
<g>
	<defs>
		<rect id="SVGID_1_" width="60.961" height="141.499"/>
	</defs>
	<clipPath id="SVGID_2_">
		<use xlink:href="#SVGID_1_"  overflow="visible"/>
	</clipPath>
	<path clip-path="url(#SVGID_2_)" fill="none" stroke="#989898" stroke-miterlimit="10" d="M28.869,140.999H14.04
		c0.034-0.644,0.099-1.286,0.099-1.929c0.006-28.35,0.008-56.699,0.003-85.049c0-0.75,0.155-1.628-0.176-2.213
		c-0.345-0.611-1.198-1.302-1.815-1.288c-0.615,0.012-1.51,0.742-1.747,1.361c-0.327,0.854-0.185,1.901-0.186,2.866
		c-0.01,8.913,0,17.826-0.012,26.738c-0.005,4.688-0.02,4.689-4.551,4.711H5.603C2.786,86.209,0.5,83.917,0.5,81.101V50.104
		c0-1.365,0.274-2.715,0.807-3.973c2.677-6.32,5.641-8.276,12.569-8.278c11.459-0.004,22.92,0.114,34.377-0.052
		c4.935-0.073,8.079,2.266,10.324,6.289l0.021,0.039c1.221,2.195,1.862,4.667,1.862,7.18v29.792c0,2.816-2.286,5.108-5.104,5.096
		h-0.052c-4.531-0.021-4.544-0.023-4.552-4.71c-0.016-9.45,0.037-18.9-0.105-28.347c-0.014-0.916-1.195-1.815-1.836-2.722
		c-0.66,0.88-1.837,1.729-1.891,2.645c-0.224,3.746-0.112,7.511-0.107,11.27c0.033,25.556,0.071,51.111,0.106,76.667H32.093
		c0.036-15.221,0.104-30.44,0.037-45.662c-0.001-0.106-0.015-0.213-0.039-0.318c-0.371-1.588-2.842-1.588-3.21,0.001
		c-0.025,0.105-0.038,0.211-0.039,0.316C28.771,110.557,28.834,125.778,28.869,140.999z"/>
	<path clip-path="url(#SVGID_2_)" fill="none" stroke="#989898" stroke-miterlimit="10" d="M32.736,0.5
		c6.299,1.687,11.1,5.046,12.927,11.668c2.26,8.185-2.382,16.765-10.364,19.213c-8.295,2.545-16.964-1.836-19.698-9.953
		c-2.71-8.044,1.354-16.695,9.293-19.757c1.097-0.423,2.219-0.782,3.33-1.171H32.736z"/>
</g>
</svg>
