<?xml version="1.0" encoding="utf-8"?>
<!-- Generator: Adobe Illustrator 19.1.0, SVG Export Plug-In . SVG Version: 6.00 Build 0)  -->
<svg version="1.1" id="Layer_1" xmlns="http://www.w3.org/2000/svg" xmlns:xlink="http://www.w3.org/1999/xlink" x="0px" y="0px"
	 viewBox="0 0 74 91" style="enable-background:new 0 0 74 91;" xml:space="preserve">
<style type="text/css">
	.st0{fill:none;stroke:#000000;stroke-miterlimit:10.43;}
</style>
<path class="st0" d="M32.3,28.9c-0.2,0.2-0.5,0.5-0.8,0.6c-0.3,0.1-0.6,0.1-1,0.1c-0.6-0.1-1-0.7-1.2-1.2c0-0.2,0-0.4,0-0.5
	c0-0.4,0.2-0.8,0.5-1.1c3.4-3.4,6.7-6.7,10.1-10.1c0.8-0.8,1.7-1.7,2.5-2.5c2.3-2.2,5.3-3.8,8.5-4.4c0,0,0.1,0,0.1,0
	c0.6-0.1,1.3-0.2,1.9-0.2c1.7,0,4.6,0,4.7,0c3.3,0.5,6.3,2,8.9,4.1c0.4,0.3,0.7,0.7,1.1,1c0.4,0.3,0.6,0.7,1,1
	c0.5,0.4,0.8,1,1.2,1.4c1.6,2.2,8.2,13.4-1,22.5c-0.6,0.7-1.2,1.3-1.9,2c-5.5,5.5-11.1,11.1-16.6,16.6c-0.2,0.2-0.5,0.5-0.8,0.7
	c-0.2,0.1-0.4,0.2-0.6,0.2c-0.5,0-0.9-0.2-1.2-0.6C44,55,40.4,51.3,36.8,47.7c-0.8-0.8-1.6-1.6-2.4-2.4c-3.1-3.1-6.2-6.2-9.2-9.3
	 M44.4,62.2c0.2,0.3,0.3,0.7,0.4,1.1c-0.2,0.4-0.3,0.8-0.6,1.1c-4,4-8,8-12,12c-1.9,1.9-4.2,3.4-6.7,4.3c-0.1,0-0.2,0.1-0.4,0.1
	c-2.5,0.7-5.2,0.8-7.7,0.2c-3.5-0.8-8.4-2.2-9.9-3.5c-0.8-0.6-1.4-1.4-2.1-2.1c-1.1-1.2-2-2.6-2.7-4C2,70,1.4,68.4,1.1,66.7
	C1.2,66.5,1,66.3,1,66.1c0-0.1-0.1-0.2-0.1-0.4c-0.2-1,0.2-5.9,0.2-6.1c0.6-3,2-5.9,4-8.2c0.9-1,1.9-2,2.9-2.9
	c5.3-5.3,10.6-10.6,15.9-15.9c0.6-0.6,1.6-0.6,2.2,0"/>
</svg>
