<?xml version="1.0" encoding="utf-8"?>
<!-- Generator: Adobe Illustrator 19.1.0, SVG Export Plug-In . SVG Version: 6.00 Build 0)  -->
<svg version="1.1" id="Layer_1" xmlns="http://www.w3.org/2000/svg" xmlns:xlink="http://www.w3.org/1999/xlink" x="0px" y="0px"
	 viewBox="0 0 38 28" style="enable-background:new 0 0 38 28;" xml:space="preserve">
<style type="text/css">
	.st0{fill:#5B5A5A;}
</style>
<g>
	<g>
		<path class="st0" d="M5.7,1.1c0.2,0,0.4,0.1,0.6,0.3C7.1,2,7.7,2.9,8.2,3.8C8.4,4,8.5,4.3,8.7,4.5C8.8,4.7,8.9,5,9.1,5.4
			c0,0.1,0.1,0.2,0.1,0.3c0.2,0.7,0.2,1.3,0,1.6C8.9,7.8,8.4,8.2,7.8,8.6C7.7,8.7,7.6,8.8,7.5,8.9c-1.2,0.7-1.8,1.9-1.7,3
			C6,13.7,7,15.1,8,16.4l0,0l0,0c1.1,1.4,2.4,3,4.1,4.2c0.7,0.5,1.7,1.1,2.8,1.1c0.2,0,0.4,0,0.7-0.1l0,0l0,0
			c0.8-0.2,1.4-0.8,1.8-1.2c0.2-0.2,0.3-0.3,0.5-0.5c0.1-0.1,0.2-0.2,0.3-0.3c0.4-0.4,0.8-0.7,1.2-0.7l0,0l0,0c0.1,0,0.2,0,0.3,0
			c0.4,0,0.9,0.2,1.5,0.5c0.8,0.5,1.5,1.1,2.2,1.8l0.5,0.4c0.5,0.5,1,1.1,1,1.6c-0.1,0.4-0.4,0.7-0.9,1.1c-0.2,0.1-0.3,0.3-0.5,0.4
			c-0.9,0.9-2.1,1.6-3.4,2c-0.7,0.2-1.3,0.2-2,0.2c-0.8,0-1.6-0.1-2.4-0.3c-2.3-0.6-4.6-2-7.1-4.4c-2-2-3.8-4.1-5.1-6.2
			C2.1,13.7,1.2,11.4,1,9.3C0.9,7.9,1.1,6,2.2,4.3c0.5-0.8,1.1-1.4,1.7-1.9C4.1,2.2,4.3,2,4.5,1.8c0.4-0.3,0.7-0.6,1-0.7l0,0
			L5.7,1.1C5.7,1.1,5.7,1.1,5.7,1.1 M5.7,0.1c-0.1,0-0.3,0-0.4,0.1C4.5,0.3,4,1,3.3,1.5c-0.8,0.6-1.5,1.4-2,2.2
			C0.3,5.4-0.1,7.4,0,9.3c0.3,2.6,1.3,5,2.7,7.2C4.2,18.9,6,21,8,22.9c2.2,2,4.6,3.9,7.5,4.7c0.9,0.2,1.8,0.4,2.7,0.4
			c0.8,0,1.5-0.1,2.3-0.3c1.4-0.4,2.8-1.2,3.9-2.2c0.7-0.6,1.5-1.1,1.7-2.1c0.1-1-0.6-1.8-1.3-2.5c-0.9-0.8-1.8-1.7-2.8-2.3
			c-0.6-0.4-1.3-0.7-2.1-0.7c-0.2,0-0.3,0-0.5,0.1c-0.8,0.1-1.4,0.8-2,1.3c-0.6,0.5-1.1,1.3-1.9,1.5c-0.2,0-0.3,0-0.5,0
			c-0.8,0-1.6-0.4-2.3-0.9c-1.5-1.1-2.7-2.5-3.9-4c-0.9-1.2-1.8-2.5-2-4c-0.1-0.9,0.5-1.7,1.3-2.1c0.7-0.6,1.5-1.1,2-1.9
			c0.4-0.8,0.3-1.7,0.1-2.5c-0.2-0.5-0.4-1-0.7-1.4C8.7,2.7,8.1,1.5,7,0.5C6.6,0.3,6.2,0.1,5.7,0.1L5.7,0.1z"/>
	</g>
</g>
</svg>
