<svg xmlns="http://www.w3.org/2000/svg" xmlns:xlink="http://www.w3.org/1999/xlink" version="1.1" id="Layer_1" x="0px" y="0px" viewBox="0 0 588.1 588" xml:space="preserve" enable-background="new 0 0 588.1 588">
  <style type="text/css">
    
	.st0{opacity:0.65;}
	.st1{clip-path:url(#SVGID_2_);fill:#000;}

  </style>
  <g class="st0">
    <defs>
      <rect id="SVGID_1_" class="st0" width="588.1" height="588"/>
    </defs>
    <clipPath id="SVGID_2_">
      <use xlink:href="#SVGID_1_" overflow="visible"/>
    </clipPath>
    <path class="st1" d="M521.5 199.3L388.4 66.2c-60.8-60.8-153-82-235-54.1l-18.4 6.3 21.8 24.9 9-7.9c71.6-22.7 151.4-3.6 204.2 49.2l133.1 133.1c45.9 45.9 64.8 108.6 57.2 168.6l-394.8 64.8L84.6 370c-54.3-54.3-72.9-136.5-47.4-209.6l5.9-10 -24.7-14.6 -5.3 14.9c-29.4 82.8-8.5 176.1 53.1 237.7l133.1 133.1c44.4 44.4 102.7 66.6 161.1 66.6s116.7-22.2 161.1-66.6C610.3 432.6 610.3 288.1 521.5 199.3M503.1 503.1c-78.7 78.7-206.7 78.7-285.4 0l-29.5-29.5 366.8-60.2C546 446.2 528.9 477.3 503.1 503.1"/>
    <path class="st1" d="M284.7 340.3l-28.5 27.9 4.6 32.1 60.8-59.8L70.7 89.5c-7.1-7.1-7.1-18.6 0-25.7 7.1-7.1 18.6-7.1 25.7 0l250.8 250.8 61.5-61.5 -34.6-2.1L347.2 278 114.7 45.5c-17.2-17.2-45.2-17.2-62.4 0 -17.2 17.2-17.2 45.2 0 62.4L284.7 340.3z"/>
  </g>
</svg>