<?xml version="1.0" encoding="utf-8"?>
<!-- Generator: Adobe Illustrator 19.1.0, SVG Export Plug-In . SVG Version: 6.00 Build 0)  -->
<svg version="1.1" id="Layer_1" xmlns="http://www.w3.org/2000/svg" xmlns:xlink="http://www.w3.org/1999/xlink" x="0px" y="0px"
	 viewBox="0 0 108.2 64" style="enable-background:new 0 0 108.2 64;" xml:space="preserve">
<style type="text/css">
	.st0{fill:none;stroke:#989898;stroke-width:2;stroke-linecap:square;stroke-miterlimit:10;}
</style>
<g>
	<g>
		<g>
			<path class="st0" d="M19.5,42.1h-4.7c-3.6,0-6.5,2.9-6.5,6.5v0c0,3.6,2.9,6.5,6.5,6.5h4.7c3.6,0,6.5-2.9,6.5-6.5v0
				C26,45,23.1,42.1,19.5,42.1z"/>
			<path class="st0" d="M44.3,42.1h-4.7c-3.6,0-6.5,2.9-6.5,6.5v0c0,3.6,2.9,6.5,6.5,6.5h4.7c3.6,0,6.5-2.9,6.5-6.5v0
				C50.8,45,47.9,42.1,44.3,42.1z"/>
			<path class="st0" d="M68.8,42.1H64c-3.6,0-6.5,2.9-6.5,6.5v0c0,3.6,2.9,6.5,6.5,6.5h4.7c3.6,0,6.5-2.9,6.5-6.5v0
				C75.3,45,72.4,42.1,68.8,42.1z"/>
			<path class="st0" d="M93.3,42.1h-4.7C85,42.1,82,45,82,48.7v0c0,3.6,2.9,6.5,6.5,6.5h4.7c3.6,0,6.5-2.9,6.5-6.5v0
				C99.9,45,96.9,42.1,93.3,42.1z"/>
		</g>
		<g>
			<path class="st0" d="M31.8,22H27c-3.6,0-6.5,2.9-6.5,6.5v0c0,3.6,2.9,6.5,6.5,6.5h4.7c3.6,0,6.5-2.9,6.5-6.5v0
				C38.3,24.9,35.4,22,31.8,22z"/>
			<path class="st0" d="M56.5,22h-4.7c-3.6,0-6.5,2.9-6.5,6.5v0c0,3.6,2.9,6.5,6.5,6.5h4.7c3.6,0,6.5-2.9,6.5-6.5v0
				C63.1,24.9,60.1,22,56.5,22z"/>
			<path class="st0" d="M81.1,22h-4.7c-3.6,0-6.5,2.9-6.5,6.5v0c0,3.6,2.9,6.5,6.5,6.5h4.7c3.6,0,6.5-2.9,6.5-6.5v0
				C87.6,24.9,84.7,22,81.1,22z"/>
		</g>
		<g>
			<path class="st0" d="M44,1.4h-4.7c-3.6,0-6.5,2.9-6.5,6.5v0c0,3.6,2.9,6.5,6.5,6.5H44c3.6,0,6.5-2.9,6.5-6.5v0
				C50.6,4.4,47.6,1.4,44,1.4z"/>
			<path class="st0" d="M68.8,1.4H64c-3.6,0-6.5,2.9-6.5,6.5v0c0,3.6,2.9,6.5,6.5,6.5h4.7c3.6,0,6.5-2.9,6.5-6.5v0
				C75.3,4.4,72.4,1.4,68.8,1.4z"/>
		</g>
	</g>
	<line class="st0" x1="1.7" y1="62.7" x2="106.4" y2="62.7"/>
</g>
</svg>
