<?xml version="1.0" encoding="utf-8"?>
<!-- Generator: Adobe Illustrator 19.1.0, SVG Export Plug-In . SVG Version: 6.00 Build 0)  -->
<svg version="1.1" xmlns="http://www.w3.org/2000/svg" xmlns:xlink="http://www.w3.org/1999/xlink" x="0px" y="0px"
	 viewBox="0 0 28 28" style="enable-background:new 0 0 28 28;" xml:space="preserve">
<style type="text/css">
	.st0{display:none;}
	.st1{display:inline;}
	.st2{fill:#6D6D6D;}
	.st3{display:inline;fill:none;stroke:#6D6D6D;stroke-width:5;stroke-miterlimit:10;}
	.st4{fill:none;stroke:#FFFFFF;stroke-width:5;stroke-miterlimit:10;}
</style>
<g id="Layer_2" class="st0">
	<g class="st1">
		<path class="st2" d="M14.1-7.2C2.4-7.2-7.1,2.3-7.1,14v0c0,11.6,9.5,21.2,21.2,21.2h0c11.6,0,21.2-9.5,21.2-21.2V-7.2H14.1z
			 M14.1,27.7C6.5,27.7,0.4,21.5,0.4,14c0-7.5,6.1-13.7,13.7-13.7c7.5,0,13.7,6.1,13.7,13.7C27.7,21.5,21.6,27.7,14.1,27.7z"/>
		<path class="st2" d="M14.1,5.3c-4.8,0-8.7,3.9-8.7,8.7s3.9,8.7,8.7,8.7c4.8,0,8.7-3.9,8.7-8.7S18.8,5.3,14.1,5.3z"/>
	</g>
</g>
<g id="Layer_3" class="st0">
	<path class="st3" d="M13.1,35.2L13.1,35.2C1.5,35.2-8.1,25.6-8.1,14v0c0-11.6,9.5-21.2,21.2-21.2h21.2V14
		C34.3,25.6,24.8,35.2,13.1,35.2z"/>
</g>
<g id="Layer_1">
	<circle class="st4" cx="14.1" cy="14" r="11.2"/>
	<line class="st4" x1="13.1" y1="14.9" x2="22" y2="6.1"/>
</g>
</svg>
