<?xml version="1.0" encoding="utf-8"?>
<!-- Generator: Adobe Illustrator 19.1.0, SVG Export Plug-In . SVG Version: 6.00 Build 0)  -->
<svg version="1.1" id="Layer_1" xmlns="http://www.w3.org/2000/svg" xmlns:xlink="http://www.w3.org/1999/xlink" x="0px" y="0px"
	 viewBox="0 0 36 22" style="enable-background:new 0 0 36 22;" xml:space="preserve">
<style type="text/css">
	.st0{fill:none;stroke:#5B5A5A;stroke-miterlimit:10.43;}
</style>
<g>
	<path class="st0" d="M1.9,0.6h19.9C22.3,0.6,22.7,0.7,23,1c0.5,0.4,0.6,1,0.6,1.6c0,5,0,10,0,15c-3.8,0-7.6,0-11.3,0
		c-0.3-1-0.9-1.9-1.7-2.5c-1-0.7-2.3-1-3.6-0.8C5.4,14.7,4,16,3.5,17.6c-0.6,0-1.2,0-1.8,0c-0.6-0.1-1-0.6-1.1-1.1v-0.3
		c0.1-0.3,0.2-0.5,0.4-0.7c0.2-0.2,0.6-0.3,0.9-0.4C1.9,10.2,1.9,5.4,1.9,0.6z"/>
	<g>
		<path class="st0" d="M25,5.6c1.9,0,3.8,0,5.7,0c0.7,0,1.2,0.5,1.5,1c1,1.5,2,3.1,2.3,5v5.7c-0.1,0.2-0.2,0.4-0.5,0.4
			c-0.5,0-1,0-1.4,0c-0.2-0.8-0.6-1.5-1.1-2c-1-1.1-2.6-1.6-4.1-1.4c-0.9,0.2-1.8,0.6-2.5,1.3C25,12.3,25,9,25,5.6z M27.3,7.8
			c0,0.7,0.1,1.4,0.1,2.2c1.4,0,2.2,0,3.6,0c-0.3-0.7-0.7-1.3-1.2-1.9c-0.1-0.1-0.2-0.3-0.4-0.2C28.5,7.8,28.2,7.8,27.3,7.8z"/>
	</g>
	<g>
		<path class="st0" d="M6.9,16.2c-1.3,0.5-2.1,2.1-1.6,3.4c0.4,1.3,2,2.1,3.3,1.7c1.3-0.4,2.2-1.8,1.8-3.1
			C10.3,16.6,8.4,15.6,6.9,16.2z"/>
	</g>
	<g>
		<path class="st0" d="M27.2,16.3c-1.2,0.5-1.9,1.9-1.6,3.1c0.3,1.4,2,2.4,3.4,1.9c1.5-0.4,2.4-2.1,1.8-3.6
			C30.3,16.4,28.5,15.7,27.2,16.3z"/>
	</g>
</g>
</svg>
