<svg xmlns="http://www.w3.org/2000/svg" xmlns:xlink="http://www.w3.org/1999/xlink" version="1.1" id="Layer_1" x="0px" y="0px" viewBox="0 0 670 598.5" xml:space="preserve" enable-background="new 0 0 670 598.5">
  <style type="text/css">
    
	.st0{opacity:0.65;}
	.st1{clip-path:url(#SVGID_2_);fill:#000;}

  </style>
  <g class="st0">
    <defs>
      <rect id="SVGID_1_" class="st0" width="670" height="598.5"/>
    </defs>
    <clipPath id="SVGID_2_">
      <use xlink:href="#SVGID_1_" overflow="visible"/>
    </clipPath>
    <path class="st1" d="M649.4 499.8l-228-184.8 -16.3 20.2 151 122.3 -90 1 0 2.2 -98.6-79.9c-0.5-0.5-1-1.1-1.6-1.6l-17.4 19.2c0.7 0.8 1.5 1.5 2.3 2.2l228.7 185.4c10 8.1 22.1 12.4 34.8 12.4 2 0 3.9-0.1 5.9-0.3 14.8-1.5 28.1-8.7 37.4-20.2C676.9 554.2 673.2 519.1 649.4 499.8M637.5 561.6c-5 6.1-12 9.9-19.9 10.7 -7.9 0.8-15.6-1.4-21.7-6.4L495 484.2l92.7-1 45.4 36.8C645.8 530.3 647.7 548.9 637.5 561.6"/>
    <path class="st1" d="M418.6 209.3c0-55.9-21.8-108.5-61.3-148C317.8 21.8 265.2 0 209.3 0h0c-55.9 0-108.5 21.8-148 61.3C21.8 100.9 0 153.4 0 209.3c0 55.9 21.8 108.5 61.3 148 39.5 39.5 92.1 61.3 148 61.3h0C324.8 418.6 418.6 324.7 418.6 209.3M209.3 392.7L209.3 392.7c-49 0-95-19.1-129.7-53.7C45 304.4 26 258.3 26 209.3c0-49 19.1-95 53.7-129.7C114.3 45 160.3 26 209.3 26h0c49 0 95 19.1 129.6 53.7 34.6 34.6 53.7 80.7 53.7 129.6C392.7 310.4 310.4 392.6 209.3 392.7"/>
  </g>
</svg>