<?xml version="1.0" encoding="utf-8"?>
<!-- Generator: Adobe Illustrator 16.0.0, SVG Export Plug-In . SVG Version: 6.00 Build 0)  -->
<!DOCTYPE svg PUBLIC "-//W3C//DTD SVG 1.1//EN" "http://www.w3.org/Graphics/SVG/1.1/DTD/svg11.dtd">
<svg version="1.1" id="Layer_1" xmlns="http://www.w3.org/2000/svg" xmlns:xlink="http://www.w3.org/1999/xlink" x="0px" y="0px"
	 width="82.692px" height="141.374px" viewBox="0 0 82.692 141.374" enable-background="new 0 0 82.692 141.374"
	 xml:space="preserve">
<g>
	<defs>
		<rect id="SVGID_1_" width="82.693" height="141.374"/>
	</defs>
	<clipPath id="SVGID_2_">
		<use xlink:href="#SVGID_1_"  overflow="visible"/>
	</clipPath>
	<path clip-path="url(#SVGID_2_)" fill="none" stroke="#989898" stroke-miterlimit="10" d="M81.959,8.438
		c0.567,13.774-2.989,26.327-10.639,37.287c-5.285,7.573-11.941,14.243-18.382,20.933c-3.062,3.177-3.11,5.204,0.102,8.115
		c9.04,8.19,18.033,16.727,22.395,28.346c3.163,8.43,4.59,17.523,6.604,26.363c0.661,2.901-0.842,4.097-3.906,4.087
		c-24.48-0.084-48.962-0.117-73.442,0.018c-4.424,0.023-4.353-2.484-4.067-5.51c1.775-18.851,9.576-34.716,23.411-47.674
		c11.492-10.763,11.457-8.607-0.123-19.529C10.124,47.873,2.317,32.007,0.625,13.143c-0.243-2.713-0.57-5.351,3.686-5.331
		c25.146,0.117,50.293,0.09,75.44,0.127C80.229,7.939,80.707,8.147,81.959,8.438z"/>
	<path clip-path="url(#SVGID_2_)" fill="none" stroke="#989898" stroke-miterlimit="10" d="M81.699,0.5
		C68.216,0.541,54.73,0.521,41.245,0.521c-13.484,0-26.969,0.017-40.454-0.018"/>
	<path clip-path="url(#SVGID_2_)" fill="none" stroke="#989898" stroke-miterlimit="10" d="M0.819,140.874
		c13.487-0.039,26.974-0.021,40.461-0.02c13.487,0,26.976-0.018,40.461,0.018"/>
</g>
</svg>
