<?xml version="1.0" encoding="utf-8"?>
<!-- Generator: Adobe Illustrator 19.1.0, SVG Export Plug-In . SVG Version: 6.00 Build 0)  -->
<svg version="1.1" id="Layer_1" xmlns="http://www.w3.org/2000/svg" xmlns:xlink="http://www.w3.org/1999/xlink" x="0px" y="0px"
	 viewBox="0 0 183.5 183.6" style="enable-background:new 0 0 183.5 183.6;" xml:space="preserve">
<style type="text/css">
	.st0{clip-path:url(#SVGID_2_);fill:none;stroke:#000000;stroke-width:2;stroke-miterlimit:10.43;}
</style>
<g>
	<defs>
		<rect id="SVGID_1_" width="183.5" height="183.6"/>
	</defs>
	<clipPath id="SVGID_2_">
		<use xlink:href="#SVGID_1_"  style="overflow:visible;"/>
	</clipPath>
	<path class="st0" d="M90.4,1.1c1.4-0.3,2.9-0.1,4.2,0.5c1.8,0.9,3.2,2.6,3.5,4.6c0.1,0.7,0.1,1.4,0.1,2.2c0,6.4,0,12.8,0,19.2
		c0,1.6-0.6,3.1-1.6,4.3c-2.1,2.4-6.2,2.8-8.7,0.7c-1.5-1.2-2.4-3.1-2.4-5c0-6.8,0-13.6,0-20.4C85.3,4.4,87.5,1.7,90.4,1.1z"/>
	<path class="st0" d="M29.9,26.1c2.3-0.9,5-0.3,6.7,1.4c4.6,4.6,9.2,9.2,13.7,13.7c0.9,0.8,1.6,1.7,2,2.9c0.9,2.4,0.2,5.2-1.6,6.9
		c-0.5,0.5-1.1,0.8-1.6,1.1c-0.7,0.3-1.4,0.4-2.2,0.6c-0.7,0.1-1.5-0.1-2.2-0.2c-0.2-0.1-0.4-0.1-0.6-0.2c-1.1-0.4-2-1.1-2.8-2
		c-4.6-4.6-9.1-9.1-13.7-13.7c-1.4-1.3-2.1-3.3-1.9-5.1C25.9,29.2,27.6,27,29.9,26.1z"/>
	<path class="st0" d="M146.8,27.7c1.3-1.3,3.1-2,4.9-1.9c2.5,0.1,4.9,1.9,5.7,4.3c0.8,2.2,0.2,4.9-1.5,6.6
		c-4.7,4.7-9.5,9.5-14.2,14.2c-0.7,0.7-1.5,1.2-2.4,1.6c-0.2,0.1-0.4,0.1-0.6,0.2c-0.4,0.1-0.8,0.1-1.2,0.2
		c-1.9,0.1-3.9-0.7-5.2-2.1c-1.7-1.8-2.2-4.7-1.1-7c0.3-0.7,0.8-1.4,1.4-2C137.3,37.1,142.1,32.4,146.8,27.7z"/>
	<path class="st0" d="M85.2,48.5c4.3-0.7,8.8-0.7,13.1,0c0.4,0.1,0.8,0.1,1.2,0.2c0.9,0.2,1.8,0.4,2.7,0.6c1.5,0.4,3,0.8,4.5,1.4
		c1.3,0.5,2.7,1.1,4,1.7c0.2,0.1,0.4,0.2,0.6,0.3c6.2,3.1,11.6,7.7,15.7,13.3c4.6,6.2,7.5,13.7,8.3,21.5c0.9,8.2-0.7,16.7-4.4,24.1
		c-4.7,9.4-12.9,17-22.6,20.9c-0.3,0.1-0.7,0.3-1,0.4c-0.2,0.1-0.5,0.2-0.7,0.3c-0.7,0.2-1.5,0.5-2.2,0.7c-0.5,0.1-0.9,0.3-1.4,0.4
		c-0.3,0.1-0.5,0.1-0.8,0.2c-0.3,0.1-0.5,0.1-0.8,0.2c-0.3,0.1-0.6,0.1-1,0.2c-0.3,0.1-0.7,0.1-1,0.2c-0.4,0.1-0.8,0.1-1.2,0.2
		c-0.5,0.1-1,0.1-1.6,0.2c-0.8,0.2-1.6,0.1-2.4,0.2c-2.5,0.3-5.1,0.1-7.7-0.2c-0.5,0-1-0.1-1.5-0.2c-0.4-0.1-0.8-0.1-1.2-0.2
		c-0.7-0.1-1.3-0.2-2-0.4c-0.3-0.1-0.5-0.1-0.8-0.2c-0.3-0.1-0.5-0.1-0.8-0.2c-0.5-0.1-0.9-0.3-1.4-0.4c-0.7-0.2-1.5-0.5-2.2-0.7
		c-0.2-0.1-0.5-0.2-0.7-0.3c-0.3-0.1-0.7-0.3-1-0.4c-0.9-0.4-1.7-0.7-2.5-1.1c-6.5-3.2-12.2-8-16.4-13.8c-4.5-6.2-7.3-13.5-8-21.1
		c-0.9-8.8,0.9-17.9,5.2-25.6c4.3-7.7,10.9-14.1,18.8-18.1c0.2-0.1,0.4-0.2,0.6-0.3c0.7-0.3,1.3-0.6,2-0.9c0.7-0.3,1.3-0.5,2-0.8
		c0.8-0.3,1.6-0.5,2.4-0.8c0.5-0.1,0.9-0.3,1.4-0.4c0.3-0.1,0.5-0.1,0.8-0.2c0.9-0.2,1.8-0.4,2.7-0.6C84.4,48.6,84.8,48.5,85.2,48.5
		z"/>
	<path class="st0" d="M5.5,85.7c0.6-0.1,1.2-0.3,1.8-0.3c6.3,0,12.7,0,19,0c0.9,0,1.8-0.1,2.7,0.1c0.5,0.1,1,0.3,1.4,0.5
		c0.4,0.2,0.7,0.5,1.1,0.7c1.7,1.4,2.7,3.7,2.4,5.9c-0.2,2-1.4,3.8-3.1,4.8c-0.3,0.1-0.5,0.3-0.8,0.4c-0.3,0.1-0.7,0.2-1,0.3
		c-0.4,0.1-0.9,0.1-1.4,0.1c-6,0-12,0-18,0c-1.1,0-2.3,0-3.4,0l0-0.1C5.9,98,5.6,98,5.3,97.9c-0.3-0.2-0.6-0.3-0.9-0.4
		c-0.2-0.1-0.3-0.2-0.5-0.3c-1.6-1.1-2.7-2.8-2.9-4.7C0.7,89.8,2.3,87,4.7,86C5,85.9,5.2,85.8,5.5,85.7z"/>
	<path class="st0" d="M154.4,85.6c0.8-0.2,1.6-0.1,2.3-0.1c6.1,0,12.3,0,18.4,0c0.8,0,1.6,0,2.3,0.1c0.4,0.1,0.8,0.2,1.2,0.4
		c1.2,0.6,2.2,1.5,2.9,2.6c1.1,1.9,1.1,4.3,0.1,6.2c-0.5,1-1.3,1.7-2.1,2.4c-0.2,0.1-0.3,0.2-0.5,0.3c-0.3,0.2-0.6,0.3-0.9,0.5
		c-0.3,0.1-0.6,0.1-0.9,0.2l0,0.1c-6.5,0.1-13,0-19.5,0c-1.1,0-2.2,0.1-3.3-0.1c-0.4-0.1-0.8-0.2-1.2-0.4c-0.2-0.1-0.4-0.2-0.6-0.3
		c-1.1-0.7-2-1.6-2.5-2.8c-1-2-0.8-4.5,0.4-6.3c0.7-1.1,1.7-1.9,2.9-2.4C153.7,85.8,154.1,85.6,154.4,85.6z"/>
	<path class="st0" d="M45.9,130.8c0.3,0,0.6,0,0.9,0c0.9,0.1,1.9,0.4,2.7,0.8c1.1,0.7,2.1,1.6,2.7,2.8c0.9,1.9,0.8,4.3-0.3,6.1
		c-0.5,0.9-1.2,1.5-1.9,2.2c-4.4,4.4-8.8,8.8-13.2,13.2c-1.3,1.3-3.2,2.1-5.1,1.9c-2.7-0.2-5.1-2.2-5.7-4.8
		c-0.6-2.2,0.1-4.6,1.7-6.1c4.2-4.3,8.5-8.5,12.7-12.8c0.9-0.9,1.8-1.9,2.9-2.6c0.2-0.1,0.4-0.2,0.7-0.3c0.3-0.1,0.5-0.2,0.8-0.3
		C45.1,131,45.5,130.9,45.9,130.8z"/>
	<path class="st0" d="M136.7,130.8c0.3,0,0.6,0,0.9,0c0.4,0.1,0.8,0.1,1.2,0.2c0.6,0.2,1.2,0.5,1.8,0.8c1.6,1.2,2.8,2.7,4.2,4
		c3.7,3.7,7.4,7.4,11.1,11.1c0.9,0.9,1.6,2.1,1.8,3.4c0.4,2-0.3,4.3-1.8,5.7c-1.2,1.2-2.9,1.9-4.6,1.9c-1.7,0-3.4-0.8-4.6-2
		c-4.7-4.8-9.5-9.5-14.2-14.2c-1.9-2-2.3-5.2-0.9-7.6c0.6-1,1.5-1.9,2.5-2.5C134.9,131.2,135.8,130.9,136.7,130.8z"/>
	<path class="st0" d="M87,151.7c1-1.1,2.4-1.8,3.9-2c1.7-0.2,3.4,0.2,4.8,1.2c1.6,1.2,2.6,3.1,2.6,5.1c0,6.7,0,13.3,0,20
		c0,1.6-0.5,3.2-1.5,4.4c-1.8,2.2-5.1,2.9-7.7,1.6c-2.2-1-3.6-3.3-3.6-5.6c0-6.8,0-13.6,0-20.4C85.3,154.4,85.9,152.8,87,151.7z"/>
</g>
</svg>
