<?xml version="1.0" encoding="utf-8"?>
<!-- Generator: Adobe Illustrator 19.1.0, SVG Export Plug-In . SVG Version: 6.00 Build 0)  -->
<svg version="1.1" id="Layer_1" xmlns="http://www.w3.org/2000/svg" xmlns:xlink="http://www.w3.org/1999/xlink" x="0px" y="0px"
	 viewBox="0 0 57.6 57.6" style="enable-background:new 0 0 57.6 57.6;" xml:space="preserve">
<style type="text/css">
	.st0{fill:none;stroke:#FFFFFF;stroke-width:0.85;stroke-miterlimit:10;}
</style>
<g>
	<path class="st0" d="M27.4,39.7c-3.5-1.4-6.7-3.8-8.4-7.2c-3-5.5-2-12.8,2.3-17.3c3.5-3.5,7-7.1,10.6-10.6
		c3.8-3.7,9.7-5.1,14.7-3.5C52,2.6,56.2,7.5,57,13c0.8,4.7-0.9,9.6-4.2,12.9c-4,3.9-7.8,8-11.9,11.7"/>
	<path class="st0" d="M30.2,17.9c3.2,1.4,6.3,3.4,8,6.6c3.4,5.5,2.6,13.2-1.9,17.9C32.7,46,29,49.7,25.4,53.3
		c-5.1,4.8-13.7,5.2-19.2,0.8C1.5,50.5-0.7,44,1,38.4c0.7-3.1,2.7-5.7,5-7.8C9.6,27,13,23.2,16.8,19.9"/>
</g>
</svg>
