<?xml version="1.0" encoding="utf-8"?>
<!-- Generator: Adobe Illustrator 19.1.0, SVG Export Plug-In . SVG Version: 6.00 Build 0)  -->
<svg version="1.1" id="Layer_1" xmlns="http://www.w3.org/2000/svg" xmlns:xlink="http://www.w3.org/1999/xlink" x="0px" y="0px"
	 viewBox="0 0 52.2 51.6" style="enable-background:new 0 0 52.2 51.6;" xml:space="preserve">
<style type="text/css">
	.st0{clip-path:url(#SVGID_2_);fill:none;stroke:#989898;stroke-miterlimit:10;}
</style>
<g>
	<defs>
		<rect id="SVGID_1_" y="0" width="52.2" height="51.6"/>
	</defs>
	<clipPath id="SVGID_2_">
		<use xlink:href="#SVGID_1_"  style="overflow:visible;"/>
	</clipPath>
	<path class="st0" d="M0.5,51.6C0.6,49,0.3,46.3,1,43.7c0.6-2.1,2.4-3.5,4.4-4.1c3.6-1.1,7.4-1.5,10.7-3.2c1.4-0.7,2.8-1.8,2.8-3.5
		c0.1-2-1.2-3.7-2-5.5c-2.4-4.9-4.2-10.3-3.5-15.9c0.4-3.6,2.3-7.1,5.4-9.1c3.4-2.1,7.8-2.5,11.6-1.3c2.7,0.8,5,2.5,6.5,4.9
		c1.8,3,2.2,6.6,1.8,10.1c-0.5,4.3-2.1,8.5-4,12.4c-0.7,1.5-1.8,3.2-1.3,5c0.4,1.6,1.9,2.5,3.3,3.2c3.1,1.4,6.6,1.9,9.9,2.9
		c2.1,0.6,4.1,2.1,4.7,4.3c0.7,2.6,0.6,5.2,0.5,7.9"/>
</g>
</svg>
