<?xml version="1.0" encoding="utf-8"?>
<!-- Generator: Adobe Illustrator 19.1.0, SVG Export Plug-In . SVG Version: 6.00 Build 0)  -->
<svg version="1.1" id="Isolation_Mode" xmlns="http://www.w3.org/2000/svg" xmlns:xlink="http://www.w3.org/1999/xlink" x="0px"
	 y="0px" viewBox="0 0 43 54.7" style="enable-background:new 0 0 43 54.7;" xml:space="preserve">
<style type="text/css">
	.st0{fill:none;stroke:#FFFFFF;stroke-width:0.85;stroke-miterlimit:10;}
</style>
<g>
	<g>
		<path class="st0" d="M5,23.6c1.6,0,3.3,0,4.9,0c0,3.6,0,7.3,0,10.9c0.9,0,1.8,0,2.6,0c0-3.6,0-7.3,0-10.9h4.9c0,3.8,0,7.6,0,11.4
			c4.4-2,8.2-5.2,12.4-7.7v7.4c3.7-2.5,7.5-4.9,11.2-7.4c0,6.1,0,12.3,0,18.4c0,3.4-2.7,6.1-6.1,6.1c-8.7,0-17.4,0-26.1,0
			c-3.4,0-6.1-2.7-6.1-6.1c0-3.7,0-7.4,0-11.1c0.8-0.1,1.5-0.1,2.3-0.2C5,30.9,5,27.3,5,23.6z M7.6,43c0,0.6,0,1.3,0,1.9
			c0,1.2,1,2.1,2.1,2.1c0.6,0,1.2,0,1.9,0c1.2,0,2.1-1,2.1-2.1c0-0.6,0-1.3,0-1.9c0-1.2-1-2.1-2.1-2.1c-0.6,0-1.2,0-1.9,0
			C8.5,40.8,7.6,41.8,7.6,43z M20,43v1.9c0,1.2,1,2.1,2.1,2.1c0.7,0,1.3,0,2,0c1.2,0,2.1-1,2.1-2.1c0-0.6,0-1.2,0-1.9
			c0-1.2-1-2.1-2.1-2.1c-0.7,0-1.3,0-2,0C21,40.8,20,41.8,20,43z"/>
	</g>
	<path class="st0" d="M17.7,3.9c-2.5,1-4.3,3.1-5,5.5c-0.7,0-1.3,0.2-2,0.4c-2,0.8-3.3,2.6-3.6,4.6c-0.3,0-0.6,0.1-0.8,0.2
		c-1.6,0.7-2.4,2.5-1.7,4.1c0.7,1.6,2.5,2.4,4.1,1.7c0.3-0.1,0.5-0.3,0.7-0.4c1.6,1.2,3.8,1.5,5.8,0.7c0.7-0.3,1.2-0.6,1.7-1.1
		c2.2,1.2,4.9,1.4,7.4,0.3c4.4-1.8,6.6-6.9,4.7-11.4C27.2,4.2,22.1,2.1,17.7,3.9z"/>
</g>
</svg>
