<?xml version="1.0" encoding="utf-8"?>
<!-- Generator: Adobe Illustrator 19.1.0, SVG Export Plug-In . SVG Version: 6.00 Build 0)  -->
<svg version="1.1" id="Layer_1" xmlns="http://www.w3.org/2000/svg" xmlns:xlink="http://www.w3.org/1999/xlink" x="0px" y="0px"
	 viewBox="0 0 111 56.8" style="enable-background:new 0 0 111 56.8;" xml:space="preserve">
<style type="text/css">
	.st0{fill:none;stroke:#FFFFFF;stroke-width:0.85;stroke-miterlimit:10;}
</style>
<g>
	<path class="st0" d="M33.9,0.4h0.5c2.6,0.6,5.3,0.1,7.9,0.5c1.9,0.2,3.9-0.3,5.8,0.2c-0.9,0.9-1.6,2.3-3,2.4C45.1,4,45,4.5,44.8,5
		c-2,0.4-4,0.8-5.6,2c-0.5,0.6-1,1.2-1.4,1.8c-1.1-0.7-1.5-1.9-1.8-3.1c0.5-0.1,1.1-0.2,1.6-0.4c-0.3-0.7-0.4-1.6-1-2.2
		c-0.5-0.6-1.4-0.6-2.1-0.9c0.1-0.2,0.2-0.5,0.2-0.7C33.3,1.9,32,2.4,30.8,3c-0.7-0.3-1.4-0.5-2-0.9c0.4-0.6,1.1-0.6,1.7-0.7
		C31.7,1.2,32.8,0.8,33.9,0.4z M34.9,1.9c0.4,0.3,1.5,0.2,1.5-0.5C36,1.3,35,1.4,34.9,1.9z"/>
	<path class="st0" d="M73.5,3.9c1.3-0.3,2.7-0.2,3.8-1.1c1.5-0.1,3,0,4.5,0.2c-0.2,0.3-0.6,0.8-0.8,1c0.9,0,1.8,0,2.6,0.2
		c1,0.2,2-0.3,3.1,0c1.1,0.3,2.2,0.5,3.3,0.6c0.6,0.1,0.8-0.5,1.2-0.8c0.8,0.3,1.7,0.7,2.6,0.6c2.1-0.1,4.2,0.6,6.3,0.7
		c2.1-0.6,4.1,0.5,6.2,0.6c0.7,0,1.3,0.4,1.8,0.9c-1.1-0.1-2.2-0.7-3.2,0c0.6,0.4,1.2,0.7,1.8,1.1c-0.2,0.1-0.7,0.2-1,0.2
		c-0.2,0.2-0.4,0.5-0.7,0.7c-0.6-0.6-1.2,0-1.6,0.5c0.4,0.3,0.9,0.5,1.2,1c0.1,0.8,0,1.6,0,2.3c-0.9-0.7-1.7-1.6-2.3-2.5
		c-0.3-0.4,0.2-1,0.3-1.4c0-0.2-0.1-0.6-0.2-0.8c-0.6,0.2-1.2,0.4-1.8,0.1c-0.2,0.4-0.3,0.9-0.5,1.3c-1-0.2-1.9-0.4-2.9-0.5
		c-0.8,0.6-1.3,1.4-1.1,2.4c0.8,0.1,1.6,0.1,2.4,0.2c0.5,0.4,0.8,0.9,1.3,1.3c-0.1,0.9-0.1,1.8-0.4,2.7c-0.4,0-0.8,0.1-1.1,0.1
		c-0.2,0.5-0.4,1-0.6,1.5c0.6,0.5,1.1,0.9,1.7,1.4c-0.3,0.4-0.6,1.1-1.3,0.9c-0.1-0.2-0.2-0.7-0.3-0.9c-0.7-0.4-1.1-1.7-2-1
		c-0.1-0.3-0.4-0.8-0.5-1c-0.5,0.6-1,1.2-1.4,1.8c0.7,0,1.4,0,2.1,0c-0.1,0.3-0.4,0.8-0.6,1c0.8,1,2.3,2.1,1.6,3.6
		c-0.3,1-1.4,1.3-2.2,1.7c-0.6,0.5-0.9,1.3-1.3,1.9c0-0.5,0-1-0.1-1.5c-0.3-0.1-0.6-0.3-0.8-0.4c-0.3,0.4-0.6,0.8-0.9,1.2
		c0.8,0.8,1.8,1.6,2,2.8c-0.3,0.8-1,1.3-1.6,1.8c-0.7-0.7-1.3-1.4-2.1-2.1c-0.1,0.8-0.1,1.6-0.2,2.3c-0.4-1.1-0.3-2.4-0.8-3.5
		c-0.2,0.1-0.5,0.3-0.7,0.4c-0.6-1.3-1.5-2.8-3-3.1c-0.8,0.8-1.7,1.5-2.5,2.2c-0.9,0.9-0.5,2.1-0.6,3.2c-0.3,0.3-0.7,0.6-1,0.9
		c-0.7-2-1.9-3.8-1.9-5.9c-0.2,0.1-0.7,0.3-0.9,0.4c-0.7-0.7-1.3-1.4-2.2-1.9c-1.3-0.1-2.7,0-3.8-0.8c-1.2-0.2-2.3-0.8-3.2-1.6
		c0.4,1.1,0.7,2.3,1.5,3.1c0.6-0.3,1.2-0.7,1.7-1.2c0.3,0.7,0.9,1.3,1.5,1.8c-0.8,0.9-1.5,2.1-2.7,2.6c-0.9,0.4-1.8,1-2.7,1.2
		c-1.1-0.1-0.9-1.5-1.5-2.2c-1-1.4-1.7-3-2.8-4.4c-0.2,0-0.7-0.1-0.9-0.1c0.6,1.1,1.1,2.2,1.5,3.3c0.6,1.6,2.2,2.7,2.7,4.4
		c1.1,0,2.1-0.1,3.2-0.3c-0.6,3-3.5,4.6-4.8,7.2c0.2,1.4,0.9,2.8,0.4,4.2c-0.7,0.7-1.6,1.2-2,2.2c0,0.5,0,0.9,0.1,1.4
		c-1.1,1-1.6,2.5-2.7,3.3c-0.9,1-2.2,1.1-3.4,1.4c-0.4-1.1-0.9-2.2-1.4-3.2c-0.2-1.3-0.5-2.6-1.2-3.8c-0.8-1.1,0.7-2.2,0.5-3.3
		c-0.1-1.5-0.7-2.9-1.8-4c0.1-0.7,0.4-1.6,0-2.3c-0.3-0.2-0.7-0.3-1-0.4c-1.6-1.5-3.7,0.3-5.6,0.1c-1.7-0.5-2.1-2.4-3.4-3.4
		c-0.1-1.3,0.4-2.5,0.2-3.8c0.3-1.5,1.5-2.6,2.5-3.6c0.2-1.1,1.1-1.7,1.8-2.3c2.1,0,4.1-0.5,6.1-0.8c-0.1,0.3-0.3,1-0.4,1.4
		c1.1,0.7,2.3,1.2,3.6,1.6c0.2-0.4,0.3-0.7,0.5-1.1c1.4,0.8,3,0.8,4.5,0.8c0.9-0.3,0.9-1.5,1.2-2.3c-1.3-0.1-2.6,0.1-3.7-0.6
		c0-0.5,0-0.9,0-1.4c-0.5,0.1-1,0.2-1.4,0.3c0.1,0.2,0.3,0.5,0.4,0.7c-0.1,0.2-0.3,0.7-0.4,0.9c-0.6-0.7-1.1-1.5-1.4-2.4
		c-0.9-0.5-1.7-1.2-2.6-1.6c0.4,1.1,1.5,1.7,2.4,2.3c-0.5,0.5-1,0.9-1.4,1.4c0-0.1-0.1-0.2-0.1-0.3c0.2-0.2,0.6-0.5,0.8-0.7
		c-0.8-0.8-1.8-1.4-2.7-2.1c-0.2,0.2-0.5,0.5-0.6,0.6c-0.2-0.1-0.6-0.2-0.7-0.2c-0.7,0.7-1.6,1.3-1.9,2.3c-0.4,0.2-0.8,0.5-1.3,0.7
		c-0.6-0.2-1.4-0.1-1.8-0.7c-0.1-0.9,0.1-1.7,0.3-2.6c0.7,0.1,1.3,0.3,1.9,0.5c1-0.6,0.4-1.5-0.3-2.1c0.2,0,0.7,0,0.9,0
		c-0.2-0.1-0.5-0.4-0.7-0.5c1.3,0.1,2.3-0.7,3.1-1.5c0.4-0.2,0.8-0.4,1.2-0.6c0.4,0,0.8,0,1.2-0.1c0.2,0.1,0.5,0.2,0.7,0.3
		c0.6-0.1,1.2-0.3,1.8-0.4c0.1-0.3,0.2-0.7,0.4-1c0.2,0.1,0.5,0.2,0.6,0.3c0-0.2,0-0.7,0-1c0.5,0,1-0.2,1.4-0.5
		c-0.7-0.2-1.7,0.3-2.1-0.5c0.2-0.5,0.4-0.9,0.6-1.4C58.5,7,58,7.2,57.4,7.5c0,0.6,0,1.1,0.1,1.7c-0.4,0.5-0.7,1.3-1.5,1.3
		c-0.6-0.6-1.2-1.2-1.9-1.6C54,9,53.7,9.2,53.5,9.3c0-0.3,0-1,0-1.3c0.2,0,0.6-0.1,0.8-0.1c0.9-1.3,2.3-2.3,3.8-3
		C60,4.8,62,5,63.6,6c-0.6,0.5-1.5,0.1-2.2,0.3c0.5,0.4,1,0.8,1.4,1.2c1.2-1,2.6-1.9,4.2-1.8c0.6,0.1,1.1-0.2,1.6-0.4
		c0.8,0.4,1.8,0.8,2.7,0.5C71,5.2,70.6,4.6,70.3,4c0.5,0.1,0.9,0.1,1.4,0.3c0.7,0.5,0.2,2.2,1.4,1.8c-0.3-0.6-0.5-1.2-0.8-1.8
		c0.4,0.4,0.7,0.9,1.1,1.3C74.1,5.2,73.5,4.4,73.5,3.9z"/>
	<path class="st0" d="M17.7,4.2c0.3-0.3,0.6-0.5,1-0.8c0.4,0,0.9,0.1,1.3,0.1c0.9,0.9,2.1,0.7,3.2,0.4c0,0.3-0.1,0.8-0.1,1.1
		c-1.3,0.3-2.6,0.4-3.8,0.3c0-0.2-0.1-0.7-0.1-0.9C18.6,4.4,18.1,4.3,17.7,4.2z"/>
	<path class="st0" d="M27.9,3.6c0.2,0.1,0.6,0.2,0.8,0.2c1.1-0.2,2.2,0.1,3.2,0.4c0.3,0.7,0.6,1.4,0.9,2.1l-0.9-0.2
		C32,6.5,32.2,7,32.4,7.3c-0.2-0.1-0.6-0.2-0.8-0.3c0,0.3,0.1,0.9,0.1,1.2c-0.8-0.3-1.6-0.7-2.4-1.1c0.5-0.3,1-0.6,1.5-0.8
		c-0.2-0.5-0.3-0.9-0.6-1.3c-0.7-0.3-1.4-0.3-2.1-0.4c0,0.3,0,0.8,0,1.1c-0.8,0.3-1.6,0.6-2.3,1c-0.1-0.1-0.3-0.3-0.5-0.3
		c-0.1,0.2-0.2,0.6-0.2,0.8c-1.3,0.4-2.7,0.8-3.6,2c0.1,1.3,1.6,1.3,2.5,1.6c-0.1,0.6,0,1.2,0.4,1.7c0.5-0.9,1.2-1.7,2.2-2
		c0-0.5,0-1,0-1.5c0.5-0.4,1-0.7,1.5-1.1c0.9,0.2,1.5,0.7,1.7,1.6c0.6-0.3,1.1-0.5,1.7-0.8c0,0.5-0.1,1-0.1,1.6
		c0.4,0.4,0.9,0.8,1.3,1.2c-1.2,1.9-3.8,0.8-5.6,1.9c0.7,0,1.4,0.1,2.1,0.1c-0.2,0.2-0.5,0.7-0.7,0.9c0.6,0,1.3,0,1.9,0
		c-0.5,0.3-1.1,0.5-1.6,0.7c-0.4,0.2-0.8,0.5-1.2,0.7c0.2-0.4,0.4-0.9,0.6-1.3c-1,0.5-2,1.1-2.7,2c-0.2,0-0.5,0.1-0.7,0.1
		c-0.6,0.7-1.3,1.4-1.9,2c-0.7,0.8-1.8,1.3-2.6,2c-0.1,1,0,2-0.4,3c-0.4-1.1-0.7-2.5-2.1-2.7c-0.4,0.3-0.7,0.6-1.1,0.9
		c-0.2-0.2-0.5-0.5-0.7-0.6c-0.7,0.3-1.5,0.7-2.2,1c-0.3,0.9-0.7,1.8-0.8,2.8c0,0.8,0.9,1,1.5,1.4c0.3-0.2,0.5-0.3,0.8-0.5
		c0.4-0.6,1-1.1,1.7-1.1c-0.3,0.8-0.5,1.6-0.8,2.3c0.5,0,1.1,0.1,1.6,0.1c0,0.5-0.1,1.1-0.1,1.6c-0.1,0.9,0.8,1.4,1.2,2.1
		c-1.3-0.4-2.1-1.4-2.7-2.6c-0.9-0.2-1.7-0.6-2.4-1c-1.4,0.1-2.7-0.6-3.8-1.4c-0.3-2.1-1.8-3.7-2.5-5.7c0,1.2,0.4,2.4,0.6,3.6
		c-0.8-1.1-0.9-2.5-1.4-3.8c-0.8-0.9-1.1-2-1.1-3.2c0.9-1.1,1.9-2.3,2.5-3.6c0.1-1.2,0-2.5,0-3.7c-1-0.6-2.2-1-3.4-0.9
		c-1.2,0.2-2.4,0.6-3.6,1c-0.3-0.3-0.7-0.5-1-0.8V8.1c1-0.4,2-0.7,3-1.1C2.9,7,2.3,6.9,1.8,6.9c0.2-0.1,0.5-0.4,0.7-0.6
		c0.4,0.1,1.1,0.2,1.5,0.3C3.8,6.3,3.7,5.9,3.6,5.6c2.3-0.7,4.7-0.9,7.1-1c0.6,0.5,1.1,1.4,2,1c1.8-0.6,3.8-0.4,5.6-0.2
		c0.6,0.3,1.3,0.6,1.9,0.8c0.1-0.2,0.4-0.5,0.5-0.6c1.1,0,2.2,0.1,3.3,0.4c0.4-0.5,0.7-0.9,1.1-1.4c0.2-0.1,0.4-0.2,0.6-0.3
		c0.2,0.5,0.5,0.9,0.7,1.4c0.3-0.1,0.9-0.2,1.3-0.3C27.7,4.8,27.8,4.2,27.9,3.6z"/>
	<path class="st0" d="M20.4,30.6c0.6-0.8,1.3-1.3,2.1-1.9c0.2,0.5,0.3,1,0.4,1.5c0.2-0.4,0.3-0.8,0.5-1.2c0.9,0.3,1.8,0.5,2.7,0.6
		c1.3,0.9,2.6,1.8,4,2.5c0.6,0.3,0.8,1,1.1,1.5c-0.2,0.2-0.5,0.5-0.7,0.6c2.3,0.4,4.8,1,6.8,2.4c-0.5,1.1-1.3,2.1-1.5,3.4
		c-0.3,1.2-0.2,2.5-0.9,3.6c-0.7,0.5-1.7,0.7-2.5,1c0,0.3,0.1,0.8,0.1,1c-0.6,1.1-0.9,2.5-2,3.3c-0.5,0-1-0.1-1.4-0.2
		c0.4,0.3,0.8,0.6,1.2,1c-0.3,0.4-0.6,0.7-0.9,1.1c-0.2-0.1-0.6-0.2-0.8-0.2c0,0.3,0,0.9,0,1.2c-0.3,0-0.8-0.1-1-0.1
		c0.2,0.3,0.5,0.7,0.7,1c-0.2,0.3-0.4,0.7-0.6,1c1.1,0.6,0.3,1.9,0.4,2.8h-0.6c-1-0.6-1.5-1.6-2.1-2.5c0.2-0.3,0.3-0.5,0.5-0.8
		c-0.6-1.1-1.3-2.3-1.3-3.6c-0.1-2.4-0.5-4.8-0.2-7.2c-1.3-1-2.9-1.8-3.6-3.3c-0.5-1-1-1.9-1.7-2.7c0.1-0.2,0.4-0.6,0.5-0.8
		c-0.1-0.1-0.3-0.5-0.4-0.6c0.6-1,1.2-1.9,1.8-3C20.5,31.4,20.4,31,20.4,30.6z"/>
	<path class="st0" d="M96.9,31.2c0.7,0.7,0.4,1.7,0.5,2.5c-0.3,0.6-0.6,1.1-1,1.6c-0.7,0.2-1.3,0-2,0c-0.2-0.5-0.4-1.1-0.6-1.6
		c0.8-0.1,1-0.8,1.4-1.3C95.8,32.1,96.4,31.7,96.9,31.2z"/>
	<path class="st0" d="M88.5,31.6c1.6,1.2,3.4,2.4,4,4.4c-0.1,0.2-0.3,0.6-0.5,0.9C90.7,35.3,89.6,33.4,88.5,31.6z"/>
	<path class="st0" d="M102.5,34.3c0.2,0,0.7,0.1,0.9,0.1c0.2,0.5,0.5,1,0.7,1.4c0.4-0.3,0.7-0.6,1.1-1c1.4,0.6,3.3,0.8,3.7,2.5
		c0.4,0.4,0.8,0.9,1.2,1.3c-1,0-1.7-0.8-2.4-1.3c-0.2,0.1-0.5,0.4-0.7,0.5c-0.6-0.2-1.2-0.3-1.7-0.5c0-0.2,0-0.7,0-1
		c-0.7-0.3-1.3-0.6-2-0.8C103,35.2,102.7,34.7,102.5,34.3z"/>
	<path class="st0" d="M102.5,39.2c0.5,0,1.1,0,1.6,0c-0.1,0.5-0.2,0.9-0.3,1.4c0.6,0.3,1.1,1.1,1.8,0.8c0.6-0.7,0.7-1.6,0.9-2.5
		c0.6,1,1,2,1.1,3.1c0.5,1,1.5,1.7,1.8,2.8c0,2.8-2.5,4.8-4.7,5.9c-0.6-0.1-1.2-0.2-1.7-0.4c-0.2-0.7-0.4-1.5-0.3-2.2
		c-0.4,0.2-0.7,0.4-1.1,0.6c-0.3-0.4-0.5-0.9-0.8-1.3c-2.2,0.2-4.3,1.2-6.5,1.5c0.2-1.5,0-3,0.3-4.4c0-1.5,1.9-1.5,2.9-2.1
		c1-0.7,1.8-1.7,2.7-2.5l0.9,0.9C101.5,40.2,102,39.7,102.5,39.2z"/>
	<path class="st0" d="M68.1,41.1c0.9-0.4,1.7-0.9,2.3-1.7c0.2,1.9-1,3.4-1.3,5.2c-0.4,0.1-0.8,0.2-1.2,0.3c-0.1-0.5-0.3-1-0.4-1.5
		c0.2-0.2,0.5-0.5,0.7-0.7C68.1,42.2,68.1,41.6,68.1,41.1z"/>
</g>
</svg>
