<?xml version="1.0" encoding="utf-8"?>
<!-- Generator: Adobe Illustrator 19.1.0, SVG Export Plug-In . SVG Version: 6.00 Build 0)  -->
<svg version="1.1" id="Isolation_Mode" xmlns="http://www.w3.org/2000/svg" xmlns:xlink="http://www.w3.org/1999/xlink" x="0px"
	 y="0px" viewBox="0 0 60 52.7" style="enable-background:new 0 0 60 52.7;" xml:space="preserve">
<style type="text/css">
	.st0{fill:none;stroke:#FFFFFF;stroke-width:0.85;stroke-miterlimit:10;}
</style>
<g>
	<g>
		<path class="st0" d="M20,14.4c3-3.6,6-7.3,9-10.9c0.2-0.3,0.6-0.3,0.7,0c2.9,3.6,5.8,7.3,8.7,10.9"/>
	</g>
	<g>
		<path class="st0" d="M48.4,27c-3.9,2-7.3,5-9.3,8.9c-2.3,4.3-2.7,9.3-3.1,14.1"/>
		<path class="st0" d="M41.1,20.2c4.6,1.5,9.2,2.9,13.8,4.4l-0.1,0.1c-2.3,4.2-4.5,8.4-6.8,12.6"/>
	</g>
	<line class="st0" x1="29.2" y1="8.9" x2="29.2" y2="49.7"/>
	<g>
		<path class="st0" d="M10.1,27c3.9,2,7.3,5,9.3,8.9c2.3,4.3,2.7,9.3,3.1,14.1"/>
		<path class="st0" d="M17.4,20.2c-4.6,1.5-9.2,2.9-13.8,4.4l0.1,0.1c2.3,4.2,4.5,8.4,6.8,12.6"/>
	</g>
</g>
</svg>
