<?xml version="1.0" encoding="utf-8"?>
<!-- Generator: Adobe Illustrator 19.1.0, SVG Export Plug-In . SVG Version: 6.00 Build 0)  -->
<svg version="1.1" id="Layer_1" xmlns="http://www.w3.org/2000/svg" xmlns:xlink="http://www.w3.org/1999/xlink" x="0px" y="0px"
	 viewBox="0 0 829.5 424.5" style="enable-background:new 0 0 829.5 424.5;" xml:space="preserve">
<style type="text/css">
	.st0{fill:none;stroke:#5D5F5E;stroke-width:0.25;stroke-miterlimit:10;}
</style>
<g>
	<path class="st0" d="M161.8,265.1c-2.7,2.7-5.5-0.2-8.2,2.5c-2.7,2.7,0.2,5.5-2.5,8.2c-2.7,2.7-5.5-0.2-8.2,2.5
		c-2.7,2.7,0.2,5.5-2.5,8.2c-2.7,2.7-5.5-0.2-8.2,2.5c-2.7,2.7,0.2,5.5-2.5,8.2"/>
</g>
<g>
	<path class="st0" d="M324.4,369.2c-3-2.2-0.7-5.5-3.7-7.7c-3.1-2.2-5.4,1-8.5-1.2c-3-2.2-0.7-5.5-3.7-7.7c-3.1-2.2-5.4,1-8.5-1.2
		c-3.1-2.2-0.7-5.5-3.8-7.7s-5.4,1-8.5-1.2"/>
</g>
<g>
	<path class="st0" d="M678.1,248.4c-3.7,0.4-4.2-3.6-7.9-3.2c-3.7,0.4-3.3,4.4-7.1,4.8c-3.8,0.4-4.2-3.6-7.9-3.2
		c-3.7,0.4-3.3,4.4-7.1,4.8c-3.8,0.4-4.2-3.6-7.9-3.2c-3.8,0.4-3.3,4.4-7.1,4.8"/>
</g>
<g>
	<path class="st0" d="M612.8,342c-2.1,3.1-5.4,0.8-7.6,3.9c-2.1,3.1,1.2,5.4-1,8.5c-2.1,3.1-5.4,0.8-7.6,3.9c-2.1,3.1,1.2,5.4-1,8.5
		c-2.1,3.1-5.4,0.8-7.6,3.9c-2.1,3.1,1.1,5.4-1,8.5"/>
</g>
<g>
	<path class="st0" d="M292.1,95.7c2.1,3.1-1.2,5.4,1,8.5c2.1,3.1,5.4,0.8,7.6,4c2.1,3.1-1.2,5.4,1,8.5c2.1,3.1,5.4,0.8,7.6,4
		c2.1,3.1-1.2,5.4,1,8.5c2.1,3.1,5.4,0.8,7.6,4"/>
</g>
<g>
	<path class="st0" d="M691.7,155.7c1.6-3.4,5.2-1.7,6.8-5.2c1.6-3.4-2-5.1-0.5-8.5c1.6-3.4,5.2-1.7,6.8-5.2c1.6-3.4-2-5.1-0.5-8.5
		c1.6-3.4,5.2-1.7,6.8-5.2c1.6-3.4-2-5.1-0.5-8.5"/>
</g>
<path id="XMLID_1_" class="st0" d="M556.8,351.4c0,0-6.1-4-9.8-14c0,0-0.9-2.4-1.3-3.4c-4.6-10-15.4-15.9-26.5-14
	c-0.3,0.1-0.7,0.1-1,0.2c0.1,0.2,0.1,0.4,0.2,0.6c2.8,8.5,14.6,18.8,27.3,16.5"/>
<path id="XMLID_2_" class="st0" d="M252.9,205.9c0,0-2.5,3.8-8.7,6c0,0-1.5,0.5-2.1,0.8c-6.2,2.9-9.8,9.5-8.7,16.4
	c0,0.2,0.1,0.4,0.1,0.6c0.1,0,0.3-0.1,0.4-0.1c5.2-1.7,11.6-9.1,10.2-16.9"/>
<path id="XMLID_3_" class="st0" d="M598,166.6c0,0,2-4,0.9-10.6c0,0-0.3-1.5-0.4-2.3c-0.6-6.8,3.3-13.3,9.8-15.8
	c0.2-0.1,0.4-0.1,0.6-0.2c0,0.1,0.1,0.3,0.1,0.4c1.1,5.4-2,14.6-9.5,17.3"/>
<path id="XMLID_4_" class="st0" d="M266.7,153.1c0,0,1.7,1.2,4.8,1c0,0,0.7,0,1.1,0c3.1,0.1,5.9,2.3,6.6,5.5c0,0.1,0,0.2,0.1,0.3
	c-0.1,0-0.1,0-0.2,0c-2.5,0.2-6.6-1.8-7.4-5.4"/>
<path id="XMLID_5_" class="st0" d="M537.5,67.1c0,0,1.8-1,3.2-3.7c0,0,0.3-0.7,0.5-0.9c1.6-2.7,4.8-4.1,7.9-3.3c0.1,0,0.2,0,0.3,0.1
	c0,0.1,0,0.1-0.1,0.2c-1,2.3-4.7,5-8.2,4"/>
<path id="XMLID_6_" class="st0" d="M233.2,335.5c0,0-2.5-3.8-8.7-6c0,0-1.5-0.5-2.1-0.8c-6.2-2.9-9.8-9.5-8.7-16.4
	c0-0.2,0.1-0.4,0.1-0.6c0.1,0,0.3,0.1,0.4,0.1c5.2,1.7,11.6,9.1,10.2,16.9"/>
<path id="XMLID_7_" class="st0" d="M411.1,389.7c0,0,4.4-1.1,8.6-6.1c0,0,1-1.2,1.5-1.7c4.8-4.8,12.3-6,18.4-2.6
	c0.2,0.1,0.4,0.2,0.5,0.3c-0.1,0.1-0.2,0.2-0.3,0.3c-3.4,4.3-12.5,7.9-19.4,3.8"/>
<path id="XMLID_8_" class="st0" d="M204.1,153.5c0,0,5.2-5.1,15.7-6.7c0,0,2.5-0.3,3.7-0.6c10.7-2.5,18.7-11.8,19.1-23.1
	c0-0.3,0-0.7,0-1c-0.2,0-0.4,0-0.7,0.1c-8.9,1-21.4,10.5-21.8,23.4"/>
<circle class="st0" cx="801.5" cy="115.4" r="4.6"/>
<circle class="st0" cx="190.2" cy="410.4" r="2.3"/>
<circle class="st0" cx="92.9" cy="10" r="2.3"/>
<circle class="st0" cx="13.8" cy="147.6" r="4.6"/>
<circle class="st0" cx="814.2" cy="405.8" r="2.3"/>
<circle class="st0" cx="617.9" cy="72.4" r="2.3"/>
<g>
	<path class="st0" d="M793.3,203.8c4.7,4.7,4.5,4.9,9.1,9.6c4.7,4.7,5.6,3.8,10.3,8.5c4.7,4.7,2.5,6.8,7.2,11.5"/>
</g>
<g>
	<path class="st0" d="M43.2,235.8c-4.3,5-4.6,4.8-8.9,9.8c-4.3,5-3.3,5.9-7.6,10.9c-4.3,5-6.8,2.9-11.1,7.9"/>
</g>
<g>
	<path class="st0" d="M161.7,47c5.4,1.9,5,3.1,10.3,5c5.4,1.9,6.7-2,12.1-0.1c5.4,1.9,6.4-1,11.8,0.8"/>
</g>
<g>
	<path class="st0" d="M677.8,63.1c-1.4-1.8-2.5-0.9-3.9-2.7c-1.4-1.8,0.3-3.1-1.1-4.9c-1.4-1.8-2.7-0.8-4-2.6
		c-1.4-1.8-0.6-2.4-1.9-4.2c-1.4-1.8,0.6-3.3-0.8-5.1c-1.4-1.8-1.8-1.5-3.2-3.3c-1.4-1.8-3.4-0.3-4.8-2.1"/>
</g>
<path id="XMLID_9_" class="st0" d="M210.7,1038.6c0,0-1.6,4.2,0.2,10.6c0,0,0.4,1.5,0.6,2.2c1.3,6.7-2,13.6-8.2,16.7
	c-0.2,0.1-0.4,0.2-0.6,0.3c0-0.1-0.1-0.3-0.1-0.4c-1.7-5.3,0.5-14.7,7.7-18.2"/>
<path id="XMLID_10_" class="st0" d="M860.6,1146.8c0,0-3.1-3.3-9.5-4.6c0,0-1.5-0.3-2.2-0.5c-6.5-1.8-11.2-7.9-11.2-14.8
	c0-0.2,0-0.4,0-0.6c0.1,0,0.3,0,0.4,0.1c5.5,0.9,12.9,7.1,12.8,15.1"/>
<path id="XMLID_11_" class="st0" d="M122.9,1588c0,0,5.6,0.7,12.8-3.2c0,0,1.7-1,2.5-1.3c7.7-3.4,17-1.4,22.5,5.3
	c0.2,0.2,0.3,0.4,0.5,0.6c-0.1,0.1-0.3,0.2-0.4,0.3c-5.9,3.5-18,3.5-24.3-4.3"/>
<g>
	<path class="st0" d="M846.5,1688.4c3.8-5.4,4.1-5.2,7.8-10.7c3.8-5.4,2.6-6.3,6.3-11.7c3.8-5.4,6.7-3.4,10.4-8.9"/>
</g>
<g>
	<path class="st0" d="M951.1,810.7c3.8-5.4,4.1-5.2,7.8-10.7c3.8-5.4,2.6-6.3,6.3-11.7s6.7-3.4,10.4-8.9"/>
</g>
<path id="XMLID_12_" class="st0" d="M14.6,1922c0,0-6.8-6.7-20.7-8.7c0,0-3.3-0.4-4.8-0.8c-14.1-3.2-24.6-15.5-25.3-30.3
	c0-0.4,0-0.9,0-1.3c0.3,0,0.6,0.1,0.9,0.1c11.7,1.3,28.2,13.7,28.7,30.6"/>
<g>
	<path class="st0" d="M-56.1,1109.5c-6.5-1-6.5-1.4-13-2.4c-6.6-1-6.8,0.8-13.4-0.2c-6.6-1-5.9-5.2-12.5-6.2"/>
</g>
<g>
	<path class="st0" d="M33.7,2216.4c-6.5-1-6.5-1.4-13-2.4c-6.6-1-6.8,0.8-13.4-0.2c-6.6-1-5.9-5.2-12.5-6.2"/>
</g>
<path id="XMLID_13_" class="st0" d="M657.7,2008.9c0,0,7.9-5,13-17.6c0,0,1.2-3,1.8-4.4c6.3-12.6,20.3-19.8,34.4-17.1
	c0.4,0.1,0.8,0.2,1.3,0.3c-0.1,0.3-0.2,0.5-0.3,0.8c-3.8,10.8-19.4,23.6-35.5,20.3"/>
<g>
	<path class="st0" d="M798.3,1415.7c-5.5,3.7-5.7,3.4-11.2,7.1c-5.5,3.7-4.7,4.9-10.1,8.7s-7.5,0.8-13,4.5"/>
</g>
</svg>
