<?xml version="1.0" encoding="utf-8"?>
<!-- Generator: Adobe Illustrator 19.1.0, SVG Export Plug-In . SVG Version: 6.00 Build 0)  -->
<svg version="1.1" xmlns="http://www.w3.org/2000/svg" xmlns:xlink="http://www.w3.org/1999/xlink" x="0px" y="0px"
	 viewBox="0 0 27.4 26.7" style="enable-background:new 0 0 27.4 26.7;" xml:space="preserve">
<style type="text/css">
	.st0{display:none;}
	.st1{display:inline;}
	.st2{fill:#6D6D6D;}
	.st3{display:inline;fill:none;stroke:#6D6D6D;stroke-width:5;stroke-miterlimit:10;}
	.st4{fill:none;stroke:#6B6B6B;stroke-width:5;stroke-miterlimit:10;}
</style>
<g id="Layer_1" class="st0">
	<g class="st1">
		<path class="st2" d="M17.3,11.3l0.1-0.2l-0.3,0.1c-1.4,0.4-2.9-0.3-3.4-1.6l-0.1-0.2l-0.1,0.3c-0.5,1.3-2,2-3.4,1.6l-0.3-0.1
			l0.1,0.2c0.7,1.2,0.3,2.8-0.8,3.6L9,15.1l0.3,0c1.4,0.2,2.4,1.5,2.3,2.9l0,0.3l0.2-0.2c0.5-0.5,1.2-0.7,1.9-0.7
			c0.7,0,1.3,0.2,1.9,0.7l0.2,0.2l0-0.3c-0.1-1.4,0.9-2.7,2.3-2.9l0.3,0l-0.2-0.2C16.9,14.1,16.6,12.5,17.3,11.3z"/>
		<path class="st2" d="M13.7-7.7C2-7.7-7.5,1.9-7.5,13.5v0c0,11.6,9.5,21.2,21.2,21.2h0c11.6,0,21.2-9.5,21.2-21.2V-7.7H13.7z
			 M27,17.1c-0.3,1.1-1.1,1.9-2.3,2.1l-3.8,0.6l0.3,3.9c0.1,1.1-0.5,2.2-1.6,2.7c-0.4,0.2-0.8,0.3-1.2,0.3c-0.7,0-1.3-0.3-1.9-0.7
			l-2.9-2.6l-2.8,2.6c-0.8,0.8-2,1-3.1,0.5c-1-0.5-1.6-1.5-1.6-2.7l0.3-3.9l-3.8-0.6c-1.1-0.2-2-1-2.3-2.1c-0.3-1.1,0.2-2.2,1.1-2.9
			L4.7,12L2.8,8.6C2.2,7.6,2.3,6.4,3,5.5c0.7-0.9,1.9-1.3,3-0.9l3.7,1.1l1.4-3.6c0.4-1.1,1.4-1.7,2.6-1.7c0,0,0,0,0,0
			c1.1,0,2.1,0.7,2.6,1.7l1.4,3.6l3.7-1.1c1.1-0.3,2.3,0,3,0.9c0.7,0.9,0.8,2.1,0.2,3.1L22.6,12l3.2,2.2C26.8,14.8,27.2,16,27,17.1z
			"/>
	</g>
</g>
<g id="Layer_3" class="st0">
	<path class="st3" d="M13.7,34.7L13.7,34.7C2,34.7-7.5,25.1-7.5,13.5v0C-7.5,1.9,2-7.7,13.7-7.7h21.2v21.2
		C34.8,25.1,25.3,34.7,13.7,34.7z"/>
</g>
<g id="Layer_2">
	<path class="st4" d="M13.9,3.1l2.2,5.5c0,0.1,0.2,0.2,0.3,0.2L22.1,7c0.2-0.1,0.4,0.2,0.3,0.4l-3,5.2c-0.1,0.1,0,0.3,0.1,0.3
		l4.9,3.4c0.2,0.1,0.1,0.4-0.1,0.5l-5.9,0.9c-0.1,0-0.2,0.1-0.2,0.3l0.4,5.9c0,0.2-0.3,0.4-0.4,0.2l-4.4-4c-0.1-0.1-0.2-0.1-0.3,0
		l-4.4,4c-0.2,0.2-0.4,0-0.4-0.2l0.4-5.9c0-0.1-0.1-0.3-0.2-0.3L3,16.7c-0.2,0-0.3-0.3-0.1-0.5l4.9-3.4c0.1-0.1,0.1-0.2,0.1-0.3
		l-3-5.2C4.8,7.2,5,6.9,5.2,7l5.7,1.7c0.1,0,0.3,0,0.3-0.2l2.2-5.5C13.5,2.8,13.8,2.8,13.9,3.1z"/>
</g>
</svg>
