<?xml version="1.0" encoding="utf-8"?>
<!-- Generator: Adobe Illustrator 19.1.0, SVG Export Plug-In . SVG Version: 6.00 Build 0)  -->
<svg version="1.1" id="Layer_1" xmlns="http://www.w3.org/2000/svg" xmlns:xlink="http://www.w3.org/1999/xlink" x="0px" y="0px"
	 viewBox="0 0 179 179.2" style="enable-background:new 0 0 179 179.2;" xml:space="preserve">
<style type="text/css">
	.st0{clip-path:url(#SVGID_2_);fill:none;stroke:#161718;stroke-width:2;stroke-miterlimit:10.43;}
</style>
<g>
	<defs>
		<rect id="SVGID_1_" width="179" height="179.2"/>
	</defs>
	<clipPath id="SVGID_2_">
		<use xlink:href="#SVGID_1_"  style="overflow:visible;"/>
	</clipPath>
	<path class="st0" d="M59,1.3c2.8,0.9,5.7,1.9,8.6,2.9c-0.6,1.8-1.2,3.6-1.8,5.4c-2.9-0.9-5.7-1.9-8.6-2.9C57.8,4.9,58.4,3.1,59,1.3
		z"/>
	<path class="st0" d="M100.9,1.1c13.2,0,26.3,0,39.5,0c1.3-0.1,2.4,0.5,3.6,0.9c11.4,3.8,22.7,7.6,34.1,11.4v18.4
		c-8.8,2.7-16.7,9.3-19.3,18.3c-1,2.7-0.6,5.6-0.6,8.4c9.7,1.3,17.5,10.3,17.1,20.1c0,26.7,0,53.5,0,80.2
		c-0.1,10.1-8.9,19.1-18.9,19.4c-18.2,0.1-36.5,0-54.7,0c-3.1,0-6.2-0.6-9-1.9c-6.7-3.1-11.4-10.1-11.5-17.5c0-6.3,0-12.6,0-18.9
		c0.1-6.3,2.5-12.6,7.1-17c6.7-6.7,16.3-9.3,23.5-15.4c3.9-3.2,6.2-8.1,6.4-13.2c0.2-5.4,0-10.8,0.1-16.1
		c4.8-6.4,9.5-12.8,14.3-19.2c0-3.4,0-6.8,0-10.2c-10.2,10.5-25.3,17-40,14.8c0-3.6,0-7.1,0-10.7c6.2-0.5,12.2-3.1,16.5-7.7
		c3.5-3.6,6.1-8,8-12.7c-5.3,0-10.7,0-16,0c0-1.9,0-3.8,0-5.7c-3.8,0-7.6,0-11.4,0c0-6.7,0-13.3,0-20c3.8,0,7.6,0,11.4,0
		C100.9,4.9,100.9,3,100.9,1.1z"/>
	<path class="st0" d="M1,15.4c1.9,0,3.8,0,5.7,0v5.7H1C1,19.2,1,17.3,1,15.4z"/>
	<path class="st0" d="M12.4,15.4c1.9,0,3.8,0,5.7,0c0,1.9,0,3.8,0,5.7h-5.7C12.4,19.2,12.4,17.3,12.4,15.4z"/>
	<path class="st0" d="M23.9,15.4c1.9,0,3.8,0,5.7,0c0,1.9,0,3.8,0,5.7h-5.7C23.8,19.2,23.8,17.3,23.9,15.4z"/>
	<path class="st0" d="M35.3,15.4c13.3,0,26.6,0,40,0c0,1.9,0,3.8,0,5.7c-13.3,0-26.6,0-40,0C35.3,19.2,35.3,17.3,35.3,15.4z"/>
	<path class="st0" d="M42.6,30c1.9-1,3.8-1.9,5.7-2.9c0.8,1.7,1.7,3.4,2.6,5.1c-1.9,1-3.8,1.9-5.7,2.9C44.3,33.4,43.4,31.7,42.6,30z
		"/>
	<path class="st0" d="M59,33.4c1.9-1.9,3.8-3.8,5.7-5.7c1.3,1.3,2.7,2.7,4,4c-1.9,1.9-3.8,3.8-5.7,5.7C61.6,36,60.3,34.7,59,33.4z"
		/>
	<path class="st0" d="M31.1,35.7c1.9-1,3.8-1.9,5.7-2.9c0.9,1.7,1.7,3.4,2.5,5.1c-1.9,1-3.8,1.9-5.7,2.9
		C32.8,39.1,32,37.4,31.1,35.7z"/>
	<path class="st0" d="M50.4,41.9c1.9-1.9,3.8-3.8,5.7-5.7c1.3,1.3,2.7,2.7,4,4c-1.9,1.9-3.8,3.8-5.7,5.7
		C53.1,44.6,51.7,43.3,50.4,41.9z"/>
	<path class="st0" d="M19.7,41.4c1.9-1,3.8-1.9,5.7-2.9c0.9,1.7,1.7,3.4,2.6,5.1c-1.9,0.9-3.8,1.9-5.7,2.8
		C21.4,44.8,20.6,43.1,19.7,41.4z"/>
	<path class="st0" d="M41.8,50.5c1.9-1.9,3.8-3.8,5.7-5.7c1.3,1.3,2.7,2.7,4,4c-1.9,1.9-3.8,3.8-5.7,5.7
		C44.5,53.2,43.2,51.8,41.8,50.5z"/>
</g>
</svg>
