<?xml version="1.0" encoding="utf-8"?>
<!-- Generator: Adobe Illustrator 19.1.0, SVG Export Plug-In . SVG Version: 6.00 Build 0)  -->
<svg version="1.1" id="Layer_1" xmlns="http://www.w3.org/2000/svg" xmlns:xlink="http://www.w3.org/1999/xlink" x="0px" y="0px"
	 viewBox="0 0 77 70" style="enable-background:new 0 0 77 70;" xml:space="preserve">
<style type="text/css">
	.st0{fill:none;stroke:#000000;stroke-miterlimit:10.43;}
</style>
<g>
	<path class="st0" d="M76.8,39.1c-9.6,0-9.6-8.1-19.1-8.1c-9.6,0-9.6,8.1-19.1,8.1c-9.6,0-9.6-8.1-19.1-8.1s-9.6,8.1-19.1,8.1"/>
	<path class="st0" d="M76.8,20c-9.6,0-9.6-8.1-19.1-8.1c-9.6,0-9.6,8.1-19.1,8.1c-9.6,0-9.6-8.1-19.1-8.1S9.8,20,0.2,20"/>
	<path class="st0" d="M76.8,58.2c-9.6,0-9.6-8.1-19.1-8.1c-9.6,0-9.6,8.1-19.1,8.1c-9.6,0-9.6-8.1-19.1-8.1s-9.6,8.1-19.1,8.1"/>
</g>
</svg>
