<?xml version="1.0" encoding="utf-8"?>
<!-- Generator: Adobe Illustrator 19.1.0, SVG Export Plug-In . SVG Version: 6.00 Build 0)  -->
<svg version="1.1" id="Layer_1" xmlns="http://www.w3.org/2000/svg" xmlns:xlink="http://www.w3.org/1999/xlink" x="0px" y="0px"
	 viewBox="0 0 795.2 263.4" style="enable-background:new 0 0 795.2 263.4;" xml:space="preserve">
<style type="text/css">
	.st0{opacity:0.65;}
	.st1{clip-path:url(#SVGID_2_);fill:none;stroke:#5B5A5A;stroke-width:3;stroke-miterlimit:10.43;}
</style>
<g class="st0">
	<defs>
		<rect id="SVGID_1_" class="st0" width="795.2" height="263.4"/>
	</defs>
	<clipPath id="SVGID_2_">
		<use xlink:href="#SVGID_1_"  style="overflow:visible;"/>
	</clipPath>
	<line class="st1" x1="794.5" y1="110.5" x2="731.6" y2="148.2"/>
	<path class="st1" d="M792.9,208.7L692.3,149c-31.4-18.6-70.9-17.5-101.3,2.6L489.1,82.5c-56.6-38.4-129.5-38.1-185.8,0.8
		l-92.9,64.2 M614.7,167.8l-4.9-3.3c22.6-11.4,49.8-10.8,71.9,2.3l9.1,5.4C666.7,184.6,637.4,183.1,614.7,167.8z"/>
	<path class="st1" d="M221.6,113.2c7.5,0.4,14.9-4.9,16.3-12.3c1.4-7.4-3.8-14-11.3-14.5c-7.5-0.5-14.5,5.4-15.9,12.8
		C209.4,106.7,214.1,112.7,221.6,113.2z"/>
	<path class="st1" d="M279.3,69.5c7.8,0.8,15.2-4.6,16.2-12.4c1.1-7.8-4.5-14.9-12.3-15.8c-7.8-0.8-14.9,4.9-16,12.7
		C266.1,61.8,271.4,68.6,279.3,69.5z"/>
	<path class="st1" d="M337.7,33.1c7,3.6,14.4,1.4,18.3-5.3c3.9-6.7,2.6-16-4.6-20.3c-3.5-2-7.9-2.5-11.8-1.4c-3.8,1.3-7.3,4-9.1,7.6
		C326.9,21.3,330.8,29.7,337.7,33.1z"/>
	<path class="st1" d="M422.8,28.5c6.5-4.2,9.5-13,5.1-20.2c-4.4-7.1-14.8-9.1-21.5-3.9c-6.7,5-6.9,14.4-2.4,20.8
		C408.7,31.4,416.3,32.8,422.8,28.5z"/>
	<path class="st1" d="M485.2,58c7.7-1.9,12.2-9.4,10.2-17.1c-2-7.7-9.8-12.5-17.5-10.6c-7.7,1.9-12.4,9.7-10.4,17.4
		C469.5,55.4,477.5,59.9,485.2,58z"/>
	<path class="st1" d="M547.7,94.3c7.4-1.5,11.5-8.2,9.2-15.4c-2.3-7.2-10-12.2-17.4-10.8c-7.4,1.4-11.8,8.8-9.5,16
		C532.3,91.3,540.3,95.7,547.7,94.3z"/>
	<polyline class="st1" points="0.8,194.8 53.8,163 71.3,152.5 	"/>
	<path class="st1" d="M567.9,163.3l-100.3,73.4c-48.4,33.4-113.7,33.7-162.4,0.7l-125.6-85.3c-30.6-20.8-70.9-21.9-102.7-2.9
		l-5.6,3.3 M100.9,170.1l-9.1-5.4c24.2-12.4,53.5-10.9,76.1,4.4l4.9,3.3C150.3,183.9,123,183.2,100.9,170.1z"/>
	<line class="st1" x1="60.7" y1="143.1" x2="0.8" y2="128.1"/>
</g>
</svg>
