<?xml version="1.0" encoding="utf-8"?>
<!-- Generator: Adobe Illustrator 19.1.0, SVG Export Plug-In . SVG Version: 6.00 Build 0)  -->
<svg version="1.1" id="Layer_1" xmlns="http://www.w3.org/2000/svg" xmlns:xlink="http://www.w3.org/1999/xlink" x="0px" y="0px"
	 viewBox="-209.8 376 70.8 42" style="enable-background:new -209.8 376 70.8 42;" xml:space="preserve">
<style type="text/css">
	.st0{clip-path:url(#SVGID_2_);fill:#6E6D6E;}
	.st1{clip-path:url(#SVGID_4_);fill:#6E6D6E;}
	.st2{clip-path:url(#SVGID_6_);fill:#6E6D6E;}
	.st3{clip-path:url(#SVGID_8_);fill:#5D5F5E;}
	.st4{clip-path:url(#SVGID_10_);fill:#5D5F5E;}
	.st5{clip-path:url(#SVGID_12_);fill:#6E6D6E;}
</style>
<g>
	<g>
		<g>
			<defs>
				<rect id="SVGID_1_" x="-208.9" y="386" width="68.7" height="22"/>
			</defs>
			<clipPath id="SVGID_2_">
				<use xlink:href="#SVGID_1_"  style="overflow:visible;"/>
			</clipPath>
			<path class="st0" d="M-170.1,403.3c1-1.4,2.1-2.7,3.7-3.6c-0.3-0.4-0.5-0.9-0.6-1.3c-1.8,1-3.1,2.5-4.2,4.1
				c-2.7,3.7-5.7,4.8-10.2,3.7c-2.4-0.6-4.3-2-5.6-4.1s-1.6-4.5-1-6.9c1.2-4.9,6.1-7.8,10.9-6.7c0.8,0.2,1.4,0.4,1.9,0.6
				c0.3-0.4,0.5-0.8,0.9-1.2c-0.6-0.3-1.4-0.5-2.4-0.8c-5.6-1.3-11.3,2.1-12.7,7.7c-0.7,2.7-0.3,5.6,1.2,8c1.4,2.4,3.8,4.1,6.5,4.8
				c1.2,0.3,2.3,0.4,3.4,0.4C-175.1,408-172.3,406.4-170.1,403.3"/>
		</g>
	</g>
	<g>
		<g>
			<defs>
				<rect id="SVGID_3_" x="-208.9" y="386" width="68.7" height="22"/>
			</defs>
			<clipPath id="SVGID_4_">
				<use xlink:href="#SVGID_3_"  style="overflow:visible;"/>
			</clipPath>
			<path class="st1" d="M-201.9,388.5c2.3-0.9,4.7-1,6.9,0c2,0.8,2.6,1.2,3.6,3l1.3-0.7c-1.1-2.1-2-2.7-4.3-3.6
				c-2.6-1.1-5.5-1.1-8,0.1c-2.6,1.1-4.6,3.1-5.7,5.7c-2.2,5.4,0.4,11.5,5.7,13.7c1.5,0.6,3,0.9,4.3,0.9c3.3,0,6.1-1.6,7.9-3.4l-1-1
				c-2.2,2.3-6.2,4-10.7,2.2c-4.6-1.9-6.9-7.2-4.9-11.9C-205.9,391.2-204.2,389.4-201.9,388.5"/>
		</g>
	</g>
	<g>
		<g>
			<defs>
				<rect id="SVGID_5_" x="-208.9" y="386" width="68.7" height="22"/>
			</defs>
			<clipPath id="SVGID_6_">
				<use xlink:href="#SVGID_5_"  style="overflow:visible;"/>
			</clipPath>
			<path class="st2" d="M-159.3,386.4c-5-1.2-8.7,0.1-11.8,4.3c-0.9,1.2-1.9,2.5-3.2,3.3c0.4,0.1,0.8,0.2,1.1,0.3
				c-0.2,0.4-0.4,0.8-0.6,1.1c1.7-1,2.9-2.5,3.9-3.9c2.7-3.7,5.7-4.8,10.2-3.7c2.4,0.6,4.3,2,5.6,4.1s1.6,4.5,1,6.9s-2,4.3-4.1,5.6
				c-2.1,1.2-4.5,1.6-6.9,1c-0.6-0.2-1.2-0.3-1.6-0.5c-0.3,0.4-0.6,0.8-1,1.2c0.6,0.3,1.3,0.5,2.3,0.8c0.9,0.2,1.7,0.3,2.6,0.3
				c1.9,0,3.8-0.5,5.4-1.5c2.4-1.4,4.1-3.8,4.8-6.5s0.3-5.6-1.2-7.9C-154.2,388.8-156.4,387.1-159.3,386.4"/>
		</g>
	</g>
	<g>
		<g>
			<defs>
				<rect id="SVGID_7_" x="-208.9" y="386" width="68.7" height="22"/>
			</defs>
			<clipPath id="SVGID_8_">
				<use xlink:href="#SVGID_7_"  style="overflow:visible;"/>
			</clipPath>
			<path class="st3" d="M-174.2,394c-3.4-0.7-6.9,1-8.5,4.1c-0.1,0.1-0.1,0.2-0.2,0.3c0.1,0,0.1,0.1,0.2,0.1c3.3,1.1,7-0.2,8.9-3.1
				c0.3-0.4,0.5-0.8,0.6-1.1C-173.4,394.2-173.9,394.1-174.2,394"/>
		</g>
	</g>
	<g>
		<g>
			<defs>
				<rect id="SVGID_9_" x="-208.9" y="386" width="68.7" height="22"/>
			</defs>
			<clipPath id="SVGID_10_">
				<use xlink:href="#SVGID_9_"  style="overflow:visible;"/>
			</clipPath>
			<path class="st4" d="M-162.1,401.9c2.8,0,5.2-2.3,5.2-5.2s-2.3-5.2-5.2-5.2s-5.2,2.3-5.2,5.2c0,0.5,0.1,1.1,0.3,1.6
				s0.4,0.9,0.6,1.3C-165.4,401-163.9,401.9-162.1,401.9"/>
		</g>
	</g>
	<g>
		<g>
			<defs>
				<rect id="SVGID_11_" x="-208.9" y="386" width="68.7" height="22"/>
			</defs>
			<clipPath id="SVGID_12_">
				<use xlink:href="#SVGID_11_"  style="overflow:visible;"/>
			</clipPath>
			<path class="st5" d="M-146.7,401.7c2.6-1.5,5.3-3.9,4.7-8c-0.6-4.2-4.6-7.1-8.7-6.5l0.2,1.4c3.4-0.5,6.6,1.9,7.1,5.3
				c0.4,3-1.1,5.2-5,7.1l-1.1,0.6l8.5,5.4l0.8-1.2L-146.7,401.7z"/>
		</g>
	</g>
</g>
</svg>
