<?xml version="1.0" encoding="utf-8"?>
<!-- Generator: Adobe Illustrator 19.1.0, SVG Export Plug-In . SVG Version: 6.00 Build 0)  -->
<svg version="1.1" id="Layer_1" xmlns="http://www.w3.org/2000/svg" xmlns:xlink="http://www.w3.org/1999/xlink" x="0px" y="0px"
	 viewBox="-279.9 376 41.9 42" style="enable-background:new -279.9 376 41.9 42;" xml:space="preserve">
<style type="text/css">
	.st0{clip-path:url(#SVGID_2_);fill:#5D5F5E;}
	.st1{clip-path:url(#SVGID_4_);fill:#5D5F5E;}
	.st2{clip-path:url(#SVGID_6_);fill:#5D5F5E;}
	.st3{clip-path:url(#SVGID_8_);fill:#5D5F5E;}
</style>
<g>
	<g>
		<g>
			<defs>
				<rect id="SVGID_1_" x="-278.9" y="378.5" width="40.2" height="37"/>
			</defs>
			<clipPath id="SVGID_2_">
				<use xlink:href="#SVGID_1_"  style="overflow:visible;"/>
			</clipPath>
			<path class="st0" d="M-249.5,380.8L-249.5,380.8L-249.5,380.8L-249.5,380.8L-249.5,380.8l-0.8,0.3c-5.5,1.7-8.9,7.3-7.9,12.9
				c0,0.2,0.1,0.4,0.1,0.5l0.2,0.8l0.8-0.3c0.1,0,0.2-0.1,0.3-0.1c5.1-1.7,8.4-6.9,7.7-12.2c5.3,2.7,8.8,8.2,8.8,14.3
				c0,5.6-2.9,10.6-7.5,13.5c0.4-5.5-3.2-10.5-8.5-11.9l-0.8-0.2l-0.2,0.8c-1,5.7,2.4,11.3,7.9,12.9c0.2,0.1,0.3,0.1,0.5,0.1
				l0.8,0.2v-0.1v0.1c5.8-3.1,9.4-9,9.4-15.5C-238.8,389.9-243,383.5-249.5,380.8 M-256.7,393.1c-0.5-4.4,2-8.7,6-10.3
				C-250.1,387.3-252.6,391.4-256.7,393.1 M-249.5,410.4c-4.2-1.5-6.8-5.7-6.5-10.1C-251.9,401.9-249.1,405.9-249.5,410.4"/>
		</g>
	</g>
	<g>
		<g>
			<defs>
				<rect id="SVGID_3_" x="-278.9" y="378.5" width="40.2" height="37"/>
			</defs>
			<clipPath id="SVGID_4_">
				<use xlink:href="#SVGID_3_"  style="overflow:visible;"/>
			</clipPath>
			<path class="st1" d="M-259.6,399.5l-0.2-0.8l-0.8,0.3c-5.2,1.6-8.6,6.8-8,12.3c-5.3-2.7-8.8-8.2-8.8-14.3c0-5.8,3-10.9,7.9-13.8
				c-0.4,5.2,2.9,10.2,8,11.8c0.2,0.1,0.3,0.1,0.5,0.1l0.8,0.2l0.2-0.8c0-0.1,0-0.2,0.1-0.4c0.8-5.8-2.8-11.3-8.4-12.7l-0.8-0.2l0,0
				l0,0l0,0l0,0c-6,2.9-9.8,8.9-9.8,15.7c0,7,4.2,13.4,10.6,16.2v0.1l0.8-0.3c0.1,0,0.2-0.1,0.3-0.1
				C-261.6,410.9-258.4,405.2-259.6,399.5 M-267.8,383.2c4.2,1.5,6.9,5.6,6.5,10.1C-265.6,391.7-268.2,387.6-267.8,383.2
				 M-267,411.1c-0.5-4.4,2-8.7,6-10.3C-260.4,405.1-262.9,409.4-267,411.1"/>
		</g>
	</g>
	<g>
		<g>
			<defs>
				<rect id="SVGID_5_" x="-278.9" y="378.5" width="40.2" height="37"/>
			</defs>
			<clipPath id="SVGID_6_">
				<use xlink:href="#SVGID_5_"  style="overflow:visible;"/>
			</clipPath>
			<path class="st2" d="M-250.8,413.9c-0.2,0-0.4-0.1-0.5-0.1c-0.5-0.2-1.1-0.4-1.6-0.6c-1.6,0.5-3.3,0.8-5.1,0.8
				c-1.6,0-3.2-0.3-4.6-0.7c-0.6,0.4-1.3,0.7-2,1c2.1,0.8,4.3,1.3,6.6,1.3C-255.4,415.5-252.9,415-250.8,413.9L-250.8,413.9
				L-250.8,413.9z"/>
		</g>
	</g>
	<g>
		<g>
			<defs>
				<rect id="SVGID_7_" x="-278.9" y="378.5" width="40.2" height="37"/>
			</defs>
			<clipPath id="SVGID_8_">
				<use xlink:href="#SVGID_7_"  style="overflow:visible;"/>
			</clipPath>
			<path class="st3" d="M-264,380.9c1.6-0.5,3.3-0.8,5.1-0.8c1.5,0,3.1,0.3,4.6,0.6c0.6-0.4,1.3-0.7,2-1l0,0
				c-2.2-0.8-4.3-1.3-6.6-1.3c-2.5,0-5,0.5-7.2,1.5l0,0C-265.5,380.3-264.8,380.6-264,380.9"/>
		</g>
	</g>
</g>
</svg>
