<?xml version="1.0" encoding="utf-8"?>
<!-- Generator: Adobe Illustrator 19.1.0, SVG Export Plug-In . SVG Version: 6.00 Build 0)  -->
<svg version="1.1" id="Layer_1" xmlns="http://www.w3.org/2000/svg" xmlns:xlink="http://www.w3.org/1999/xlink" x="0px" y="0px"
	 viewBox="0 0 345 345" style="enable-background:new 0 0 345 345;" xml:space="preserve">
<style type="text/css">
	.st0{fill:none;stroke:#5B5A5A;stroke-width:18;stroke-miterlimit:10.43;}
</style>
<g>
	<path class="st0" d="M197.8,18.7h1.9c11.4,0.2,22.6,4.8,30.6,12.9c23.5,23.5,47,47,70.5,70.5c2.5,2.8,4,6.9,2.7,10.6
		c-0.6,2-2,4-4.2,4.3c-7,1.5-14.7,0.7-21,4.5c-5.9,5-11,11.8-11.5,19.8c-0.4,6.4,1.1,12.7,2,19c2.6,16.1,4.7,32.7,1.4,48.8
		c-2.4,12.3-8.4,23.9-17.3,32.8c-26.2,26.3-52.5,52.6-78.8,78.9c-2.6,2.6-5.2,5.2-8.2,7.3c-6.7,4.8-15,7.1-23.2,7.3h-2.6
		c-11.9-0.6-23.5-5.2-32.8-12.7c-3.2-2.5-6-5.5-8.9-8.4c-23.6-23.6-47.1-47.2-70.7-70.7c-10-10-16.5-23.7-16.9-38
		c-0.4-11,3.4-22.2,11.1-30.1c27.2-27.2,54.4-54.4,81.6-81.6c4.9-4.9,10.5-9.2,16.7-12.3c10.8-5.4,23.1-7.5,35.1-7.4
		c-1.3-5.8-1.7-11.8-0.7-17.7c1.8-11.9,8.7-22.9,18.6-29.7C180.4,21.7,189.1,19.1,197.8,18.7z"/>
</g>
<path class="st0" d="M280.1,10.6c2.1,2.7,39.5,40.1,55.8,56.3"/>
</svg>
