<?xml version="1.0" encoding="utf-8"?>
<!-- Generator: Adobe Illustrator 19.1.0, SVG Export Plug-In . SVG Version: 6.00 Build 0)  -->
<svg version="1.1" id="Layer_1" xmlns="http://www.w3.org/2000/svg" xmlns:xlink="http://www.w3.org/1999/xlink" x="0px" y="0px"
	 viewBox="-265.8 376 37.1 42" style="enable-background:new -265.8 376 37.1 42;" xml:space="preserve">
<style type="text/css">
	.st0{clip-path:url(#SVGID_2_);fill:#5D5F5E;}
	.st1{fill:#5D5F5E;}
</style>
<g>
	<g>
		<g>
			<defs>
				<rect id="SVGID_1_" x="-265.4" y="383.5" width="36.4" height="27"/>
			</defs>
			<clipPath id="SVGID_2_">
				<use xlink:href="#SVGID_1_"  style="overflow:visible;"/>
			</clipPath>
			<path class="st0" d="M-240.4,385.7L-240.4,385.7L-240.4,385.7 M-240.6,386.4L-240.6,386.4L-240.6,386.4 M-242.7,388.2
				L-242.7,388.2L-242.7,388.2 M-242.9,389L-242.9,389C-242.9,388.9-242.9,388.9-242.9,389 M-253.9,386.4
				C-253.9,386.4-253.8,386.4-253.9,386.4C-253.8,386.4-253.9,386.4-253.9,386.4 M-254,385.7L-254,385.7L-254,385.7 M-251.5,388.8
				L-251.5,388.8C-251.5,388.9-251.5,388.9-251.5,388.8 M-251.7,388.2L-251.7,388.2L-251.7,388.2 M-254,408.3L-254,408.3L-254,408.3
				 M-253.8,407.6L-253.8,407.6L-253.8,407.6 M-251.7,405.8L-251.7,405.8L-251.7,405.8 M-251.5,405L-251.5,405
				C-251.5,405.1-251.5,405.1-251.5,405 M-240.5,407.6L-240.5,407.6L-240.5,407.6 M-240.4,408.3L-240.4,408.3L-240.4,408.3
				 M-242.9,405.2L-242.9,405.2C-242.9,405.1-242.9,405.1-242.9,405.2 M-242.7,405.8L-242.7,405.8L-242.7,405.8 M-240.5,394.7
				L-240.5,394.7L-240.5,394.7 M-240.4,395.4L-240.4,395.4L-240.4,395.4 M-242.9,392.2L-242.9,392.2
				C-242.9,392.1-242.9,392.2-242.9,392.2 M-242.7,392.9L-242.7,392.9L-242.7,392.9 M-251.5,392.1L-251.5,392.1
				C-251.5,392.2-251.5,392.1-251.5,392.1 M-251.7,392.8C-251.7,392.9-251.7,392.9-251.7,392.8
				C-251.7,392.9-251.7,392.9-251.7,392.8 M-253.8,394.7L-253.8,394.7L-253.8,394.7 M-254,395.3L-254,395.3
				C-254,395.4-254,395.4-254,395.3 M-253.9,399.3C-253.9,399.3-253.8,399.3-253.9,399.3C-253.8,399.3-253.9,399.3-253.9,399.3
				 M-254,398.6L-254,398.6L-254,398.6 M-251.5,401.8L-251.5,401.8L-251.5,401.8 M-251.7,401.1L-251.7,401.1L-251.7,401.1
				 M-242.9,401.9L-242.9,401.9L-242.9,401.9 M-242.7,401.2C-242.7,401.1-242.7,401.1-242.7,401.2
				C-242.7,401.1-242.7,401.1-242.7,401.2 M-240.6,399.3L-240.6,399.3L-240.6,399.3 M-240.4,398.7L-240.4,398.7
				C-240.4,398.6-240.4,398.6-240.4,398.7"/>
		</g>
	</g>
</g>
<path class="st1" d="M-229.1,390.5h-1.2c0,3.2-2.6,5.9-5.9,5.9c-2.2,0-4.1-1.3-5.1-3.1l0,0l0,0c-0.5-0.8-1.1-1.4-1.8-2
	c-0.5-0.3-0.9-0.6-1.4-0.9c0.5-0.2,1-0.5,1.4-0.9c0.7-0.5,1.3-1.2,1.8-2l0,0c1-1.8,2.9-3,5.1-3c3.2,0,5.9,2.6,5.9,5.9L-229.1,390.5
	c0-4-3.2-7.1-7-7.1c-1.6,0-3,0.5-4.2,1.4c-0.7,0.5-1.4,1.3-1.8,2l0,0c-1,1.8-2.9,3-5.1,3s-4.1-1.3-5.1-3l0,0c-0.5-0.8-1.1-1.4-1.8-2
	c-1.2-0.9-2.6-1.4-4.2-1.4c-3.9,0-7,3.2-7,7h1.2c0-3.2,2.6-5.9,5.9-5.9c2.2,0,4.1,1.3,5.1,3.1l0,0l0,0c0.5,0.8,1.1,1.4,1.8,2
	c0.5,0.3,0.9,0.6,1.4,0.9c-0.5,0.2-1,0.5-1.4,0.9c-0.7,0.5-1.3,1.2-1.8,2l0,0c-1,1.8-2.9,3-5.1,3c-3.2,0-5.9-2.6-5.9-5.9h-1.2
	c0,2.9,1.8,5.4,4.3,6.5c-2.5,1.1-4.3,3.6-4.3,6.5h1.2c0-3.2,2.6-5.9,5.9-5.9c2.2,0,4.1,1.3,5.1,3.1l0,0c0.5,0.8,1.1,1.4,1.8,2
	c0.5,0.3,0.9,0.6,1.4,0.9c-0.5,0.2-1,0.5-1.4,0.9c-0.7,0.5-1.3,1.2-1.8,2l0,0c-1,1.8-2.9,3-5.1,3c-3.2,0-5.9-2.6-5.9-5.9h-1.2
	c0,3.9,3.2,7,7,7c1.6,0,3-0.5,4.2-1.4c0.7-0.5,1.3-1.3,1.8-2l0,0c1-1.8,2.9-3,5.1-3s4.1,1.3,5.1,3l0,0c0.5,0.8,1.1,1.4,1.8,2
	c1.2,0.9,2.6,1.4,4.2,1.4c3.9,0,7-3.2,7-7h-1.2c0,3.2-2.6,5.9-5.9,5.9c-2.2,0-4.1-1.3-5.1-3.1l0,0c-0.5-0.8-1.1-1.4-1.8-2
	c-0.5-0.3-0.9-0.6-1.4-0.9c0.5-0.2,1-0.5,1.4-0.9c0.7-0.5,1.3-1.2,1.8-2l0,0c1-1.8,2.9-3,5.1-3c3.2,0,5.9,2.6,5.9,5.9h1.2
	c0-2.9-1.8-5.4-4.3-6.5C-230.9,395.9-229.1,393.4-229.1,390.5 M-242.2,399.9L-242.2,399.9c-1,1.8-3,3-5.1,3c-2.2,0-4.1-1.3-5.1-3
	l0,0c-0.5-0.8-1.1-1.4-1.8-2c-0.5-0.3-0.9-0.6-1.4-0.9c0.5-0.2,1-0.5,1.4-0.9c0.7-0.5,1.3-1.3,1.8-2l0,0c1-1.8,2.9-3,5.1-3
	s4.1,1.3,5.1,3l0,0c0.5,0.8,1.1,1.4,1.8,2c0.5,0.3,0.9,0.6,1.4,0.9c-0.5,0.2-1,0.5-1.4,0.9C-241,398.4-241.7,399.1-242.2,399.9"/>
</svg>
