<?xml version="1.0" encoding="utf-8"?>
<!-- Generator: Adobe Illustrator 19.1.0, SVG Export Plug-In . SVG Version: 6.00 Build 0)  -->
<svg version="1.1" id="Layer_1" xmlns="http://www.w3.org/2000/svg" xmlns:xlink="http://www.w3.org/1999/xlink" x="0px" y="0px"
	 viewBox="-268.3 376 42.8 42" style="enable-background:new -268.3 376 42.8 42;" xml:space="preserve">
<style type="text/css">
	.st0{clip-path:url(#SVGID_4_);fill:#5D5F5E;}
	.st1{fill:#5D5F5E;}
</style>
<g>
	<defs>
		<rect id="SVGID_1_" x="-267.5" y="383" width="41.1" height="28"/>
	</defs>
	<clipPath id="SVGID_2_">
		<use xlink:href="#SVGID_1_"  style="overflow:visible;"/>
	</clipPath>
</g>
<g>
	<g>
		<defs>
			<rect id="SVGID_3_" x="-267.5" y="383" width="41.1" height="28"/>
		</defs>
		<clipPath id="SVGID_4_">
			<use xlink:href="#SVGID_3_"  style="overflow:visible;"/>
		</clipPath>
		<path class="st0" d="M-246.9,394.3c-2,0-3.6-1.6-3.6-3.6s1.6-3.6,3.6-3.6s3.6,1.6,3.6,3.6S-244.9,394.3-246.9,394.3 M-246.9,388.6
			c-1.2,0-2.1,1-2.1,2.1s1,2.1,2.1,2.1s2.1-1,2.1-2.1S-245.7,388.6-246.9,388.6"/>
	</g>
</g>
<path class="st1" d="M-247.2,411c-1.2,0-2.3-0.3-3.4-0.8c-2-1-3.2-2.7-3.6-4.8c-0.2-2-0.4-4.2-1.6-5.9c-1.2-1.2-2.7-1.5-4.4-1.7
	c-1.8-0.3-3.7-0.5-5.2-2c-1.9-1.9-2.6-4.8-1.7-7.5c0.8-2.7,2.9-4.5,5.5-5c2.3-0.5,4.6,0,6.3,1.3c1.2,0.9,2.5,2.7,2.5,5.7
	c0,1.5,0.2,3.2,1.8,4.6c2.3,1.6,5.7,2,7.7,0l0.1-0.1c1.6-1.4,1.9-3.1,2.3-5.1c0.1-0.5,0.2-1.2,0.3-1.8c0.8-2.7,3.3-4.6,6.4-4.8
	c3.2-0.2,6,1.4,7.2,4c1,2.2,1,4.4,0,6.3c-1.3,2.4-4.2,4-8.1,4.4c-3.2,0.5-3.7,2.7-4.2,5.3c-0.5,2.5-1.2,5.4-4.3,6.9
	C-244.9,410.7-246.1,411-247.2,411 M-259.9,384.4c-0.5,0-1,0.1-1.5,0.1c-2.1,0.4-3.8,1.8-4.4,4c-0.7,2.3-0.2,4.6,1.4,6.1
	c1.2,1.2,2.7,1.4,4.4,1.6c1.8,0.3,3.8,0.5,5.3,2.2l0.1,0.1c1.5,2,1.8,4.5,2,6.6c0.3,1.6,1.2,3,2.8,3.8c1.7,0.9,3.8,0.9,5.5,0
	c2.5-1.2,3-3.6,3.6-5.9c0.6-2.7,1.2-5.9,5.5-6.5c3.4-0.4,5.9-1.7,7-3.7c0.8-1.4,0.8-3.2-0.1-5l0,0c-0.9-2.1-3.1-3.3-5.7-3.2
	c-2,0.1-4.4,1.2-5.1,3.8c-0.1,0.5-0.2,1.1-0.3,1.6c-0.3,2-0.8,4.2-2.7,5.9c-2.6,2.6-6.8,2-9.6,0.1l-0.1-0.1c-2-1.8-2.3-3.9-2.3-5.7
	c0-2-0.7-3.6-1.9-4.6C-257.3,384.8-258.6,384.4-259.9,384.4"/>
</svg>
