<?xml version="1.0" encoding="utf-8"?>
<!-- Generator: Adobe Illustrator 19.1.0, SVG Export Plug-In . SVG Version: 6.00 Build 0)  -->
<svg version="1.1" id="Layer_1" xmlns="http://www.w3.org/2000/svg" xmlns:xlink="http://www.w3.org/1999/xlink" x="0px" y="0px"
	 viewBox="-224.4 376 57.8 42" style="enable-background:new -224.4 376 57.8 42;" xml:space="preserve">
<style type="text/css">
	.st0{clip-path:url(#SVGID_2_);fill:#6E6D6E;}
	.st1{clip-path:url(#SVGID_4_);fill:#6E6D6E;}
	.st2{clip-path:url(#SVGID_6_);fill:#6E6D6E;}
</style>
<g>
	<g>
		<g>
			<defs>
				<rect id="SVGID_1_" x="-223.9" y="386" width="57.4" height="22"/>
			</defs>
			<clipPath id="SVGID_2_">
				<use xlink:href="#SVGID_1_"  style="overflow:visible;"/>
			</clipPath>
			<path class="st0" d="M-206.6,402.6c-2.2,2.1-6.1,3.8-10.4,2c-4.6-1.8-6.8-7.1-4.9-11.6c1.9-4.6,7.1-6.8,11.7-4.9
				c1.8,0.8,2.5,1.1,3.3,2.5c0.3-0.4,0.6-0.8,1-1.1c-0.9-1.3-1.8-1.9-3.7-2.7c-5.3-2.1-11.4,0.4-13.5,5.7s0.4,11.4,5.7,13.5
				c1.5,0.6,3,0.9,4.3,0.9c3.2,0,5.8-1.4,7.6-3.2C-205.9,403.4-206.3,403-206.6,402.6"/>
		</g>
	</g>
	<g>
		<g>
			<defs>
				<rect id="SVGID_3_" x="-223.9" y="386" width="57.4" height="22"/>
			</defs>
			<clipPath id="SVGID_4_">
				<use xlink:href="#SVGID_3_"  style="overflow:visible;"/>
			</clipPath>
			<path class="st1" d="M-182.2,390.3c-0.2-0.9-0.4-1.7-0.6-2.3c-0.1-0.3-0.2-0.5-0.3-0.6c-0.1-0.2-0.1-0.2-0.1-0.2h-0.2
				c0,0-0.1,0.1-0.1,0.2c-0.1,0.2-0.2,0.4-0.3,0.6c-0.2,0.5-0.5,1.3-0.6,2.3c-0.1,0.5-0.2,1-0.2,1.5c-0.1,0.5-0.1,1.1,0.1,1.7
				c0.1,0.6,0.3,1.2,0.4,1.8c0.2,0.6,0.3,1.2,0.4,1.9c0.1,0.6,0.1,1.2,0.1,1.9c0,0.2,0,0.4,0,0.6c-0.1-0.4-0.2-0.8-0.3-1.1
				c-0.1-0.5-0.3-1-0.4-1.4c-0.2-0.5-0.4-1-0.5-1.4c-0.2-0.5-0.4-0.9-0.6-1.4c-0.3-0.4-0.5-0.9-0.8-1.3s-0.6-0.9-0.9-1.2
				c-0.3-0.4-0.6-0.8-1-1.1l-0.6-0.5l-0.3-0.3l-0.3-0.2c-0.4-0.3-0.8-0.6-1.3-0.9l-0.7-0.4c-0.2-0.2-0.4-0.2-0.7-0.3l-0.4-0.2
				c-0.5-0.3-1.1-0.5-1.7-0.7h-0.1l0,0c-0.9-0.3-1.8-0.4-2.8-0.4c-5.5,0-9.9,4.5-9.9,9.9s4.5,9.9,9.9,9.9c3.7,0,6.9-2,8.6-5.1
				c1.5-1.8,1.7-4.5,0.3-6.5c-0.1-0.1-0.1-0.1-0.1-0.2c-0.1,0.1-0.1,0.1-0.1,0.1c-1.7,1.6-2.1,3.9-1.3,5.9c-0.8,1.4-2,2.6-3.5,3.4
				c0.5-0.6,1-1.4,1.2-2.3c0-0.1,0.1-0.2,0.1-0.2c-0.1,0-0.1,0-0.2,0c-2.4-0.2-4.6,1.2-5.4,3.4c-2-0.1-3.8-0.9-5.2-2.2
				c1,0.6,2.3,0.9,3.5,0.6c0.1,0,0.2,0,0.2-0.1s-0.1-0.1-0.1-0.2c-0.8-2.5-3.3-4.1-6-3.7c-0.4-1-0.6-2-0.6-3c0-0.5,0.1-1,0.2-1.4
				c0.3,1.3,1.1,2.6,2.4,3.4c0.1,0.1,0.1,0.1,0.2,0.1c0-0.1,0.1-0.1,0.1-0.1c1-2.2,0.4-4.8-1.5-6.3c0.9-1.5,2.3-2.7,3.9-3.4
				c-1.1,1-1.8,2.4-1.8,3.9c0,0.1,0,0.2,0,0.2c0.1,0,0.1,0,0.2,0c2.5-0.3,4.3-2.4,4.6-4.8c0.1,0,0.2,0,0.3,0c1,0,1.9,0.2,2.7,0.5
				l0,0h0.4l0.6,0.3l0.6,0.3c0.2,0.1,0.5,0.2,0.6,0.3l0.6,0.4c0.4,0.2,0.8,0.5,1.1,0.8l0.3,0.2l0.3,0.2l0.5,0.5c0.3,0.3,0.6,0.7,1,1
				c0.3,0.4,0.6,0.8,0.9,1.1c0.3,0.4,0.5,0.8,0.8,1.2c0.2,0.4,0.5,0.9,0.7,1.3s0.4,0.9,0.6,1.3c0.2,0.4,0.4,0.9,0.5,1.3
				c0.2,0.5,0.3,0.9,0.4,1.4c0.1,0.5,0.3,1,0.3,1.4c0.1,0.5,0.2,1,0.3,1.4c0.1,0.5,0.2,1,0.2,1.4c0.1,0.5,0.1,1,0.1,1.5l0.1,1.5
				l0.1-1.1c0.1,0.5,0.1,0.8,0.1,0.8h0.2c0,0,0.1-1.2,0.2-3.1c0-0.5,0.1-1,0.1-1.5c0.1-0.5,0.1-1.1,0.1-1.7s0-1.2,0.1-1.8
				c0-0.6,0.1-1.2,0.1-1.9c0.1-0.6,0.2-1.2,0.4-1.9c0.2-0.6,0.3-1.2,0.4-1.8c0.1-0.6,0.1-1.1,0.1-1.7
				C-182.1,391.3-182.1,390.8-182.2,390.3"/>
		</g>
	</g>
	<g>
		<g>
			<defs>
				<rect id="SVGID_5_" x="-223.9" y="386" width="57.4" height="22"/>
			</defs>
			<clipPath id="SVGID_6_">
				<use xlink:href="#SVGID_5_"  style="overflow:visible;"/>
			</clipPath>
			<path class="st2" d="M-166.9,406.5c-0.2,0.1-0.4,0.2-0.8,0.2c-0.3,0.1-0.5,0.1-0.8,0c-0.1-0.1-0.2-0.1-0.3-0.2s-0.2-0.2-0.4-0.3
				l-0.2-0.1c-0.1-0.1-0.1-0.1-0.2-0.1c-0.1-0.1-0.3-0.1-0.4-0.2c-0.3-0.1-0.5-0.2-0.9-0.2c-0.6,0-1,0.3-1.3,0.5
				c-0.3,0.3-0.4,0.5-0.5,0.8c-0.1,0.1-0.1,0.2-0.1,0.2v-19.8h-1.4v9.7h-6.9v1.4h6.9v8.9h1.4v-0.1c0.1,0,0.1-0.1,0.3-0.1
				s0.4-0.2,0.7-0.2c0.3-0.1,0.5-0.1,0.8,0c0.1,0.1,0.2,0.1,0.3,0.2s0.1,0.1,0.2,0.1c0.1,0,0.1,0.1,0.1,0.1l0.1,0.1
				c0.2,0.1,0.4,0.3,0.6,0.4c0.3,0.1,0.5,0.2,0.9,0.2c0.3,0,0.5-0.1,0.8-0.2c0.2-0.1,0.4-0.2,0.5-0.4c0.3-0.3,0.4-0.5,0.5-0.7
				s0.1-0.3,0.1-0.3S-166.8,406.4-166.9,406.5"/>
		</g>
	</g>
</g>
</svg>
