<?xml version="1.0" encoding="utf-8"?>
<!-- Generator: Adobe Illustrator 19.1.0, SVG Export Plug-In . SVG Version: 6.00 Build 0)  -->
<svg version="1.1" id="Layer_1" xmlns="http://www.w3.org/2000/svg" xmlns:xlink="http://www.w3.org/1999/xlink" x="0px" y="0px"
	 viewBox="-240.4 376 54.5 42" style="enable-background:new -240.4 376 54.5 42;" xml:space="preserve">
<style type="text/css">
	.st0{clip-path:url(#SVGID_2_);fill:#595A5C;}
	.st1{clip-path:url(#SVGID_4_);fill:#595A5C;}
	.st2{clip-path:url(#SVGID_6_);fill:#595A5C;}
	.st3{clip-path:url(#SVGID_8_);fill:#5A5C5A;}
	.st4{clip-path:url(#SVGID_10_);fill:#5A5C5A;}
	.st5{clip-path:url(#SVGID_12_);fill:#5A5C5A;}
</style>
<g>
	<g>
		<g>
			<defs>
				<rect id="SVGID_1_" x="-239.6" y="385" width="53.1" height="24"/>
			</defs>
			<clipPath id="SVGID_2_">
				<use xlink:href="#SVGID_1_"  style="overflow:visible;"/>
			</clipPath>
			<path class="st0" d="M-231.2,395.4h-0.6c-4-0.1-7.4-3.2-7.7-7.2c0-0.1,0-0.2,0-0.2l-0.1-0.6h0.6c0.1,0,0.2,0,0.4,0
				c4,0.3,7.2,3.5,7.4,7.4L-231.2,395.4z M-238.3,388.5c0.5,3,2.9,5.3,5.9,5.6C-232.9,391.2-235.3,388.9-238.3,388.5"/>
		</g>
	</g>
	<g>
		<g>
			<defs>
				<rect id="SVGID_3_" x="-239.6" y="385" width="53.1" height="24"/>
			</defs>
			<clipPath id="SVGID_4_">
				<use xlink:href="#SVGID_3_"  style="overflow:visible;"/>
			</clipPath>
			<path class="st1" d="M-231.2,395.4h-0.6c-4-0.1-7.4-3.2-7.7-7.2v-0.4l0.8-0.5h0.2c3.9,0.3,7.1,3.5,7.4,7.4L-231.2,395.4z
				 M-238.3,388.5c0.5,3,2.9,5.3,5.9,5.6C-232.9,391.2-235.3,388.9-238.3,388.5"/>
		</g>
	</g>
	<g>
		<g>
			<defs>
				<rect id="SVGID_5_" x="-239.6" y="385" width="53.1" height="24"/>
			</defs>
			<clipPath id="SVGID_6_">
				<use xlink:href="#SVGID_5_"  style="overflow:visible;"/>
			</clipPath>
			<path class="st2" d="M-231.2,395.4h-0.6c-4-0.1-7.4-3.2-7.7-7.2c0-0.1,0-0.2,0-0.2l-0.1-0.6h0.6c0.1,0,0.2,0,0.4,0
				c4,0.3,7.2,3.5,7.4,7.4L-231.2,395.4z M-238.3,388.5c0.5,3,2.9,5.3,5.9,5.6C-232.9,391.2-235.3,388.9-238.3,388.5"/>
		</g>
	</g>
	<g>
		<g>
			<defs>
				<rect id="SVGID_7_" x="-239.6" y="385" width="53.1" height="24"/>
			</defs>
			<clipPath id="SVGID_8_">
				<use xlink:href="#SVGID_7_"  style="overflow:visible;"/>
			</clipPath>
			<rect x="-204.6" y="385.1" class="st3" width="1.2" height="10.3"/>
		</g>
	</g>
	<g>
		<g>
			<defs>
				<rect id="SVGID_9_" x="-239.6" y="385" width="53.1" height="24"/>
			</defs>
			<clipPath id="SVGID_10_">
				<use xlink:href="#SVGID_9_"  style="overflow:visible;"/>
			</clipPath>
			<path class="st4" d="M-187.7,385.1v12.6h-9.6h-7.3l0,0h-5.2l0,0h-1.3l0,0h-3.8h-0.6h-7.2v1.2h11.5c-0.9,5-5.5,8.8-11,8.8
				c-6.1,0-11.2-4.8-11.2-10.8c0-0.4,0-0.7,0.1-1c-0.4-0.1-0.8-0.2-1.3-0.3c-0.1,0.4-0.1,0.9-0.1,1.3c0,6.6,5.6,12,12.5,12
				c6.2,0,11.4-4.4,12.3-10.1h5.3v10h1.2v-10h15.6v10h1.2V385L-187.7,385.1L-187.7,385.1z"/>
		</g>
	</g>
	<g>
		<g>
			<defs>
				<rect id="SVGID_11_" x="-239.6" y="385" width="53.1" height="24"/>
			</defs>
			<clipPath id="SVGID_12_">
				<use xlink:href="#SVGID_11_"  style="overflow:visible;"/>
			</clipPath>
			<path class="st5" d="M-222.2,386.2c5.6,0,10.3,4,11.1,9.2h1.3c-0.8-5.9-6-10.4-12.4-10.4c-3.6,0-6.9,1.5-9.2,3.9
				c0.2,0.4,0.5,0.8,0.6,1.2C-228.7,387.7-225.7,386.2-222.2,386.2"/>
		</g>
	</g>
</g>
</svg>
