<?xml version="1.0" encoding="utf-8"?>
<!-- Generator: Adobe Illustrator 19.1.0, SVG Export Plug-In . SVG Version: 6.00 Build 0)  -->
<svg version="1.1" id="Layer_1" xmlns="http://www.w3.org/2000/svg" xmlns:xlink="http://www.w3.org/1999/xlink" x="0px" y="0px"
	 viewBox="-289 376 33 42" style="enable-background:new -289 376 33 42;" xml:space="preserve">
<style type="text/css">
	.st0{clip-path:url(#SVGID_2_);fill:#5C5E5D;}
	.st1{clip-path:url(#SVGID_4_);fill:#5C5E5D;}
</style>
<g>
	<g>
		<g>
			<defs>
				<rect id="SVGID_1_" x="-288.1" y="376.5" width="31.2" height="41"/>
			</defs>
			<clipPath id="SVGID_2_">
				<use xlink:href="#SVGID_1_"  style="overflow:visible;"/>
			</clipPath>
			<path class="st0" d="M-266.6,417.5c-0.3,0-0.6,0-0.9-0.1l0,0c-1.7-0.3-2.9-1.6-3.3-3.3V414c0-0.1,0-0.3-0.1-0.4
				c-0.9-5.9-5-10.7-10.6-12.5c-0.2-0.1-0.5-0.2-0.7-0.2l-0.2-0.1c-4.1-1.6-6.5-5.9-5.6-10.2c0.5-2.4,1.9-4.4,3.9-5.7
				c2-1.3,4.4-1.8,6.8-1.3c4.6,1,7.7,5.4,7.1,10v0.1c-0.1,0.2-0.1,0.5-0.1,0.7c-0.9,5.9,1.5,11.7,6.3,15.3c1.4,1,2.1,2.7,1.7,4.4
				C-262.8,416.1-264.6,417.5-266.6,417.5 M-267.1,415.7c1.4,0.3,2.7-0.6,3-2c0.2-1-0.2-2-1-2.6c-5.4-3.9-8-10.4-7-17
				c0-0.3,0.1-0.5,0.1-0.8l0,0c0.5-3.7-2-7.3-5.7-8c-1.9-0.4-3.8,0-5.5,1s-2.7,2.7-3.1,4.6c-0.7,3.5,1.2,7,4.5,8.3h0.2
				c0.2,0.1,0.5,0.1,0.7,0.2c6.2,2.1,10.7,7.4,11.8,13.9c0,0.1,0.1,0.3,0.1,0.5C-268.8,414.8-268.1,415.5-267.1,415.7z"/>
		</g>
	</g>
	<g>
		<g>
			<defs>
				<rect id="SVGID_3_" x="-288.1" y="376.5" width="31.2" height="41"/>
			</defs>
			<clipPath id="SVGID_4_">
				<use xlink:href="#SVGID_3_"  style="overflow:visible;"/>
			</clipPath>
			<path class="st1" d="M-258.1,381.3c-1.2-2.1-3.1-3.7-5.5-4.4c-4.3-1.3-8.9,0.7-10.8,4.8l-0.1,0.2c-0.1,0.3-0.2,0.5-0.3,0.7
				l1.2,0.5c5.9-6.4,9.7-3.6,9.7-3.6c-4.8-1.1-7.7,2.7-8.8,4.4c4,0.7,8-1.3,9.9-4.9c1.3,0.7,2.4,1.7,3.1,3c0.9,1.7,1.2,3.7,0.6,5.6
				c-1.1,3.7-4.9,6-8.7,5.2l0,0c-0.3-0.1-0.5-0.2-0.8-0.2l-0.4,1.7c0.2,0.1,0.5,0.1,0.7,0.2h0.1c0.7,0.1,1.3,0.2,1.9,0.2
				c4,0,7.6-2.6,8.8-6.6C-256.6,385.9-256.9,383.4-258.1,381.3"/>
		</g>
	</g>
</g>
</svg>
