<?xml version="1.0" encoding="utf-8"?>
<!-- Generator: Adobe Illustrator 19.1.0, SVG Export Plug-In . SVG Version: 6.00 Build 0)  -->
<svg version="1.1" id="Layer_1" xmlns="http://www.w3.org/2000/svg" xmlns:xlink="http://www.w3.org/1999/xlink" x="0px" y="0px"
	 viewBox="-286 376 37.6 42" style="enable-background:new -286 376 37.6 42;" xml:space="preserve">
<style type="text/css">
	.st0{clip-path:url(#SVGID_2_);fill:#595A5C;}
	.st1{clip-path:url(#SVGID_4_);fill:#595A5C;}
	.st2{clip-path:url(#SVGID_6_);fill:#595A5C;}
	.st3{clip-path:url(#SVGID_8_);fill:#595A5C;}
	.st4{clip-path:url(#SVGID_10_);fill:#595A5C;}
	.st5{clip-path:url(#SVGID_12_);fill:#595A5C;}
	.st6{clip-path:url(#SVGID_14_);fill:#595A5C;}
	.st7{clip-path:url(#SVGID_16_);fill:#595A5C;}
	.st8{clip-path:url(#SVGID_18_);fill:#595A5C;}
	.st9{clip-path:url(#SVGID_20_);fill:#5C5C5C;}
	.st10{clip-path:url(#SVGID_22_);fill:#5C5C5C;}
</style>
<g>
	<g>
		<g>
			<defs>
				<rect id="SVGID_1_" x="-285" y="377.5" width="35.7" height="39"/>
			</defs>
			<clipPath id="SVGID_2_">
				<use xlink:href="#SVGID_1_"  style="overflow:visible;"/>
			</clipPath>
			<path class="st0" d="M-253.5,384.9l-9.1-5.5c-0.1,0-0.1-0.1-0.2-0.1c0.1,0.5,0,1.1-0.1,1.6l8.6,5.2c2.2,1.3,3.5,3.7,3.4,6.2
				l-0.2,10.7c-0.1,2.5-1.5,4.9-3.7,6.1l-9.3,5.1c-2.2,1.2-4.9,1.2-7.1-0.1l-9.1-5.5c-2.2-1.3-3.5-3.7-3.4-6.2l0.2-10.6
				c0.1-2.5,1.5-4.9,3.7-6.1l8.8-4.8c-0.1-0.5-0.1-1.1,0-1.6c-0.1,0-0.1,0.1-0.2,0.1l-9.3,5.1c-2.6,1.3-4.3,4.1-4.4,7.2l-0.2,10.6
				c-0.1,3,1.5,5.9,4.1,7.5l9.1,5.5c1.4,0.8,2.9,1.2,4.4,1.2c1.4,0,2.8-0.4,4.1-1.1l9.3-5.1c2.7-1.5,4.4-4.3,4.4-7.3l0.2-10.6
				C-249.3,389.4-250.9,386.5-253.5,384.9"/>
		</g>
	</g>
	<g>
		<g>
			<defs>
				<rect id="SVGID_3_" x="-285" y="377.5" width="35.7" height="39"/>
			</defs>
			<clipPath id="SVGID_4_">
				<use xlink:href="#SVGID_3_"  style="overflow:visible;"/>
			</clipPath>
			<path class="st1" d="M-261.3,388.6c-0.1-0.1-0.1-0.3-0.2-0.4c-0.2-0.3-0.3-0.6-0.6-0.8c-0.1-0.1-0.2-0.3-0.4-0.4l0,0
				c-0.1-0.1-0.3-0.2-0.4-0.3c-0.2-0.1-0.3-0.2-0.5-0.3c-0.1,0-0.2-0.1-0.3-0.1s-0.2-0.1-0.3-0.1l-0.1-0.2l0,0h-0.1l-0.5-0.1v0.3
				l0,0v0.2c-0.1,0.6,0,1.2,0.1,1.8c0.1,0.6,0.3,1.1,0.5,1.6c0.2,0.5,0.5,0.9,0.8,1.3c0.1,0.1,0.2,0.2,0.2,0.3
				c0.1,0.1,0.2,0.2,0.2,0.3c0.1,0.1,0.2,0.2,0.3,0.2c0.1,0.1,0.2,0.2,0.3,0.3l0.2,0.2l0.3-0.4c0.3-0.4,0.6-0.8,0.7-1.3
				c0.1-0.3,0.1-0.5,0.1-0.8s-0.1-0.5-0.1-0.8C-261.1,388.9-261.1,388.7-261.3,388.6"/>
		</g>
	</g>
	<g>
		<g>
			<defs>
				<rect id="SVGID_5_" x="-285" y="377.5" width="35.7" height="39"/>
			</defs>
			<clipPath id="SVGID_6_">
				<use xlink:href="#SVGID_5_"  style="overflow:visible;"/>
			</clipPath>
			<path class="st2" d="M-259.3,397.6h0.2c0.4,0,0.8-0.2,1.1-0.4c0.2-0.1,0.3-0.3,0.5-0.5c0.1-0.2,0.3-0.4,0.4-0.7
				c0.2-0.5,0.3-1.1,0.4-1.8c0-0.3,0-0.7-0.1-1s-0.2-0.7-0.3-1.1l-0.1-0.1l0,0v-0.1l-0.2-0.4l-0.2,0.1l0,0l-0.1,0.1
				c-0.4,0.3-0.7,0.7-0.9,1.2c-0.2,0.4-0.4,0.9-0.5,1.4c-0.1,0.2-0.1,0.5-0.1,0.7s-0.1,0.5-0.1,0.7s0,0.5,0,0.8s0,0.5,0.1,0.8
				L-259.3,397.6z"/>
		</g>
	</g>
	<g>
		<g>
			<defs>
				<rect id="SVGID_7_" x="-285" y="377.5" width="35.7" height="39"/>
			</defs>
			<clipPath id="SVGID_8_">
				<use xlink:href="#SVGID_7_"  style="overflow:visible;"/>
			</clipPath>
			<path class="st3" d="M-260.1,402c-0.1,0.1-0.2,0.2-0.2,0.3c-0.1,0.1-0.2,0.2-0.3,0.3l-0.2,0.4c-0.1,0.1-0.2,0.2-0.3,0.3l-0.2,0.3
				l0.1,0.1c0.2,0.2,0.5,0.2,0.9,0.2c0.2,0,0.4,0,0.6-0.1c0.2-0.1,0.4-0.2,0.6-0.3c0.1-0.1,0.2-0.1,0.3-0.2s0.2-0.2,0.3-0.3
				c0.2-0.2,0.5-0.4,0.7-0.6c0.2-0.2,0.4-0.5,0.6-0.8c0.1-0.2,0.2-0.3,0.3-0.5l0,0c0.1-0.2,0.2-0.3,0.2-0.5v-0.1l0,0v-0.1l0.1-0.4
				h-0.2l0,0l0,0c-0.4,0-0.8,0.1-1.1,0.3c-0.4,0.2-0.8,0.4-1.1,0.7C-259.4,401.3-259.6,401.7-260.1,402"/>
		</g>
	</g>
	<g>
		<g>
			<defs>
				<rect id="SVGID_9_" x="-285" y="377.5" width="35.7" height="39"/>
			</defs>
			<clipPath id="SVGID_10_">
				<use xlink:href="#SVGID_9_"  style="overflow:visible;"/>
			</clipPath>
			<path class="st4" d="M-267.3,406.5c0,0.2,0.2,0.4,0.4,0.6c0.1,0.1,0.3,0.2,0.5,0.2c0.2,0.1,0.4,0.1,0.6,0.1c0.5,0.1,1,0.1,1.6,0
				c0.3,0,0.6-0.1,0.9-0.2s0.6-0.2,1-0.3l0.1-0.1l0,0h0.1l0.4-0.2l-0.1-0.2l0,0l0,0c-0.2-0.2-0.5-0.3-0.8-0.3
				c-0.4-0.1-0.8-0.1-1.2-0.1c-0.2,0-0.5,0-0.7,0.1c-0.2,0-0.5,0.1-0.8,0.1c-0.3,0-0.5,0-0.8,0.1c-0.3,0-0.6,0-0.9,0h-0.4
				L-267.3,406.5z"/>
		</g>
	</g>
	<g>
		<g>
			<defs>
				<rect id="SVGID_11_" x="-285" y="377.5" width="35.7" height="39"/>
			</defs>
			<clipPath id="SVGID_12_">
				<use xlink:href="#SVGID_11_"  style="overflow:visible;"/>
			</clipPath>
			<path class="st5" d="M-273.5,405.1c0.1,0.2,0.2,0.3,0.3,0.5c0.1,0.1,0.1,0.2,0.2,0.3c0.1,0.1,0.2,0.2,0.3,0.3
				c0.2,0.2,0.4,0.4,0.7,0.5c0.5,0.3,1.1,0.6,1.7,0.9h0.1l0,0h0.1l0.4,0.1v-0.1l0,0v-0.1c0-0.2-0.2-0.4-0.4-0.7
				c-0.2-0.2-0.5-0.5-0.9-0.8c-0.3-0.3-0.7-0.6-1.1-0.9c-0.1-0.1-0.2-0.2-0.3-0.3c-0.1-0.1-0.2-0.2-0.3-0.3l-0.3-0.3l-0.3-0.3
				l-0.3-0.2l-0.1,0.1c-0.1,0.2-0.1,0.4,0,0.7C-273.6,404.7-273.5,404.9-273.5,405.1"/>
		</g>
	</g>
	<g>
		<g>
			<defs>
				<rect id="SVGID_13_" x="-285" y="377.5" width="35.7" height="39"/>
			</defs>
			<clipPath id="SVGID_14_">
				<use xlink:href="#SVGID_13_"  style="overflow:visible;"/>
			</clipPath>
			<path class="st6" d="M-276,399.6c0-0.3,0-0.5-0.1-0.8c0-0.3,0-0.6-0.1-0.9v-0.4h-0.1c-0.2,0-0.3,0.2-0.5,0.4
				c-0.1,0.1-0.1,0.3-0.2,0.5s-0.1,0.4-0.1,0.6c-0.1,0.5,0,1,0.1,1.6l0,0c0.1,0.3,0.1,0.6,0.2,0.9l0,0l0,0c0.1,0.3,0.2,0.6,0.4,0.9
				l0,0l0.1,0.1l0,0v0.1l0.2,0.4l0.1-0.1l0,0v-0.1c0.1-0.2,0.2-0.4,0.2-0.7c0-0.3,0-0.7-0.1-1.1c0-0.2,0-0.5-0.1-0.7
				C-276,400.2-276,399.9-276,399.6"/>
		</g>
	</g>
	<g>
		<g>
			<defs>
				<rect id="SVGID_15_" x="-285" y="377.5" width="35.7" height="39"/>
			</defs>
			<clipPath id="SVGID_16_">
				<use xlink:href="#SVGID_15_"  style="overflow:visible;"/>
			</clipPath>
			<path class="st7" d="M-274.8,392.5c0.1-0.1,0.2-0.2,0.3-0.3l0.3-0.3l0.3-0.3l0.2-0.3l-0.1-0.1c-0.1-0.1-0.3-0.1-0.6,0
				c-0.1,0-0.3,0.1-0.4,0.2c-0.2,0.1-0.3,0.2-0.5,0.4c-0.1,0.1-0.2,0.2-0.3,0.2c-0.1,0.1-0.2,0.2-0.3,0.3c-0.2,0.2-0.4,0.4-0.5,0.7
				c-0.3,0.4-0.5,0.8-0.7,1.3l0,0c-0.1,0.1-0.1,0.3-0.2,0.4v0.1l0,0v0.1l-0.1,0.4h0.1l0,0h0.1c0.2,0,0.4-0.2,0.6-0.4
				c0.2-0.2,0.5-0.5,0.7-0.9c0.3-0.3,0.5-0.8,0.9-1.2C-275,392.7-274.9,392.6-274.8,392.5"/>
		</g>
	</g>
	<g>
		<g>
			<defs>
				<rect id="SVGID_17_" x="-285" y="377.5" width="35.7" height="39"/>
			</defs>
			<clipPath id="SVGID_18_">
				<use xlink:href="#SVGID_17_"  style="overflow:visible;"/>
			</clipPath>
			<path class="st8" d="M-272.1,388.6l-0.1,0.1l0,0h-0.1l-0.4,0.2h0.1l0,0l0,0c0.1,0.1,0.4,0.1,0.6,0.1c0.3,0,0.7-0.1,1.1-0.2
				c0.2,0,0.4-0.1,0.7-0.1c0.2-0.1,0.5-0.1,0.8-0.2s0.5-0.1,0.8-0.2s0.6-0.2,0.9-0.3l0.2-0.1c0.1,0,0.2-0.1,0.2-0.1l0,0h-0.1h-0.1
				c-0.1,0-0.1,0-0.2,0s-0.3,0-0.5,0s-0.4,0-0.6,0c-0.4,0-1,0-1.5,0.1c-0.3,0.1-0.6,0.1-0.9,0.2
				C-271.5,388.4-271.9,388.5-272.1,388.6"/>
		</g>
	</g>
	<g>
		<g>
			<defs>
				<rect id="SVGID_19_" x="-285" y="377.5" width="35.7" height="39"/>
			</defs>
			<clipPath id="SVGID_20_">
				<use xlink:href="#SVGID_19_"  style="overflow:visible;"/>
			</clipPath>
			<path class="st9" d="M-268.5,382c1.2,0,1.4-0.5,1.4-1.5V379c0-1-0.2-1.5-1.4-1.5c-1.2,0-1.4,0.5-1.4,1.5v1.6
				C-270,381.5-269.6,382-268.5,382 M-269.4,379c0-0.7,0.1-1,0.9-1s0.9,0.3,0.9,1v1.6c0,0.7-0.1,1-0.9,1s-0.9-0.3-0.9-1V379z"/>
		</g>
	</g>
	<g>
		<g>
			<defs>
				<rect id="SVGID_21_" x="-285" y="377.5" width="35.7" height="39"/>
			</defs>
			<clipPath id="SVGID_22_">
				<use xlink:href="#SVGID_21_"  style="overflow:visible;"/>
			</clipPath>
			<polygon class="st10" points="-265.8,380.1 -264.3,380.1 -264.3,382 -263.6,382 -263.6,377.6 -264.3,377.6 -264.3,379.6 
				-265.8,379.6 -265.8,377.6 -266.3,377.6 -266.3,382 -265.8,382 			"/>
		</g>
	</g>
</g>
</svg>
