<?xml version="1.0" encoding="utf-8"?>
<!-- Generator: Adobe Illustrator 19.1.0, SVG Export Plug-In . SVG Version: 6.00 Build 0)  -->
<svg version="1.1" id="Layer_1" xmlns="http://www.w3.org/2000/svg" xmlns:xlink="http://www.w3.org/1999/xlink" x="0px" y="0px"
	 viewBox="0 0 289 311" style="enable-background:new 0 0 289 311;" xml:space="preserve">
<style type="text/css">
	.st0{fill:none;stroke:#5B5A5A;stroke-width:18;stroke-miterlimit:10.43;}
</style>
<g>
	<g>
		<path class="st0" d="M96.3,12.4c0,0,0.2,97,0.2,92.7c0.3,4.4-2.8,7.8-4.9,11.3c-6.1,9.6-12.1,19.3-18.2,28.8
			c-19,30.7-38.7,61-56.9,92.2c-7.7,15.1-9.3,35.4,2.2,49.1c10,10.6,25.3,14.3,39.5,14.3c60,0.1,120,0.1,180-0.4
			c11.7-0.9,24.2-4,32.4-12.9c7.3-8.3,8.8-19.8,8.4-30.5c0.4-9.5-3.9-18.4-8.4-26.6c-6.1-10.1-12.5-20-19.1-29.7
			c-19.1-29.3-38.3-58.4-57.6-87.5c-3.6-4.9-5.7-101.5-5.7-101.5c-27.3,0-54.7,0-82,0C102.9,11.8,99.6,12.1,96.3,12.4z"/>
	</g>
</g>
<line class="st0" x1="12.3" y1="248.5" x2="239" y2="181.6"/>
</svg>
