<?xml version="1.0" encoding="utf-8"?>
<!-- Generator: Adobe Illustrator 19.1.0, SVG Export Plug-In . SVG Version: 6.00 Build 0)  -->
<svg version="1.1" id="Layer_1" xmlns="http://www.w3.org/2000/svg" xmlns:xlink="http://www.w3.org/1999/xlink" x="0px" y="0px"
	 viewBox="0 0 49.1 42" style="enable-background:new 0 0 49.1 42;" xml:space="preserve">
<style type="text/css">
	.st0{clip-path:url(#SVGID_2_);fill:#5D5F5E;}
</style>
<g>
	<defs>
		<rect id="SVGID_1_" x="0.9" y="0.5" width="47.3" height="41"/>
	</defs>
	<clipPath id="SVGID_2_">
		<use xlink:href="#SVGID_1_"  style="overflow:visible;"/>
	</clipPath>
	<path class="st0" d="M45,37.9c-0.6,0.5-1.3,0.9-2.1,1.1c-1.8,0.4-3.7-0.2-4.8-1.7c-0.2-0.3-0.3-0.5-0.5-0.7
		c-6.2-9.2-7.5-9.3-18.9-8c-0.5,0.1-0.9,0.1-1.3,0.2l-0.1,0l-0.2,0c-6.3,0.5-12.1-3.8-13.5-10C2.9,15.5,3.5,12,5.3,9.1
		c1.8-2.9,4.7-5,8-5.8c6.6-1.5,13.3,2.3,15.3,8.7l0,0.1c0.1,0.5,0.2,0.9,0.4,1.4c0.4,1.4,0.7,2.7,1,3.8c0.6,2.4,1.1,4.3,1.8,5.9
		c0.3-1.1,0.7-3.5,0.5-6.4c0,0,0-0.1,0-0.1c-0.3-1.2-0.6-2.4-1.1-3.9c-0.1-0.4-0.2-0.8-0.3-1.3L31,11.3C28.6,3.6,20.6-0.9,12.8,0.9
		c-4,0.9-7.4,3.4-9.6,6.9C1,11.3,0.4,15.4,1.3,19.4c1.7,7.4,8.5,12.3,16,11.8l0.1,0l0.3,0c0.5-0.1,0.9-0.1,1.4-0.2
		c10.8-1.3,11-1.3,16.6,7c0.1,0.2,0.3,0.4,0.4,0.6l0.1,0.1c1.4,1.8,3.5,2.8,5.7,2.8c0.5,0,1.1-0.1,1.6-0.2c1.9-0.4,3.4-1.6,4.4-3.2
		c0.1-0.2,0.2-0.4,0.3-0.5C47.3,37.9,46.2,38,45,37.9"/>
	<path class="st0" d="M35.3,25c0,0.4,0.1,0.9,0.2,1.3c0.1,0.4,0.2,0.8,0.3,1.3c0.1,0.4,0.3,0.8,0.5,1.2c0.2,0.4,0.4,0.8,0.6,1.2
		c0.2,0.4,0.5,0.7,0.7,1.1c0.2,0.4,0.5,0.7,0.8,1c0.3,0.3,0.6,0.6,0.9,0.9c0.3,0.3,0.6,0.6,1,0.8l1,0.7l1.1,0.6
		c0.4,0.2,0.8,0.4,1.2,0.5l1.2,0.4l0.7,0.1l0,0c0,0,0.1,0,0.2,0l0.4,0.1l-0.2-0.1c0.1,0,0.2-0.1,0.2-0.2l0,0.3l0.3-1.2l0.1-1.3
		l0-1.3c0-0.4-0.1-0.8-0.1-1.3c-0.1-0.4-0.1-0.8-0.2-1.3c-0.1-0.4-0.2-0.8-0.4-1.2c-0.2-0.4-0.3-0.8-0.5-1.2
		c-0.2-0.4-0.4-0.8-0.6-1.1c-0.2-0.4-0.4-0.8-0.7-1.1c-0.3-0.3-0.5-0.7-0.8-1c-0.3-0.3-0.6-0.6-0.9-0.9c-0.3-0.3-0.6-0.6-1-0.8
		c-0.3-0.3-0.7-0.5-1.1-0.7c-0.4-0.2-0.8-0.4-1.2-0.6L38.2,21c-0.2-0.1-0.4-0.1-0.6-0.2L37,20.6c-0.3-0.1-0.4-0.1-0.7-0.2l-0.9-0.3
		L35.4,21l0,0.3c0,0.1,0,0.2,0,0.3l-0.1,0.7c-0.1,0.4,0,0.9,0,1.3C35.2,24.1,35.3,24.5,35.3,25 M44.8,35.9l-1.1-0.6l-1-0.6l-1-0.7
		l-0.9-0.8l-0.5-0.5l1.9-0.8l3,4.2L44.8,35.9z M45.5,31.5l0.3,1.2l0.2,1.2l0.1,1.2l0,0.5c-0.4-0.9-2.7-4.5-2.7-4.5l1.6-1.5
		c0.1,0.2,0.2,0.5,0.3,0.7C45.2,30.8,45.3,31.1,45.5,31.5 M37.1,22.3c0.2,0.1,0.4,0.1,0.6,0.2l0.5,0.2c0.3,0.1,0.7,0.3,1,0.5
		c0.3,0.2,0.7,0.4,1,0.6c0.3,0.2,0.6,0.5,0.9,0.7c0.3,0.2,0.6,0.5,0.9,0.8c0.3,0.3,0.5,0.6,0.8,0.9c0.3,0.3,0.5,0.6,0.7,0.9
		c0.2,0.3,0.4,0.7,0.6,1c0.1,0.2,0.2,0.5,0.4,0.7l-2.2,1.5l-2.2-2.6l-1.6-2l3.1,5L39.8,32c-0.2-0.2-0.3-0.4-0.5-0.6
		c-0.2-0.3-0.4-0.7-0.6-1c-0.2-0.4-0.4-0.7-0.5-1c-0.1-0.4-0.3-0.7-0.5-1.1c-0.1-0.4-0.3-0.7-0.4-1.1c-0.1-0.4-0.2-0.8-0.3-1.1
		c0-0.4-0.1-0.8-0.2-1.2c0-0.4-0.1-0.8-0.1-1.2c0-0.4,0-0.8,0.1-1.2l0-0.2L37.1,22.3z"/>
</g>
</svg>
