<?xml version="1.0" encoding="utf-8"?>
<!-- Generator: Adobe Illustrator 19.1.0, SVG Export Plug-In . SVG Version: 6.00 Build 0)  -->
<svg version="1.1" id="Layer_1" xmlns="http://www.w3.org/2000/svg" xmlns:xlink="http://www.w3.org/1999/xlink" x="0px" y="0px"
	 viewBox="0 0 331.7 325.4" style="enable-background:new 0 0 331.7 325.4;" xml:space="preserve">
<style type="text/css">
	.st0{clip-path:url(#SVGID_2_);fill:none;stroke:#5B5A5A;stroke-width:18;stroke-miterlimit:10.43;}
</style>
<g>
	<defs>
		<rect id="SVGID_1_" width="331.7" height="325.4"/>
	</defs>
	<clipPath id="SVGID_2_">
		<use xlink:href="#SVGID_1_"  style="overflow:visible;"/>
	</clipPath>
	<path class="st0" d="M147.5,9.3c11.4-0.5,22.8-0.2,34.2-0.1c3.6-0.6,5.6,3,7.2,5.6c6.4,11.7,11.1,24.1,16.2,36.4
		c4.4,1.8,8.7,3.6,13.2,5.3c14.4-5.5,28.1-14.3,43.5-16.2c9.8,8.4,19.2,17.5,27.9,27c-0.9,15.6-10,29.4-15.5,43.8
		c1.8,4.3,3.6,8.5,5.4,12.8c14.5,6.2,31.2,9.1,43.2,19.7v37.4c-12.4,10.2-28.6,14-43.1,20.5c-1.8,4.2-3.6,8.4-5.4,12.7
		c5.9,13.6,13.7,26.7,16.9,41.3c-7.2,11.2-18.8,19.5-28.3,29c-15.6-1.9-29.6-10-44.2-15.4c-4.4,1.7-8.7,3.5-13.1,5.2
		c-4.8,12.2-9.1,24.6-15.2,36.3c-1.6,2.3-3,5.8-6.2,5.8c-11.4,0.5-22.8,0.2-34.2,0.1c-4.3,0.5-6.3-4.1-8.1-7.1
		c-5.8-11.3-10.5-23.1-15.3-34.9c-4.4-1.8-8.9-3.6-13.3-5.3c-13.2,5.8-26.3,12.5-40.3,16.3c-3.9,1.2-6-2.9-8.6-4.8
		c-7.4-7.9-16.2-14.4-22.6-23.1c2.1-15.2,10.2-28.8,15.9-42.9c-1.8-4.3-3.7-8.5-5.5-12.8c-14.5-6-31-9.1-43.1-19.6v-37.4
		c12.4-10.3,28.6-14,43.1-20.5c1.8-4.2,3.6-8.4,5.3-12.7C52.1,99.6,46,88.2,41.9,76c-0.8-3-2.6-7.2,0.5-9.5
		c8.7-8.5,17.3-17.3,26.4-25.3c15.6,2,29.6,10,44.2,15.4c4.3-1.7,8.6-3.4,12.9-5.1c4.9-12.2,9.1-24.7,15.3-36.4
		C142.8,12.9,144.3,9.2,147.5,9.3z M148.6,111.5c-26.3,7.9-43.9,37.9-36.1,64.7c6.2,24.4,30.9,42.1,56,40.6
		c30.8-0.8,57.2-31.1,51.8-61.9C216.1,122.5,179.2,100.2,148.6,111.5z"/>
</g>
</svg>
