<?xml version="1.0" encoding="utf-8"?>
<!-- Generator: Adobe Illustrator 19.1.0, SVG Export Plug-In . SVG Version: 6.00 Build 0)  -->
<svg version="1.1" id="Layer_1" xmlns="http://www.w3.org/2000/svg" xmlns:xlink="http://www.w3.org/1999/xlink" x="0px" y="0px"
	 viewBox="-255 376 56.6 42" style="enable-background:new -255 376 56.6 42;" xml:space="preserve">
<style type="text/css">
	.st0{fill:#595A5C;}
	.st1{clip-path:url(#SVGID_2_);fill:#5D5F5E;}
</style>
<g>
	<polygon class="st0" points="-219,382.6 -242.5,405.2 -251.1,397 -242.9,389.1 -236.3,395.2 -235.2,394 -243,386.8 -253.5,397 
		-242.5,407.5 -218.9,384.7 -211.4,389.8 -210.4,388.4 	"/>
	<polygon class="st0" points="-231.7,399.7 -220,411.2 -208.2,401.9 -209.2,400.6 -219.9,409 -230.6,398.5 	"/>
	<g>
		<g>
			<g>
				<defs>
					<rect id="SVGID_1_" x="-253.5" y="382.6" width="54" height="28.7"/>
				</defs>
				<clipPath id="SVGID_2_">
					<use xlink:href="#SVGID_1_"  style="overflow:visible;"/>
				</clipPath>
				<path class="st1" d="M-199.7,394c-3.6-2.8-8.9-2.4-12.1,1c3.6,2.9,8.7,2.6,12-0.6c0.1-0.1,0.2-0.1,0.3-0.3
					C-199.6,394.1-199.6,394-199.7,394"/>
			</g>
		</g>
	</g>
</g>
</svg>
