<?xml version="1.0" encoding="utf-8"?>
<!-- Generator: Adobe Illustrator 19.1.0, SVG Export Plug-In . SVG Version: 6.00 Build 0)  -->
<svg version="1.1" id="Layer_1" xmlns="http://www.w3.org/2000/svg" xmlns:xlink="http://www.w3.org/1999/xlink" x="0px" y="0px"
	 viewBox="-269.4 376 28 42" style="enable-background:new -269.4 376 28 42;" xml:space="preserve">
<style type="text/css">
	.st0{clip-path:url(#SVGID_2_);fill:#5D5F5E;}
	.st1{clip-path:url(#SVGID_4_);fill:#5D5F5E;}
	.st2{clip-path:url(#SVGID_6_);fill:#5D5F5E;}
	.st3{clip-path:url(#SVGID_8_);fill:#5D5F5E;}
	.st4{clip-path:url(#SVGID_10_);fill:#5D5F5E;}
	.st5{clip-path:url(#SVGID_12_);fill:#5D5F5E;}
	.st6{clip-path:url(#SVGID_14_);fill:#5D5F5E;}
	.st7{clip-path:url(#SVGID_16_);fill:#5D5F5E;}
</style>
<g>
	<g>
		<g>
			<defs>
				<rect id="SVGID_1_" x="-268.5" y="376.5" width="26.3" height="41"/>
			</defs>
			<clipPath id="SVGID_2_">
				<use xlink:href="#SVGID_1_"  style="overflow:visible;"/>
			</clipPath>
			<path class="st0" d="M-255.5,376.5l-0.9,0.7c-12.5,12.5-12.1,29.4-12.1,30.1l2.7,2.2c0-0.2-0.4-17.8,10.5-29.4
				C-255.2,380.1-255.5,376.5-255.5,376.5"/>
		</g>
	</g>
	<g>
		<g>
			<defs>
				<rect id="SVGID_3_" x="-268.5" y="376.5" width="26.3" height="41"/>
			</defs>
			<clipPath id="SVGID_4_">
				<use xlink:href="#SVGID_3_"  style="overflow:visible;"/>
			</clipPath>
			<polygon class="st1" points="-255.4,417.5 -256.8,416.3 -256.8,401.8 -265.5,396.3 -264,394 -255.4,399.5 			"/>
		</g>
	</g>
	<g>
		<g>
			<defs>
				
					<rect id="SVGID_5_" x="-267" y="381.4" transform="matrix(0.5103 -0.86 0.86 0.5103 -469.924 -21.4808)" width="26.3" height="41"/>
			</defs>
			<clipPath id="SVGID_6_">
				<use xlink:href="#SVGID_5_"  style="overflow:visible;"/>
			</clipPath>
			
				<rect x="-251.5" y="392.1" transform="matrix(0.4948 0.869 -0.869 0.4948 219.5168 418.5143)" class="st2" width="2.7" height="12"/>
		</g>
	</g>
	<g>
		<g>
			<defs>
				<rect id="SVGID_7_" x="-268.5" y="376.5" width="26.3" height="41"/>
			</defs>
			<clipPath id="SVGID_8_">
				<use xlink:href="#SVGID_7_"  style="overflow:visible;"/>
			</clipPath>
			<path class="st3" d="M-254.6,377.1l-0.9-0.6c0.1,0.6,0.2,3.6,0.2,3.6c2.8,2.4,11,13,10.3,29.4l2.7-2.1
				C-241.3,386.2-254,377.4-254.6,377.1"/>
		</g>
	</g>
	<g>
		<g>
			<defs>
				<rect id="SVGID_9_" x="-268.5" y="376.5" width="26.3" height="41"/>
			</defs>
			<clipPath id="SVGID_10_">
				<use xlink:href="#SVGID_9_"  style="overflow:visible;"/>
			</clipPath>
			<polygon class="st4" points="-255.4,399.5 -255.4,417.5 -254,416.3 -254,400.3 			"/>
		</g>
	</g>
	<g>
		<g>
			<defs>
				<rect id="SVGID_11_" x="-268.5" y="376.5" width="26.3" height="41"/>
			</defs>
			<clipPath id="SVGID_12_">
				<use xlink:href="#SVGID_11_"  style="overflow:visible;"/>
			</clipPath>
			<polygon class="st5" points="-245.6,393.9 -255.4,399.4 -255.4,401.3 -254.7,402.3 -244.2,396.3 			"/>
		</g>
	</g>
	<g>
		<g>
			<defs>
				<rect id="SVGID_13_" x="-268.5" y="376.5" width="26.3" height="41"/>
			</defs>
			<clipPath id="SVGID_14_">
				<use xlink:href="#SVGID_13_"  style="overflow:visible;"/>
			</clipPath>
			<polygon class="st6" points="-256.8,399.9 -255.3,380 -254,399.9 			"/>
		</g>
	</g>
	<g>
		<g>
			<defs>
				<rect id="SVGID_15_" x="-268.5" y="376.5" width="26.3" height="41"/>
			</defs>
			<clipPath id="SVGID_16_">
				<use xlink:href="#SVGID_15_"  style="overflow:visible;"/>
			</clipPath>
			<polygon class="st7" points="-255.3,380 -255.4,399.9 -254,399.9 			"/>
		</g>
	</g>
</g>
</svg>
