<?xml version="1.0" encoding="utf-8"?>
<!-- Generator: Adobe Illustrator 19.1.0, SVG Export Plug-In . SVG Version: 6.00 Build 0)  -->
<svg version="1.1" id="Layer_1" xmlns="http://www.w3.org/2000/svg" xmlns:xlink="http://www.w3.org/1999/xlink" x="0px" y="0px"
	 viewBox="-228 376 73.5 42" style="enable-background:new -228 376 73.5 42;" xml:space="preserve">
<style type="text/css">
	.st0{clip-path:url(#SVGID_2_);fill:#5D5F5E;}
	.st1{clip-path:url(#SVGID_4_);fill:#5D5F5E;}
	.st2{clip-path:url(#SVGID_6_);fill:#5D5F5E;}
	.st3{clip-path:url(#SVGID_8_);fill:#5D5F5E;}
</style>
<g>
	<g>
		<g>
			<defs>
				<rect id="SVGID_1_" x="-226.6" y="384" width="71" height="26"/>
			</defs>
			<clipPath id="SVGID_2_">
				<use xlink:href="#SVGID_1_"  style="overflow:visible;"/>
			</clipPath>
			<path class="st0" d="M-199.2,392.3c2.7,0,5.1,1.3,6.7,3.6c0.3-0.6,0.6-1.1,1-1.6c-1.8-2.3-4.6-3.7-7.7-3.7
				c-5.4,0-9.7,4.4-9.7,9.7c0,4.4-3.6,8-8,8s-8-3.6-8-8c0-4.1,3-7.4,7-7.9c0.3,0.1,0.6,0.1,0.9,0.1h1l-0.1-1
				c-0.3-3.9-3.6-7.2-7.5-7.4c-0.1,0-0.3,0-0.3,0h-1l0.1,0.9c0,0.1,0,0.1,0,0.3c0.3,2.7,1.8,4.9,4,6.2c-3.4,1.5-5.8,4.9-5.8,8.9
				c0,5.4,4.4,9.7,9.7,9.7c5.3,0,9.7-4.4,9.7-9.7C-207.2,395.9-203.6,392.3-199.2,392.3 M-222.9,385.8c2.4,0.4,4.4,2.3,4.9,4.8
				C-220.4,390.1-222.3,388.2-222.9,385.8"/>
		</g>
	</g>
	<g>
		<g>
			<defs>
				<rect id="SVGID_3_" x="-226.6" y="384" width="71" height="26"/>
			</defs>
			<clipPath id="SVGID_4_">
				<use xlink:href="#SVGID_3_"  style="overflow:visible;"/>
			</clipPath>
			<path class="st1" d="M-181.4,390.5c-5.4,0-9.7,4.4-9.7,9.7l0,0c0,4.4-3.6,8-8,8c-3,0-5.7-1.6-7.1-4.3l-0.2,0.1
				c-0.2,0.6-0.5,1.1-0.8,1.6c1.8,2.7,4.8,4.3,8.1,4.3c5.4,0,9.7-4.4,9.7-9.7l0,0c0-4.4,3.6-8,8-8s8,3.6,8,8c0,3.2-1.9,6-4.6,7.2
				c-2.1-3.1-6.1-4.4-9.6-3c-0.1,0.1-0.1,0.1-0.3,0.1l-0.8,0.4l0.4,0.8c0.1,0.1,0.1,0.1,0.1,0.2c1.5,2.5,4.1,4,6.9,4
				c0.6,0,1.1-0.1,1.7-0.2c4.5-0.8,7.9-4.8,7.9-9.5C-171.7,394.9-176,390.5-181.4,390.5 M-186.2,405.9c2.4-0.6,4.9,0.3,6.5,2.2
				c-0.1,0-0.1,0-0.1,0.1c-0.5,0.1-1,0.1-1.5,0.1l0,0C-183.3,408.2-185,407.4-186.2,405.9"/>
		</g>
	</g>
	<g>
		<g>
			<defs>
				<rect id="SVGID_5_" x="-226.6" y="384" width="71" height="26"/>
			</defs>
			<clipPath id="SVGID_6_">
				<use xlink:href="#SVGID_5_"  style="overflow:visible;"/>
			</clipPath>
			<polygon class="st2" points="-168,390.9 -169.7,390.9 -169.7,409.2 -168,409.2 -168,400.6 -160.7,400.6 -160.7,398.9 -168,398.9 
							"/>
		</g>
	</g>
	<g>
		<g>
			<defs>
				<rect id="SVGID_7_" x="-226.6" y="384" width="71" height="26"/>
			</defs>
			<clipPath id="SVGID_8_">
				<use xlink:href="#SVGID_7_"  style="overflow:visible;"/>
			</clipPath>
			<rect x="-157.4" y="390.7" class="st3" width="1.7" height="18.3"/>
		</g>
	</g>
</g>
</svg>
