<?xml version="1.0" encoding="utf-8"?>
<!-- Generator: Adobe Illustrator 19.1.0, SVG Export Plug-In . SVG Version: 6.00 Build 0)  -->
<svg version="1.1" id="Layer_1" xmlns="http://www.w3.org/2000/svg" xmlns:xlink="http://www.w3.org/1999/xlink" x="0px" y="0px"
	 viewBox="0 0 78 91" style="enable-background:new 0 0 78 91;" xml:space="preserve">
<style type="text/css">
	.st0{fill:none;stroke:#000000;stroke-miterlimit:10.43;}
</style>
<path class="st0" d="M33.4,9c0,6.5,0,13,0,19.5c-0.1,3.6-1.3,7.1-3.3,10c-2.2,3.2-5.5,5.6-9.2,6.9c-0.9,0.3-1.9,0.5-2.9,0.8
	c-2.8,0.7-5.7,1.4-8.5,2c-0.7,0.2-1.4,0.3-2,0.6c-2,0.8-3.7,2.2-4.9,4c-2.3,3.5-2.2,8.4,0.2,11.9c1.3,1.9,3.2,3.3,5.3,4
	c1.8,0.6,3.7,0.7,5.5,0.3c2.3-0.6,4.7-1.1,7-1.7c0.1,0,0.3-0.1,0.4-0.2c0.2-0.5,0.3-1,0.5-1.5c1.4-3.5,4.3-6.5,7.7-8
	c1.7-0.8,3.6-1.1,5.4-1.6c2.6-0.6,5.2-1.3,7.9-1.9c2.1-0.5,4-1.5,5.6-2.8c3-2.5,4.8-6.4,4.8-10.4c0-10.6,0-21.2,0-31.8
	C46.4,9,39.9,9,33.4,9z M57.7,21.9c0,6.3,0,12.5,0,18.8c0,2.5-0.5,5-1.5,7.3c-1.5,3.5-4.1,6.6-7.4,8.6c-1.7,1-3.6,1.8-5.5,2.2
	c-2.9,0.7-5.9,1.4-8.9,2.1c-0.9,0.2-1.9,0.4-2.8,0.8c-2,0.8-3.7,2.2-4.8,3.9c-2.2,3.4-2.3,8-0.2,11.5c0.9,1.5,2.3,2.8,3.9,3.7
	c1.8,1,3.9,1.4,6,1.2c1.3-0.1,2.5-0.5,3.8-0.8c8.8-2.1,17.5-4.2,26.3-6.3c2-0.5,3.9-1.4,5.5-2.7c3.2-2.6,5.1-6.7,5.1-10.8
	c0-13.2,0-26.4,0-39.5C70.7,21.9,64.2,21.9,57.7,21.9z"/>
</svg>
