<?xml version="1.0" encoding="utf-8"?>
<!-- Generator: Adobe Illustrator 19.1.0, SVG Export Plug-In . SVG Version: 6.00 Build 0)  -->
<svg version="1.1" id="Layer_1" xmlns="http://www.w3.org/2000/svg" xmlns:xlink="http://www.w3.org/1999/xlink" x="0px" y="0px"
	 viewBox="0 0 169.6 107.4" style="enable-background:new 0 0 169.6 107.4;" xml:space="preserve">
<style type="text/css">
	.st0{opacity:0.24;clip-path:url(#SVGID_2_);fill:#3E3D3D;}
</style>
<g>
	<defs>
		<rect id="SVGID_1_" width="169.6" height="107.4"/>
	</defs>
	<clipPath id="SVGID_2_">
		<use xlink:href="#SVGID_1_"  style="overflow:visible;"/>
	</clipPath>
	<path class="st0" d="M0.1,0.2C2,0.1,3.9,0.1,5.7,0C6,10.6,5.6,21.2,5.9,31.7c0.8,2.9,1.7,7.5,5.5,7.5c10.1-0.1,20.2,0.3,30.2-0.2
		c2.5-1.8,4.3-5,4.1-8.1c0.1-10.3-0.2-20.6,0.1-30.9c1.8,0,3.5,0.1,5.3,0.1c0.8,10.6,0.1,21.2,0.4,31.8c0.4,5-2.7,9.9-7.2,12
		c-2.8,1.3-6,1.1-9,1.1c-7.7-0.1-15.4,0-23.1,0C7.1,45.1,2,41.4,0.9,36.3c-0.7-2.1-0.9-4.3-0.9-6.4C0.1,20,0,10.1,0.1,0.2"/>
	<path class="st0" d="M62.4,5.1c2.4-3.5,6.7-5.1,10.8-5c9.4,0.1,18.7,0,28.1,0c3,0,5.7,1.9,7.3,4.3c0.9,2.8,1.5,5.8,1.6,8.8
		c-1.7-0.2-3.8,0.4-5-1.1c-1.6-2.2-1.6-5.6-4.3-6.8c-1.6-1.2-3.7-0.8-5.5-0.9c-6.7,0.1-13.4,0-20.1,0c-2.6-0.1-5,1.2-7.4,2
		c-1.6,3.7-3,8.3,0.5,11.3c2.8,1.1,5.8,1.9,8.9,1.8c8,0,16.1,0,24.1,0c3.2-0.1,6.4,1.6,8.2,4.2c2.1,4.1,3,9.1,1,13.5
		c-1.4,5.3-7.2,7.7-12.2,7.8c-8,0.2-16.1,0-24.1,0.1c-3.5,0.1-7.3-0.6-9.9-3.2c-3.1-2.8-4-7.2-3.8-11.2c1.7-0.1,3.3-0.2,5-0.3
		c0.9,2.8,0.6,7,4,8.1c2.9,0.9,5.8,1.9,8.8,1.9c8-0.1,16.2,0.8,24-1.8c5.6-3.1,4.3-13.4-2.3-14.2c-9.5-0.8-19.1,0-28.7-0.3
		c-4.5-0.4-9.5-2.6-10.6-7.4C60.5,12.8,59.8,8.3,62.4,5.1"/>
	<path class="st0" d="M120.8,0.1c12.9,0.1,25.7,0,38.6,0c3.4,0.1,7.7,0.9,9.1,4.4c1.6,3.9,0.9,8.3,1.1,12.4c0,3.3-0.5,7.5-3.8,9.2
		c-2,0.9-4.2,1.5-6.4,1.4c-10.9,0-21.8-0.1-32.7,0c-0.2,5.7,0.2,11.3-0.4,17c-1.8,0-3.6,0.1-5.4,0.1
		C120.7,29.8,120.7,14.9,120.8,0.1 M126.6,4.4c-0.1,6.3-0.1,12.6,0,18.9c8.9,0,17.9,0,26.8,0c2.9,0.2,5.7-0.8,8.3-2.1
		c3.5-2.2,1.7-7,2.1-10.4c0.6-4.3-4.4-5.7-7.6-6.4C146.3,4.2,136.4,4.4,126.6,4.4"/>
	<path class="st0" d="M29.8,62.5c3.7,0.4,8.4-1.4,11.2,1.7c8.7,8.6,17.3,17.3,26,25.9c3.7,3.7,7.2,7.7,11.5,10.7
		c0.8-12.8,0.1-25.6,0.4-38.4c1.9,0,3.8,0,5.7,0c0.1,14.9,0,29.9,0,44.8c-2.7,0-5.5,0.3-8.2-0.1c-4-2.8-7-6.7-10.5-9.9
		c-10-9.8-19.6-20.1-30-29.5c-0.9,13.1-0.1,26.4-0.4,39.5c-1.9,0.1-3.8,0.1-5.7,0.1C29.7,92.4,29.7,77.5,29.8,62.5"/>
	<path class="st0" d="M94.9,62.5c14.2,0,28.5-0.1,42.7,0.1c-0.1,1.4-0.2,2.9-0.3,4.3c-12.2,0.5-24.5,0.1-36.7,0.2c0,5,0,10,0,15
		c11.8,0.3,23.6,0,35.4,0.2c0,1.4,0,2.8,0,4.2c-11.8,0.2-23.6-0.1-35.4,0.1c-0.1,6.9,0,13.8,0,20.8c-1.9,0-3.8,0-5.7,0
		C94.8,92.4,94.8,77.4,94.9,62.5"/>
</g>
</svg>
