<?xml version="1.0" encoding="utf-8"?>
<!-- Generator: Adobe Illustrator 19.1.0, SVG Export Plug-In . SVG Version: 6.00 Build 0)  -->
<svg version="1.1" id="Layer_1" xmlns="http://www.w3.org/2000/svg" xmlns:xlink="http://www.w3.org/1999/xlink" x="0px" y="0px"
	 viewBox="0 0 157.4 188.9" style="enable-background:new 0 0 157.4 188.9;" xml:space="preserve">
<style type="text/css">
	.st0{clip-path:url(#SVGID_2_);fill:none;stroke:#000000;stroke-width:2;stroke-miterlimit:10.43;}
</style>
<g>
	<defs>
		<rect id="SVGID_1_" width="157.4" height="188.9"/>
	</defs>
	<clipPath id="SVGID_2_">
		<use xlink:href="#SVGID_1_"  style="overflow:visible;"/>
	</clipPath>
	<path class="st0" d="M1,1c51.8,0,103.6,0,155.4,0c0,11.3,0,22.6,0,33.9c-51.8,0-103.6,0-155.4,0C1,23.6,1,12.3,1,1z"/>
	<path class="st0" d="M1,44c51.8,0,103.6,0,155.4,0c0,48,0,95.9,0,143.9c-51.8,0-103.6,0-155.4,0C1,140,1,92,1,44z"/>
	<circle class="st0" cx="77.6" cy="117.5" r="40"/>
	<circle class="st0" cx="22.1" cy="18" r="7"/>
	<circle class="st0" cx="46.6" cy="18" r="7"/>
	<circle class="st0" cx="77.6" cy="117.5" r="51.1"/>
</g>
</svg>
